GentiumBookPlus-B.ufo
<glyph name="LtnCapD" format="1">
  <advance width="1334"/>
  <unicode hex="0044"/>
  <outline>
    <contour>
      <point x="1253" y="676" type="curve" smooth="yes"/>
      <point x="1253" y="1063"/>
      <point x="1019" y="1290"/>
      <point x="598" y="1290" type="curve" smooth="yes"/>
      <point x="420" y="1290"/>
      <point x="163" y="1263"/>
      <point x="26" y="1230" type="curve"/>
      <point x="40" y="1128" type="line"/>
      <point x="151" y="1145"/>
      <point x="373" y="1176"/>
      <point x="523" y="1176" type="curve" smooth="yes"/>
      <point x="804" y="1176"/>
      <point x="953" y="991"/>
      <point x="953" y="637" type="curve" smooth="yes"/>
      <point x="953" y="262"/>
      <point x="741" y="114"/>
      <point x="597" y="114" type="curve" smooth="yes"/>
      <point x="455" y="114"/>
      <point x="455" y="144"/>
      <point x="455" y="190" type="curve"/>
      <point x="82" y="0" type="line"/>
      <point x="297" y="0"/>
      <point x="440" y="0"/>
      <point x="639" y="0" type="curve" smooth="yes"/>
      <point x="925" y="0"/>
      <point x="1253" y="176"/>
    </contour>
    <contour>
      <point x="550" y="0" type="line"/>
      <point x="550" y="101" type="line"/>
      <point x="453" y="120"/>
      <point x="455" y="142"/>
      <point x="455" y="194" type="curve" smooth="yes"/>
      <point x="455" y="1239" type="line"/>
      <point x="175" y="1239" type="line"/>
      <point x="175" y="144" type="line" smooth="yes"/>
      <point x="175" y="126"/>
      <point x="130" y="101"/>
      <point x="40" y="83" type="curve"/>
      <point x="40" y="0" type="line"/>
    </contour>
    <contour>
      <point x="603" y="1370" type="move" name="U"/>
    </contour>
    <contour>
      <point x="603" y="-100" type="move" name="L"/>
    </contour>
  </outline>
</glyph>
<glyph name="LtnCapI" format="1">
  <advance width="690"/>
  <unicode hex="0049"/>
  <outline>
    <contour>
      <point x="610" y="0" type="line"/>
      <point x="610" y="83" type="line"/>
      <point x="514" y="101"/>
      <point x="475" y="128"/>
      <point x="475" y="144" type="curve" smooth="yes"/>
      <point x="475" y="1115" type="line" smooth="yes"/>
      <point x="475" y="1134"/>
      <point x="520" y="1158"/>
      <point x="610" y="1177" type="curve"/>
      <point x="610" y="1260" type="line"/>
      <point x="60" y="1260" type="line"/>
      <point x="60" y="1177" type="line"/>
      <point x="156" y="1158"/>
      <point x="195" y="1131"/>
      <point x="195" y="1115" type="curve" smooth="yes"/>
      <point x="195" y="144" type="line" smooth="yes"/>
      <point x="195" y="126"/>
      <point x="150" y="101"/>
      <point x="60" y="83" type="curve"/>
      <point x="60" y="0" type="line"/>
    </contour>
    <contour>
      <point x="335" y="1370" type="move" name="U"/>
    </contour>
    <contour>
      <point x="335" y="-100" type="move" name="L"/>
    </contour>
    <contour>
      <point x="396" y="0" type="move" name="O"/>
    </contour>
    <contour>
      <point x="335" y="0" type="move" name="H"/>
    </contour>
    <contour>
      <point x="608" y="1100" type="move" name="R"/>
    </contour>
  </outline>
</glyph>
<glyph name="LtnCapL" format="1">
  <advance width="1065"/>
  <unicode hex="004C"/>
  <outline>
    <contour>
      <point x="1044" y="324" type="curve"/>
      <point x="961" y="352" type="line"/>
      <point x="904" y="196"/>
      <point x="867" y="130"/>
      <point x="744" y="130" type="curve" smooth="yes"/>
      <point x="641" y="130" type="line" smooth="yes"/>
      <point x="495" y="130"/>
      <point x="455" y="157"/>
      <point x="455" y="204" type="curve" smooth="yes"/>
      <point x="455" y="1115" type="line" smooth="yes"/>
      <point x="455" y="1134"/>
      <point x="500" y="1158"/>
      <point x="590" y="1177" type="curve"/>
      <point x="590" y="1260" type="line"/>
      <point x="40" y="1260" type="line"/>
      <point x="40" y="1177" type="line"/>
      <point x="136" y="1158"/>
      <point x="175" y="1131"/>
      <point x="175" y="1115" type="curve" smooth="yes"/>
      <point x="175" y="144" type="line" smooth="yes"/>
      <point x="175" y="126"/>
      <point x="130" y="101"/>
      <point x="40" y="83" type="curve"/>
      <point x="40" y="0" type="line"/>
      <point x="1003" y="0" type="line"/>
      <point x="1013" y="39"/>
      <point x="1034" y="209"/>
    </contour>
    <contour>
      <point x="542" y="0" type="move" name="H"/>
    </contour>
    <contour>
      <point x="840" y="900" type="move" name="R"/>
    </contour>
    <contour>
      <point x="508" y="1370" type="move" name="U"/>
    </contour>
    <contour>
      <point x="542" y="-100" type="move" name="L"/>
    </contour>
  </outline>
</glyph>
<glyph name="LtnCapU" format="1">
  <advance width="1379"/>
  <unicode hex="0055"/>
  <outline>
    <contour>
      <point x="1325" y="1177" type="curve"/>
      <point x="1325" y="1260" type="line"/>
      <point x="865" y="1260" type="line"/>
      <point x="865" y="1177" type="line"/>
      <point x="961" y="1158"/>
      <point x="1000" y="1131"/>
      <point x="1000" y="1115" type="curve" smooth="yes"/>
      <point x="1000" y="503" type="line" smooth="yes"/>
      <point x="1000" y="305"/>
      <point x="945" y="125"/>
      <point x="755" y="125" type="curve" smooth="yes"/>
      <point x="527" y="125"/>
      <point x="455" y="258"/>
      <point x="455" y="514" type="curve" smooth="yes"/>
      <point x="455" y="1115" type="line" smooth="yes"/>
      <point x="455" y="1134"/>
      <point x="500" y="1158"/>
      <point x="590" y="1177" type="curve"/>
      <point x="590" y="1260" type="line"/>
      <point x="40" y="1260" type="line"/>
      <point x="40" y="1177" type="line"/>
      <point x="136" y="1158"/>
      <point x="175" y="1131"/>
      <point x="175" y="1115" type="curve" smooth="yes"/>
      <point x="175" y="444" type="line" smooth="yes"/>
      <point x="175" y="119"/>
      <point x="411" y="-30"/>
      <point x="686" y="-30" type="curve" smooth="yes"/>
      <point x="974" y="-30"/>
      <point x="1190" y="174"/>
      <point x="1190" y="524" type="curve" smooth="yes"/>
      <point x="1190" y="1115" type="line" smooth="yes"/>
      <point x="1190" y="1134"/>
      <point x="1235" y="1158"/>
    </contour>
    <contour>
      <point x="697" y="1370" type="move" name="U"/>
    </contour>
    <contour>
      <point x="697" y="-100" type="move" name="L"/>
    </contour>
    <contour>
      <point x="1380" y="1100" type="move" name="R"/>
    </contour>
    <contour>
      <point x="784" y="0" type="move" name="O"/>
    </contour>
    <contour>
      <point x="697" y="0" type="move" name="H"/>
    </contour>
  </outline>
</glyph>
<glyph name="LftSqrBrac" format="1">
  <advance width="711"/>
  <unicode hex="005B"/>
  <outline>
    <contour>
      <point x="691" y="-219" type="curve"/>
      <point x="646" y="-180" type="line"/>
      <point x="380" y="-180" type="line"/>
      <point x="380" y="1445" type="line"/>
      <point x="652" y="1445" type="line"/>
      <point x="660" y="1461"/>
      <point x="683" y="1531"/>
      <point x="689" y="1564" type="curve"/>
      <point x="646" y="1600" type="line"/>
      <point x="120" y="1600" type="line"/>
      <point x="120" y="-335" type="line"/>
      <point x="652" y="-335" type="line"/>
      <point x="662" y="-312"/>
      <point x="685" y="-245"/>
    </contour>
  </outline>
</glyph>
<glyph name="LtnSmV" format="1">
  <advance width="1050"/>
  <unicode hex="0076"/>
  <outline>
    <contour>
      <point x="1039" y="847" type="curve"/>
      <point x="1039" y="930" type="line"/>
      <point x="716" y="930" type="line"/>
      <point x="716" y="847" type="line"/>
      <point x="804" y="832"/>
      <point x="807" y="819"/>
      <point x="790" y="779" type="curve" smooth="yes"/>
      <point x="597" y="322" type="line"/>
      <point x="393" y="779" type="line" smooth="yes"/>
      <point x="374" y="821"/>
      <point x="383" y="834"/>
      <point x="486" y="847" type="curve"/>
      <point x="486" y="930" type="line"/>
      <point x="10" y="930" type="line"/>
      <point x="10" y="847" type="line"/>
      <point x="76" y="832"/>
      <point x="95" y="815"/>
      <point x="111" y="779" type="curve" smooth="yes"/>
      <point x="471" y="-30" type="line"/>
      <point x="546" y="-12"/>
      <point x="633" y="30"/>
      <point x="656" y="89" type="curve"/>
      <point x="939" y="779" type="line" smooth="yes"/>
      <point x="955" y="817"/>
      <point x="959" y="828"/>
    </contour>
    <contour>
      <point x="514" y="0" type="move" name="H"/>
    </contour>
    <contour>
      <point x="477" y="0" type="move" name="O"/>
    </contour>
    <contour>
      <point x="557" y="1050" type="move" name="U"/>
    </contour>
    <contour>
      <point x="536" y="-100" type="move" name="L"/>
    </contour>
  </outline>
</glyph>
<glyph name="NoBreakSpace" format="1">
  <advance width="530"/>
  <unicode hex="00A0"/>
  <outline>
    <contour>
      <point x="225" y="0" type="move" name="H"/>
    </contour>
    <contour>
      <point x="275" y="0" type="move" name="O"/>
    </contour>
    <contour>
      <point x="225" y="-100" type="move" name="L"/>
    </contour>
    <contour>
      <point x="451" y="900" type="move" name="R"/>
    </contour>
    <contour>
      <point x="225" y="1370" type="move" name="U"/>
    </contour>
  </outline>
</glyph>
<glyph name="LftPtngDblAngQuotMrk" format="1">
  <advance width="1074"/>
  <unicode hex="00AB"/>
  <outline>
    <contour>
      <point x="891" y="-3" type="line"/>
      <point x="954" y="47" type="line"/>
      <point x="763" y="467" type="line"/>
      <point x="760" y="465"/>
      <point x="954" y="883"/>
      <point x="953" y="883" type="curve"/>
      <point x="891" y="933" type="line"/>
      <point x="482" y="503" type="line" smooth="yes"/>
      <point x="480" y="500"/>
      <point x="480" y="430"/>
      <point x="480" y="430" type="curve"/>
    </contour>
    <contour>
      <point x="471" y="-3" type="line"/>
      <point x="534" y="47" type="line"/>
      <point x="343" y="467" type="line"/>
      <point x="340" y="465"/>
      <point x="534" y="883"/>
      <point x="533" y="883" type="curve"/>
      <point x="471" y="933" type="line"/>
      <point x="62" y="503" type="line" smooth="yes"/>
      <point x="60" y="500"/>
      <point x="60" y="430"/>
      <point x="60" y="430" type="curve"/>
    </contour>
  </outline>
</glyph>
<glyph name="NotSgn" format="1">
  <advance width="1061"/>
  <unicode hex="00AC"/>
  <outline>
    <contour>
      <point x="971" y="233" type="curve"/>
      <point x="971" y="606" type="line"/>
      <point x="932" y="638" type="line"/>
      <point x="932" y="638"/>
      <point x="918" y="638"/>
      <point x="131" y="638" type="curve"/>
      <point x="119" y="612"/>
      <point x="87" y="547"/>
      <point x="80" y="520" type="curve"/>
      <point x="115" y="486" type="line"/>
      <point x="810" y="486" type="line"/>
      <point x="810" y="197" type="line"/>
      <point x="845" y="162" type="line"/>
      <point x="878" y="173"/>
      <point x="944" y="213"/>
    </contour>
  </outline>
</glyph>
<glyph name="Hyphen_Soft" format="1">
  <advance width="740"/>
  <unicode hex="00AD"/>
  <outline>
    <component base="HyphenMinus"/>
    <contour>
      <point x="345" y="1050" type="move" name="U"/>
    </contour>
  </outline>
</glyph>
<glyph name="Macron" format="1">
  <advance width="1010"/>
  <unicode hex="00AF"/>
  <outline>
    <contour>
      <point x="960" y="1315" type="curve"/>
      <point x="925" y="1349" type="line"/>
      <point x="111" y="1349" type="line"/>
      <point x="99" y="1323"/>
      <point x="57" y="1238"/>
      <point x="50" y="1209" type="curve"/>
      <point x="85" y="1175" type="line"/>
      <point x="899" y="1175" type="line"/>
      <point x="909" y="1197"/>
      <point x="952" y="1286"/>
    </contour>
  </outline>
</glyph>
<glyph name="LtnCapAGrave" format="1">
  <advance width="1309"/>
  <unicode hex="00C0"/>
  <outline>
    <component base="LtnCapA"/>
    <component base="CombGrave.LP" xOffset="1110" yOffset="320"/>
    <contour>
      <point x="644" y="0" type="move" name="H"/>
    </contour>
    <contour>
      <point x="1032" y="0" type="move" name="O"/>
    </contour>
    <contour>
      <point x="644" y="1690" type="move" name="U"/>
    </contour>
    <contour>
      <point x="644" y="-100" type="move" name="L"/>
    </contour>
  </outline>
</glyph>
<glyph name="LtnCapATilde" format="1">
  <advance width="1309"/>
  <unicode hex="00C3"/>
  <outline>
    <component base="LtnCapA"/>
    <component base="CombTilde.LP" xOffset="1192" yOffset="320"/>
    <contour>
      <point x="644" y="0" type="move" name="H"/>
    </contour>
    <contour>
      <point x="644" y="1690" type="move" name="U"/>
    </contour>
    <contour>
      <point x="644" y="-100" type="move" name="L"/>
    </contour>
    <contour>
      <point x="1032" y="0" type="move" name="O"/>
    </contour>
  </outline>
</glyph>
<glyph name="LtnCapARingAbv" format="1">
  <advance width="1309"/>
  <unicode hex="00C5"/>
  <outline>
    <component base="LtnCapA"/>
    <component base="CombRingAbv" xOffset="1192" yOffset="320"/>
    <contour>
      <point x="644" y="0" type="move" name="H"/>
    </contour>
    <contour>
      <point x="1032" y="0" type="move" name="O"/>
    </contour>
    <contour>
      <point x="644" y="1810" type="move" name="U"/>
    </contour>
    <contour>
      <point x="644" y="-100" type="move" name="L"/>
    </contour>
  </outline>
</glyph>
<glyph name="LtnCapICircum" format="1">
  <advance width="690"/>
  <unicode hex="00CE"/>
  <outline>
    <component base="LtnCapI"/>
    <component base="CombCircum.LP" xOffset="882" yOffset="320"/>
    <contour>
      <point x="335" y="0" type="move" name="H"/>
    </contour>
    <contour>
      <point x="608" y="1100" type="move" name="R"/>
    </contour>
    <contour>
      <point x="335" y="1770" type="move" name="U"/>
    </contour>
    <contour>
      <point x="335" y="-100" type="move" name="L"/>
    </contour>
    <contour>
      <point x="396" y="0" type="move" name="O"/>
    </contour>
  </outline>
</glyph>
<glyph name="LtnCapIDiaer" format="1">
  <advance width="690"/>
  <unicode hex="00CF"/>
  <outline>
    <component base="LtnCapI"/>
    <component base="CombDiaer.LP" xOffset="883" yOffset="320"/>
    <contour>
      <point x="335" y="0" type="move" name="H"/>
    </contour>
    <contour>
      <point x="608" y="1100" type="move" name="R"/>
    </contour>
    <contour>
      <point x="335" y="1690" type="move" name="U"/>
    </contour>
    <contour>
      <point x="335" y="-100" type="move" name="L"/>
    </contour>
    <contour>
      <point x="396" y="0" type="move" name="O"/>
    </contour>
  </outline>
</glyph>
<glyph name="LtnCapOAcute" format="1">
  <advance width="1289"/>
  <unicode hex="00D3"/>
  <outline>
    <component base="LtnCapO"/>
    <component base="CombAcute.LP" xOffset="1222" yOffset="320"/>
    <contour>
      <point x="613" y="0" type="move" name="H"/>
    </contour>
    <contour>
      <point x="1256" y="1100" type="move" name="R"/>
    </contour>
    <contour>
      <point x="646" y="1690" type="move" name="U"/>
    </contour>
    <contour>
      <point x="646" y="-100" type="move" name="L"/>
    </contour>
    <contour>
      <point x="712" y="0" type="move" name="O"/>
    </contour>
  </outline>
</glyph>
<glyph name="LtnCapOCircum" format="1">
  <advance width="1289"/>
  <unicode hex="00D4"/>
  <outline>
    <component base="LtnCapO"/>
    <component base="CombCircum.LP" xOffset="1193" yOffset="320"/>
    <contour>
      <point x="613" y="0" type="move" name="H"/>
    </contour>
    <contour>
      <point x="712" y="0" type="move" name="O"/>
    </contour>
    <contour>
      <point x="1256" y="1100" type="move" name="R"/>
    </contour>
    <contour>
      <point x="646" y="1770" type="move" name="U"/>
    </contour>
    <contour>
      <point x="646" y="-100" type="move" name="L"/>
    </contour>
  </outline>
</glyph>
<glyph name="LtnCapOStrk" format="1">
  <advance width="1289"/>
  <unicode hex="00D8"/>
  <outline>
    <contour>
      <point x="1218" y="647" type="curve" smooth="yes"/>
      <point x="1218" y="973"/>
      <point x="1023" y="1290"/>
      <point x="663" y="1290" type="curve" smooth="yes"/>
      <point x="299" y="1290"/>
      <point x="50" y="975"/>
      <point x="50" y="612" type="curve" smooth="yes"/>
      <point x="50" y="276"/>
      <point x="263" y="-30"/>
      <point x="605" y="-30" type="curve" smooth="yes"/>
      <point x="937" y="-30"/>
      <point x="1218" y="285"/>
    </contour>
    <contour>
      <point x="933" y="629" type="curve" smooth="yes"/>
      <point x="933" y="276"/>
      <point x="815" y="110"/>
      <point x="654" y="110" type="curve" smooth="yes"/>
      <point x="479" y="110"/>
      <point x="335" y="342"/>
      <point x="335" y="641" type="curve" smooth="yes"/>
      <point x="335" y="967"/>
      <point x="427" y="1155"/>
      <point x="604" y="1155" type="curve" smooth="yes"/>
      <point x="801" y="1155"/>
      <point x="933" y="905"/>
    </contour>
    <contour>
      <point x="1208" y="1275" type="line"/>
      <point x="1175" y="1313" type="line"/>
      <point x="1134" y="1309"/>
      <point x="1040" y="1286"/>
      <point x="1003" y="1264" type="curve"/>
      <point x="60" y="-15" type="line"/>
      <point x="93" y="-53" type="line"/>
      <point x="126" y="-49"/>
      <point x="243" y="-23"/>
      <point x="267" y="-2" type="curve"/>
    </contour>
    <contour>
      <point x="634" y="1370" type="move" name="U"/>
    </contour>
    <contour>
      <point x="634" y="-100" type="move" name="L"/>
    </contour>
  </outline>
</glyph>
<glyph name="LtnCapUCircum" format="1">
  <advance width="1379"/>
  <unicode hex="00DB"/>
  <outline>
    <component base="LtnCapU"/>
    <component base="CombCircum.LP" xOffset="1244" yOffset="320"/>
    <contour>
      <point x="697" y="0" type="move" name="H"/>
    </contour>
    <contour>
      <point x="1380" y="1100" type="move" name="R"/>
    </contour>
    <contour>
      <point x="697" y="1770" type="move" name="U"/>
    </contour>
    <contour>
      <point x="697" y="-100" type="move" name="L"/>
    </contour>
    <contour>
      <point x="784" y="0" type="move" name="O"/>
    </contour>
  </outline>
</glyph>
<glyph name="LtnSmAGrave" format="1">
  <advance width="1050"/>
  <unicode hex="00E0"/>
  <outline>
    <component base="LtnSmA"/>
    <component base="CombGrave" xOffset="992"/>
    <contour>
      <point x="409" y="0" type="move" name="H"/>
    </contour>
    <contour>
      <point x="1050" y="900" type="move" name="R"/>
    </contour>
    <contour>
      <point x="526" y="1410" type="move" name="U"/>
    </contour>
    <contour>
      <point x="502" y="-100" type="move" name="L"/>
    </contour>
    <contour>
      <point x="800" y="0" type="move" name="O"/>
    </contour>
  </outline>
</glyph>
<glyph name="LtnSmACircum" format="1">
  <advance width="1050"/>
  <unicode hex="00E2"/>
  <outline>
    <component base="LtnSmA"/>
    <component base="CombCircum" xOffset="1073"/>
    <contour>
      <point x="409" y="0" type="move" name="H"/>
    </contour>
    <contour>
      <point x="800" y="0" type="move" name="O"/>
    </contour>
    <contour>
      <point x="1050" y="900" type="move" name="R"/>
    </contour>
    <contour>
      <point x="526" y="1500" type="move" name="U"/>
    </contour>
    <contour>
      <point x="502" y="-100" type="move" name="L"/>
    </contour>
  </outline>
</glyph>
<glyph name="LtnSmATilde" format="1">
  <advance width="1050"/>
  <unicode hex="00E3"/>
  <outline>
    <component base="LtnSmA"/>
    <component base="CombTilde" xOffset="1074"/>
    <contour>
      <point x="409" y="0" type="move" name="H"/>
    </contour>
    <contour>
      <point x="1050" y="900" type="move" name="R"/>
    </contour>
    <contour>
      <point x="526" y="1410" type="move" name="U"/>
    </contour>
    <contour>
      <point x="502" y="-100" type="move" name="L"/>
    </contour>
    <contour>
      <point x="800" y="0" type="move" name="O"/>
    </contour>
  </outline>
</glyph>
<glyph name="LtnSmCCedilla" format="1">
  <advance width="945"/>
  <unicode hex="00E7"/>
  <outline>
    <component base="LtnSmC"/>
    <component base="CombCedilla" xOffset="1064"/>
    <contour>
      <point x="945" y="900" type="move" name="R"/>
    </contour>
    <contour>
      <point x="518" y="1050" type="move" name="U"/>
    </contour>
    <contour>
      <point x="518" y="-600" type="move" name="L"/>
    </contour>
  </outline>
</glyph>
<glyph name="LtnSmEAcute" format="1">
  <advance width="1006"/>
  <unicode hex="00E9"/>
  <outline>
    <component base="LtnSmE"/>
    <component base="CombAcute" xOffset="1084"/>
    <contour>
      <point x="533" y="0" type="move" name="H"/>
    </contour>
    <contour>
      <point x="558" y="0" type="move" name="O"/>
    </contour>
    <contour>
      <point x="1020" y="900" type="move" name="R"/>
    </contour>
    <contour>
      <point x="454" y="1440" type="move" name="U"/>
    </contour>
    <contour>
      <point x="533" y="-100" type="move" name="L"/>
    </contour>
  </outline>
</glyph>
<glyph name="LtnSmEDiaer" format="1">
  <advance width="1006"/>
  <unicode hex="00EB"/>
  <outline>
    <component base="LtnSmE"/>
    <component base="CombDiaer" xOffset="1092"/>
    <contour>
      <point x="533" y="0" type="move" name="H"/>
    </contour>
    <contour>
      <point x="1020" y="900" type="move" name="R"/>
    </contour>
    <contour>
      <point x="544" y="1410" type="move" name="U"/>
    </contour>
    <contour>
      <point x="533" y="-100" type="move" name="L"/>
    </contour>
    <contour>
      <point x="558" y="0" type="move" name="O"/>
    </contour>
  </outline>
</glyph>
<glyph name="LtnSmIGrave" format="1">
  <advance width="635"/>
  <unicode hex="00EC"/>
  <outline>
    <component base="LtnSmDotlessI"/>
    <component base="CombGrave" xOffset="791"/>
    <contour>
      <point x="325" y="0" type="move" name="H"/>
    </contour>
    <contour>
      <point x="635" y="900" type="move" name="R"/>
    </contour>
    <contour>
      <point x="325" y="1410" type="move" name="U"/>
    </contour>
    <contour>
      <point x="325" y="-100" type="move" name="L"/>
    </contour>
    <contour>
      <point x="386" y="0" type="move" name="O"/>
    </contour>
  </outline>
</glyph>
<glyph name="LtnSmICircum" format="1">
  <advance width="635"/>
  <unicode hex="00EE"/>
  <outline>
    <component base="LtnSmDotlessI"/>
    <component base="CombCircum" xOffset="872"/>
    <contour>
      <point x="325" y="0" type="move" name="H"/>
    </contour>
    <contour>
      <point x="635" y="900" type="move" name="R"/>
    </contour>
    <contour>
      <point x="325" y="1500" type="move" name="U"/>
    </contour>
    <contour>
      <point x="325" y="-100" type="move" name="L"/>
    </contour>
    <contour>
      <point x="386" y="0" type="move" name="O"/>
    </contour>
  </outline>
</glyph>
<glyph name="LtnSmIDiaer" format="1">
  <advance width="635"/>
  <unicode hex="00EF"/>
  <outline>
    <component base="LtnSmDotlessI"/>
    <component base="CombDiaer" xOffset="873"/>
    <contour>
      <point x="325" y="0" type="move" name="H"/>
    </contour>
    <contour>
      <point x="635" y="900" type="move" name="R"/>
    </contour>
    <contour>
      <point x="325" y="1410" type="move" name="U"/>
    </contour>
    <contour>
      <point x="325" y="-100" type="move" name="L"/>
    </contour>
    <contour>
      <point x="386" y="0" type="move" name="O"/>
    </contour>
  </outline>
</glyph>
<glyph name="LtnSmUGrave" format="1">
  <advance width="1175"/>
  <unicode hex="00F9"/>
  <outline>
    <component base="LtnSmU"/>
    <component base="CombGrave" xOffset="1054"/>
    <contour>
      <point x="532" y="0" type="move" name="H"/>
    </contour>
    <contour>
      <point x="886" y="0" type="move" name="O"/>
    </contour>
    <contour>
      <point x="1275" y="900" type="move" name="R"/>
    </contour>
    <contour>
      <point x="588" y="1410" type="move" name="U"/>
    </contour>
    <contour>
      <point x="588" y="-100" type="move" name="L"/>
    </contour>
  </outline>
</glyph>
<glyph name="LtnSmUCircum" format="1">
  <advance width="1175"/>
  <unicode hex="00FB"/>
  <outline>
    <component base="LtnSmU"/>
    <component base="CombCircum" xOffset="1135"/>
    <contour>
      <point x="532" y="0" type="move" name="H"/>
    </contour>
    <contour>
      <point x="1275" y="900" type="move" name="R"/>
    </contour>
    <contour>
      <point x="588" y="1500" type="move" name="U"/>
    </contour>
    <contour>
      <point x="588" y="-100" type="move" name="L"/>
    </contour>
    <contour>
      <point x="886" y="0" type="move" name="O"/>
    </contour>
  </outline>
</glyph>
<glyph name="LtnCapABreve" format="1">
  <advance width="1309"/>
  <unicode hex="0102"/>
  <outline>
    <component base="LtnCapA"/>
    <component base="CombBreve" xOffset="1192" yOffset="320"/>
    <contour>
      <point x="644" y="0" type="move" name="H"/>
    </contour>
    <contour>
      <point x="644" y="1690" type="move" name="U"/>
    </contour>
    <contour>
      <point x="644" y="-100" type="move" name="L"/>
    </contour>
    <contour>
      <point x="1032" y="0" type="move" name="O"/>
    </contour>
  </outline>
</glyph>
<glyph name="LtnCapAOgonek" format="1">
  <advance width="1309"/>
  <unicode hex="0104"/>
  <outline>
    <component base="LtnCapA"/>
    <component base="CombOgonek" xOffset="1529"/>
    <contour>
      <point x="644" y="0" type="move" name="H"/>
    </contour>
    <contour>
      <point x="644" y="1370" type="move" name="U"/>
    </contour>
    <contour>
      <point x="982" y="-600" type="move" name="L"/>
    </contour>
  </outline>
</glyph>
<glyph name="LtnCapCAcute" format="1">
  <advance width="1158"/>
  <unicode hex="0106"/>
  <outline>
    <component base="LtnCapC"/>
    <component base="CombAcute.LP" xOffset="1221" yOffset="320"/>
    <contour>
      <point x="612" y="0" type="move" name="H"/>
    </contour>
    <contour>
      <point x="645" y="1690" type="move" name="U"/>
    </contour>
    <contour>
      <point x="645" y="-100" type="move" name="L"/>
    </contour>
  </outline>
</glyph>
<glyph name="LtnSmCCircum" format="1">
  <advance width="945"/>
  <unicode hex="0109"/>
  <outline>
    <component base="LtnSmC"/>
    <component base="CombCircum" xOffset="1065"/>
    <contour>
      <point x="518" y="0" type="move" name="H"/>
    </contour>
    <contour>
      <point x="945" y="900" type="move" name="R"/>
    </contour>
    <contour>
      <point x="518" y="1500" type="move" name="U"/>
    </contour>
    <contour>
      <point x="518" y="-100" type="move" name="L"/>
    </contour>
  </outline>
</glyph>
<glyph name="LtnCapCDotAbv" format="1">
  <advance width="1158"/>
  <unicode hex="010A"/>
  <outline>
    <component base="LtnCapC"/>
    <component base="CombDotAbv.LP" xOffset="1193" yOffset="320"/>
    <contour>
      <point x="612" y="0" type="move" name="H"/>
    </contour>
    <contour>
      <point x="645" y="1690" type="move" name="U"/>
    </contour>
    <contour>
      <point x="645" y="-100" type="move" name="L"/>
    </contour>
  </outline>
</glyph>
<glyph name="LtnCapCCaron" format="1">
  <advance width="1158"/>
  <unicode hex="010C"/>
  <outline>
    <component base="LtnCapC"/>
    <component base="CombCaron.LP" xOffset="1192" yOffset="320"/>
    <contour>
      <point x="612" y="0" type="move" name="H"/>
    </contour>
    <contour>
      <point x="645" y="1690" type="move" name="U"/>
    </contour>
    <contour>
      <point x="645" y="-100" type="move" name="L"/>
    </contour>
  </outline>
</glyph>
<glyph name="LtnCapDCaron" format="1">
  <advance width="1334"/>
  <unicode hex="010E"/>
  <outline>
    <component base="LtnCapD"/>
    <component base="CombCaron.LP" xOffset="1150" yOffset="320"/>
    <contour>
      <point x="603" y="1690" type="move" name="U"/>
    </contour>
    <contour>
      <point x="603" y="-100" type="move" name="L"/>
    </contour>
  </outline>
</glyph>
<glyph name="LtnSmDCaron" format="1">
  <advance width="1282"/>
  <unicode hex="010F"/>
  <outline>
    <component base="LtnSmD"/>
    <component base="CombCommaAbvRt" xOffset="1065"/>
    <contour>
      <point x="525" y="-100" type="move" name="L"/>
    </contour>
    <contour>
      <point x="820" y="0" type="move" name="H"/>
    </contour>
    <contour>
      <point x="495" y="1050" type="move" name="U"/>
    </contour>
  </outline>
</glyph>
<glyph name="LtnSmEMacron" format="1">
  <advance width="1006"/>
  <unicode hex="0113"/>
  <outline>
    <component base="LtnSmE"/>
    <component base="CombMacron" xOffset="1102"/>
    <contour>
      <point x="533" y="0" type="move" name="H"/>
    </contour>
    <contour>
      <point x="558" y="0" type="move" name="O"/>
    </contour>
    <contour>
      <point x="1020" y="900" type="move" name="R"/>
    </contour>
    <contour>
      <point x="544" y="1410" type="move" name="U"/>
    </contour>
    <contour>
      <point x="533" y="-100" type="move" name="L"/>
    </contour>
  </outline>
</glyph>
<glyph name="LtnSmHCircum" format="1">
  <advance width="1130"/>
  <unicode hex="0125"/>
  <outline>
    <contour>
      <point x="1190" y="0" type="line"/>
      <point x="1190" y="83" type="line"/>
      <point x="1085" y="110"/>
      <point x="1060" y="126"/>
      <point x="1060" y="144" type="curve" smooth="yes"/>
      <point x="1060" y="691" type="line" smooth="yes"/>
      <point x="1060" y="891"/>
      <point x="954" y="960"/>
      <point x="839" y="960" type="curve" smooth="yes"/>
      <point x="735" y="960"/>
      <point x="610" y="924"/>
      <point x="445" y="814" type="curve"/>
      <point x="445" y="1506" type="line"/>
      <point x="398" y="1550" type="line"/>
      <point x="292" y="1511"/>
      <point x="208" y="1491"/>
      <point x="45" y="1470" type="curve"/>
      <point x="45" y="1390" type="line"/>
      <point x="174" y="1375"/>
      <point x="175" y="1369"/>
      <point x="175" y="1258" type="curve" smooth="yes"/>
      <point x="175" y="144" type="line" smooth="yes"/>
      <point x="175" y="122"/>
      <point x="133" y="106"/>
      <point x="45" y="83" type="curve"/>
      <point x="45" y="0" type="line"/>
      <point x="575" y="0" type="line"/>
      <point x="575" y="83" type="line"/>
      <point x="489" y="101"/>
      <point x="445" y="124"/>
      <point x="445" y="144" type="curve" smooth="yes"/>
      <point x="445" y="669" type="line"/>
      <point x="550" y="725"/>
      <point x="610" y="760"/>
      <point x="682" y="760" type="curve" smooth="yes"/>
      <point x="760" y="760"/>
      <point x="790" y="715"/>
      <point x="790" y="553" type="curve" smooth="yes"/>
      <point x="790" y="144" type="line" smooth="yes"/>
      <point x="790" y="126"/>
      <point x="756" y="108"/>
      <point x="660" y="83" type="curve"/>
      <point x="660" y="0" type="line"/>
    </contour>
    <contour>
      <point x="627" y="1662" type="curve"/>
      <point x="365" y="1971" type="line"/>
      <point x="258" y="1971" type="line"/>
      <point x="-6" y="1662" type="line"/>
      <point x="13" y="1637"/>
      <point x="17" y="1627"/>
      <point x="39" y="1617" type="curve"/>
      <point x="310" y="1825" type="line"/>
      <point x="584" y="1617" type="line"/>
      <point x="607" y="1627"/>
      <point x="611" y="1637"/>
    </contour>
    <contour>
      <point x="257" y="0" type="move" name="H"/>
    </contour>
    <contour>
      <point x="318" y="2020" type="move" name="U"/>
    </contour>
    <contour>
      <point x="577" y="-100" type="move" name="L"/>
    </contour>
  </outline>
</glyph>
<glyph name="LtnCapITilde" format="1">
  <advance width="690"/>
  <unicode hex="0128"/>
  <outline>
    <component base="LtnCapI"/>
    <component base="CombTilde.LP" xOffset="883" yOffset="320"/>
    <contour>
      <point x="335" y="0" type="move" name="H"/>
    </contour>
    <contour>
      <point x="608" y="1100" type="move" name="R"/>
    </contour>
    <contour>
      <point x="335" y="1690" type="move" name="U"/>
    </contour>
    <contour>
      <point x="335" y="-100" type="move" name="L"/>
    </contour>
    <contour>
      <point x="396" y="0" type="move" name="O"/>
    </contour>
  </outline>
</glyph>
<glyph name="LtnSmITilde" format="1">
  <advance width="635"/>
  <unicode hex="0129"/>
  <outline>
    <component base="LtnSmDotlessI"/>
    <component base="CombTilde" xOffset="873"/>
    <contour>
      <point x="325" y="0" type="move" name="H"/>
    </contour>
    <contour>
      <point x="635" y="900" type="move" name="R"/>
    </contour>
    <contour>
      <point x="325" y="1410" type="move" name="U"/>
    </contour>
    <contour>
      <point x="325" y="-100" type="move" name="L"/>
    </contour>
    <contour>
      <point x="386" y="0" type="move" name="O"/>
    </contour>
  </outline>
</glyph>
<glyph name="LtnCapIMacron" format="1">
  <advance width="690"/>
  <unicode hex="012A"/>
  <outline>
    <component base="LtnCapI"/>
    <component base="CombMacron.Short.LP" xOffset="893" yOffset="320"/>
    <contour>
      <point x="335" y="0" type="move" name="H"/>
    </contour>
    <contour>
      <point x="396" y="0" type="move" name="O"/>
    </contour>
    <contour>
      <point x="608" y="1100" type="move" name="R"/>
    </contour>
    <contour>
      <point x="335" y="1690" type="move" name="U"/>
    </contour>
    <contour>
      <point x="335" y="-100" type="move" name="L"/>
    </contour>
  </outline>
</glyph>
<glyph name="LtnSmIBreve" format="1">
  <advance width="635"/>
  <unicode hex="012D"/>
  <outline>
    <component base="LtnSmDotlessI"/>
    <component base="CombBreve" xOffset="873"/>
    <contour>
      <point x="325" y="0" type="move" name="H"/>
    </contour>
    <contour>
      <point x="635" y="900" type="move" name="R"/>
    </contour>
    <contour>
      <point x="325" y="1370" type="move" name="U"/>
    </contour>
    <contour>
      <point x="325" y="-100" type="move" name="L"/>
    </contour>
    <contour>
      <point x="386" y="0" type="move" name="O"/>
    </contour>
  </outline>
</glyph>
<glyph name="LtnCapIOgonek" format="1">
  <advance width="690"/>
  <unicode hex="012E"/>
  <outline>
    <component base="LtnCapI"/>
    <component base="CombOgonek" xOffset="893"/>
    <contour>
      <point x="335" y="0" type="move" name="H"/>
    </contour>
    <contour>
      <point x="608" y="1100" type="move" name="R"/>
    </contour>
    <contour>
      <point x="335" y="1370" type="move" name="U"/>
    </contour>
    <contour>
      <point x="346" y="-600" type="move" name="L"/>
    </contour>
  </outline>
</glyph>
<glyph name="LtnSmJCircum" format="1">
  <advance width="610"/>
  <unicode hex="0135"/>
  <outline>
    <component base="LtnSmJ.Dotless"/>
    <component base="CombCircum" xOffset="867"/>
    <contour>
      <point x="320" y="1500" type="move" name="U"/>
    </contour>
    <contour>
      <point x="320" y="-600" type="move" name="L"/>
    </contour>
  </outline>
</glyph>
<glyph name="LtnCapKCedilla" format="1">
  <advance width="1294"/>
  <unicode hex="0136"/>
  <outline>
    <component base="LtnCapK"/>
    <component base="CombCommaBlw" xOffset="1220"/>
    <contour>
      <point x="320" y="0" type="move" name="H"/>
    </contour>
    <contour>
      <point x="642" y="1370" type="move" name="U"/>
    </contour>
    <contour>
      <point x="667" y="-600" type="move" name="L"/>
    </contour>
  </outline>
</glyph>
<glyph name="LtnSmKCedilla" format="1">
  <advance width="1164"/>
  <unicode hex="0137"/>
  <outline>
    <component base="LtnSmK"/>
    <component base="CombCommaBlw" xOffset="1162"/>
    <contour>
      <point x="301" y="0" type="move" name="H"/>
    </contour>
    <contour>
      <point x="1164" y="900" type="move" name="R"/>
    </contour>
    <contour>
      <point x="609" y="1620" type="move" name="U"/>
    </contour>
    <contour>
      <point x="609" y="-600" type="move" name="L"/>
    </contour>
  </outline>
</glyph>
<glyph name="LtnCapLCedilla" format="1">
  <advance width="1065"/>
  <unicode hex="013B"/>
  <outline>
    <component base="LtnCapL"/>
    <component base="CombCommaBlw" xOffset="1095"/>
    <contour>
      <point x="542" y="0" type="move" name="H"/>
    </contour>
    <contour>
      <point x="840" y="900" type="move" name="R"/>
    </contour>
    <contour>
      <point x="508" y="1370" type="move" name="U"/>
    </contour>
    <contour>
      <point x="542" y="-600" type="move" name="L"/>
    </contour>
  </outline>
</glyph>
<glyph name="LtnSmLMiddleDot" format="1">
  <advance width="1054"/>
  <unicode hex="0140"/>
  <outline>
    <component base="LtnSmL"/>
    <component base="MiddleDot" xOffset="615"/>
    <contour>
      <point x="285" y="-100" type="move" name="L"/>
    </contour>
    <contour>
      <point x="285" y="0" type="move" name="H"/>
    </contour>
    <contour>
      <point x="285" y="1620" type="move" name="U"/>
    </contour>
  </outline>
</glyph>
<glyph name="LtnSmNCedilla" format="1">
  <advance width="1210"/>
  <unicode hex="0146"/>
  <outline>
    <component base="LtnSmN"/>
    <component base="CombCommaBlw" xOffset="1170"/>
    <contour>
      <point x="925" y="0" type="move" name="H"/>
    </contour>
    <contour>
      <point x="617" y="1050" type="move" name="U"/>
    </contour>
    <contour>
      <point x="617" y="-600" type="move" name="L"/>
    </contour>
  </outline>
</glyph>
<glyph name="LtnCapOMacron" format="1">
  <advance width="1289"/>
  <unicode hex="014C"/>
  <outline>
    <component base="LtnCapO"/>
    <component base="CombMacron.LP" xOffset="1204" yOffset="320"/>
    <contour>
      <point x="613" y="0" type="move" name="H"/>
    </contour>
    <contour>
      <point x="1256" y="1100" type="move" name="R"/>
    </contour>
    <contour>
      <point x="646" y="1690" type="move" name="U"/>
    </contour>
    <contour>
      <point x="646" y="-100" type="move" name="L"/>
    </contour>
    <contour>
      <point x="712" y="0" type="move" name="O"/>
    </contour>
  </outline>
</glyph>
<glyph name="LtnCapOBreve" format="1">
  <advance width="1289"/>
  <unicode hex="014E"/>
  <outline>
    <component base="LtnCapO"/>
    <component base="CombBreve" xOffset="1194" yOffset="320"/>
    <contour>
      <point x="613" y="0" type="move" name="H"/>
    </contour>
    <contour>
      <point x="1256" y="1100" type="move" name="R"/>
    </contour>
    <contour>
      <point x="646" y="1690" type="move" name="U"/>
    </contour>
    <contour>
      <point x="646" y="-100" type="move" name="L"/>
    </contour>
    <contour>
      <point x="712" y="0" type="move" name="O"/>
    </contour>
  </outline>
</glyph>
<glyph name="LtnSmOBreve" format="1">
  <advance width="1090"/>
  <unicode hex="014F"/>
  <outline>
    <component base="LtnSmO"/>
    <component base="CombBreve" xOffset="1115"/>
    <contour>
      <point x="567" y="0" type="move" name="H"/>
    </contour>
    <contour>
      <point x="1090" y="900" type="move" name="R"/>
    </contour>
    <contour>
      <point x="567" y="1370" type="move" name="U"/>
    </contour>
    <contour>
      <point x="567" y="-100" type="move" name="L"/>
    </contour>
    <contour>
      <point x="611" y="0" type="move" name="O"/>
    </contour>
  </outline>
</glyph>
<glyph name="LtnCapRAcute" format="1">
  <advance width="1269"/>
  <unicode hex="0154"/>
  <outline>
    <component base="LtnCapR"/>
    <component base="CombAcute.LP" xOffset="1148" yOffset="320"/>
    <contour>
      <point x="320" y="0" type="move" name="H"/>
    </contour>
    <contour>
      <point x="572" y="1690" type="move" name="U"/>
    </contour>
    <contour>
      <point x="572" y="-100" type="move" name="L"/>
    </contour>
  </outline>
</glyph>
<glyph name="LtnSmRAcute" format="1">
  <advance width="941"/>
  <unicode hex="0155"/>
  <outline>
    <component base="LtnSmR"/>
    <component base="CombAcute" xOffset="1060"/>
    <contour>
      <point x="303" y="0" type="move" name="H"/>
    </contour>
    <contour>
      <point x="430" y="1440" type="move" name="U"/>
    </contour>
    <contour>
      <point x="303" y="-100" type="move" name="L"/>
    </contour>
  </outline>
</glyph>
<glyph name="LtnCapRCedilla" format="1">
  <advance width="1269"/>
  <unicode hex="0156"/>
  <outline>
    <component base="LtnCapR"/>
    <component base="CombCommaBlw" xOffset="1125"/>
    <contour>
      <point x="320" y="0" type="move" name="H"/>
    </contour>
    <contour>
      <point x="572" y="1370" type="move" name="U"/>
    </contour>
    <contour>
      <point x="572" y="-600" type="move" name="L"/>
    </contour>
  </outline>
</glyph>
<glyph name="LtnSmRCedilla" format="1">
  <advance width="941"/>
  <unicode hex="0157"/>
  <outline>
    <component base="LtnSmR"/>
    <component base="CombCommaBlw" xOffset="856"/>
    <contour>
      <point x="303" y="0" type="move" name="H"/>
    </contour>
    <contour>
      <point x="520" y="1050" type="move" name="U"/>
    </contour>
    <contour>
      <point x="303" y="-600" type="move" name="L"/>
    </contour>
  </outline>
</glyph>
<glyph name="LtnSmSAcute" format="1">
  <advance width="880"/>
  <unicode hex="015B"/>
  <outline>
    <component base="LtnSmS"/>
    <component base="CombAcute" xOffset="979"/>
    <contour>
      <point x="424" y="0" type="move" name="H"/>
    </contour>
    <contour>
      <point x="349" y="1440" type="move" name="U"/>
    </contour>
    <contour>
      <point x="439" y="-100" type="move" name="L"/>
    </contour>
  </outline>
</glyph>
<glyph name="LtnSmSCircum" format="1">
  <advance width="880"/>
  <unicode hex="015D"/>
  <outline>
    <component base="LtnSmS"/>
    <component base="CombCircum" xOffset="986"/>
    <contour>
      <point x="424" y="0" type="move" name="H"/>
    </contour>
    <contour>
      <point x="439" y="1500" type="move" name="U"/>
    </contour>
    <contour>
      <point x="439" y="-100" type="move" name="L"/>
    </contour>
  </outline>
</glyph>
<glyph name="LtnCapSCaron" format="1">
  <advance width="1075"/>
  <unicode hex="0160"/>
  <outline>
    <component base="LtnCapS"/>
    <component base="CombCaron.LP" xOffset="1093" yOffset="320"/>
    <contour>
      <point x="522" y="0" type="move" name="H"/>
    </contour>
    <contour>
      <point x="546" y="1690" type="move" name="U"/>
    </contour>
    <contour>
      <point x="546" y="-100" type="move" name="L"/>
    </contour>
  </outline>
</glyph>
<glyph name="LtnSmSCaron" format="1">
  <advance width="880"/>
  <unicode hex="0161"/>
  <outline>
    <component base="LtnSmS"/>
    <component base="CombCaron" xOffset="986"/>
    <contour>
      <point x="424" y="0" type="move" name="H"/>
    </contour>
    <contour>
      <point x="439" y="1450" type="move" name="U"/>
    </contour>
    <contour>
      <point x="439" y="-100" type="move" name="L"/>
    </contour>
  </outline>
</glyph>
<glyph name="LtnCapTCedilla" format="1">
  <advance width="1208"/>
  <unicode hex="0162"/>
  <outline>
    <component base="LtnCapT"/>
    <component base="CombCedilla" xOffset="1132"/>
    <contour>
      <point x="586" y="1370" type="move" name="U"/>
    </contour>
    <contour>
      <point x="586" y="-600" type="move" name="L"/>
    </contour>
  </outline>
</glyph>
<glyph name="LtnCapTCaron" format="1">
  <advance width="1208"/>
  <unicode hex="0164"/>
  <outline>
    <component base="LtnCapT"/>
    <component base="CombCaron.LP" xOffset="1133" yOffset="320"/>
    <contour>
      <point x="586" y="0" type="move" name="H"/>
    </contour>
    <contour>
      <point x="586" y="1690" type="move" name="U"/>
    </contour>
    <contour>
      <point x="586" y="-100" type="move" name="L"/>
    </contour>
  </outline>
</glyph>
<glyph name="LtnCapUMacron" format="1">
  <advance width="1379"/>
  <unicode hex="016A"/>
  <outline>
    <component base="LtnCapU"/>
    <component base="CombMacron.LP" xOffset="1255" yOffset="320"/>
    <contour>
      <point x="697" y="0" type="move" name="H"/>
    </contour>
    <contour>
      <point x="1380" y="1100" type="move" name="R"/>
    </contour>
    <contour>
      <point x="697" y="1690" type="move" name="U"/>
    </contour>
    <contour>
      <point x="697" y="-100" type="move" name="L"/>
    </contour>
    <contour>
      <point x="784" y="0" type="move" name="O"/>
    </contour>
  </outline>
</glyph>
<glyph name="LtnSmUBreve" format="1">
  <advance width="1175"/>
  <unicode hex="016D"/>
  <outline>
    <component base="LtnSmU"/>
    <component base="CombBreve" xOffset="1136"/>
    <contour>
      <point x="532" y="0" type="move" name="H"/>
    </contour>
    <contour>
      <point x="886" y="0" type="move" name="O"/>
    </contour>
    <contour>
      <point x="1275" y="900" type="move" name="R"/>
    </contour>
    <contour>
      <point x="588" y="1370" type="move" name="U"/>
    </contour>
    <contour>
      <point x="588" y="-100" type="move" name="L"/>
    </contour>
  </outline>
</glyph>
<glyph name="LtnSmURingAbv" format="1">
  <advance width="1175"/>
  <unicode hex="016F"/>
  <outline>
    <component base="LtnSmU"/>
    <component base="CombRingAbv" xOffset="1136"/>
    <contour>
      <point x="532" y="0" type="move" name="H"/>
    </contour>
    <contour>
      <point x="1275" y="900" type="move" name="R"/>
    </contour>
    <contour>
      <point x="588" y="1490" type="move" name="U"/>
    </contour>
    <contour>
      <point x="588" y="-100" type="move" name="L"/>
    </contour>
    <contour>
      <point x="886" y="0" type="move" name="O"/>
    </contour>
  </outline>
</glyph>
<glyph name="LtnSmWCircum" format="1">
  <advance width="1476"/>
  <unicode hex="0175"/>
  <outline>
    <component base="LtnSmW"/>
    <component base="CombCircum" xOffset="1312"/>
    <contour>
      <point x="765" y="1500" type="move" name="U"/>
    </contour>
    <contour>
      <point x="745" y="-100" type="move" name="L"/>
    </contour>
  </outline>
</glyph>
<glyph name="LtnSmYCircum" format="1">
  <advance width="1050"/>
  <unicode hex="0177"/>
  <outline>
    <component base="LtnSmY"/>
    <component base="CombCircum" xOffset="1095"/>
    <contour>
      <point x="1050" y="900" type="move" name="R"/>
    </contour>
    <contour>
      <point x="548" y="1500" type="move" name="U"/>
    </contour>
    <contour>
      <point x="830" y="-100" type="move" name="L"/>
    </contour>
  </outline>
</glyph>
<glyph name="LtnCapYDiaer" format="1">
  <advance width="1267"/>
  <unicode hex="0178"/>
  <outline>
    <component base="LtnCapY"/>
    <component base="CombDiaer.LP" xOffset="1182" yOffset="320"/>
    <contour>
      <point x="634" y="1690" type="move" name="U"/>
    </contour>
    <contour>
      <point x="634" y="-100" type="move" name="L"/>
    </contour>
  </outline>
</glyph>
<glyph name="LtnCapOMiddleTilde" format="1">
  <advance width="1289"/>
  <unicode hex="019F"/>
  <outline>
    <contour>
      <point x="1218" y="647" type="curve" smooth="yes"/>
      <point x="1218" y="973"/>
      <point x="1023" y="1290"/>
      <point x="663" y="1290" type="curve" smooth="yes"/>
      <point x="299" y="1290"/>
      <point x="50" y="975"/>
      <point x="50" y="612" type="curve" smooth="yes"/>
      <point x="50" y="276"/>
      <point x="263" y="-30"/>
      <point x="605" y="-30" type="curve" smooth="yes"/>
      <point x="937" y="-30"/>
      <point x="1218" y="285"/>
    </contour>
    <contour>
      <point x="932" y="595" type="line"/>
      <point x="925" y="265"/>
      <point x="809" y="110"/>
      <point x="654" y="110" type="curve" smooth="yes"/>
      <point x="488" y="110"/>
      <point x="350" y="318"/>
      <point x="336" y="595" type="curve"/>
    </contour>
    <contour>
      <point x="927" y="725" type="curve"/>
      <point x="337" y="725" type="line"/>
      <point x="352" y="999"/>
      <point x="443" y="1155"/>
      <point x="604" y="1155" type="curve" smooth="yes"/>
      <point x="778" y="1155"/>
      <point x="901" y="960"/>
    </contour>
    <contour>
      <point x="639" y="1370" type="move" name="U"/>
    </contour>
    <contour>
      <point x="631" y="-100" type="move" name="L"/>
    </contour>
  </outline>
</glyph>
<glyph name="LtnCapEzh" format="1">
  <advance width="1120"/>
  <unicode hex="01B7"/>
  <outline>
    <contour>
      <point x="985" y="1207" type="line"/>
      <point x="950" y="1260" type="line"/>
      <point x="351" y="1260" type="line" smooth="yes"/>
      <point x="265" y="1260"/>
      <point x="202" y="1260"/>
      <point x="145" y="1276" type="curve"/>
      <point x="105" y="895" type="line"/>
      <point x="202" y="873" type="line"/>
      <point x="229" y="996"/>
      <point x="294" y="1120"/>
      <point x="342" y="1120" type="curve" smooth="yes"/>
      <point x="651" y="1120" type="line"/>
      <point x="281" y="654" type="line"/>
      <point x="338" y="585" type="line"/>
      <point x="643" y="775" type="line"/>
    </contour>
    <contour>
      <point x="1040" y="437" type="curve" smooth="yes"/>
      <point x="1040" y="671"/>
      <point x="906" y="806"/>
      <point x="712" y="806" type="curve" smooth="yes"/>
      <point x="598" y="806"/>
      <point x="379" y="714"/>
      <point x="281" y="655" type="curve"/>
      <point x="287" y="644"/>
      <point x="329" y="593"/>
      <point x="338" y="586" type="curve"/>
      <point x="438" y="648"/>
      <point x="475" y="655"/>
      <point x="548" y="655" type="curve" smooth="yes"/>
      <point x="681" y="655"/>
      <point x="790" y="546"/>
      <point x="790" y="386" type="curve" smooth="yes"/>
      <point x="790" y="226"/>
      <point x="700" y="123"/>
      <point x="531" y="123" type="curve" smooth="yes"/>
      <point x="420" y="123"/>
      <point x="315" y="203"/>
      <point x="247" y="338" type="curve"/>
      <point x="174" y="303"/>
      <point x="88" y="161"/>
      <point x="88" y="136" type="curve" smooth="yes"/>
      <point x="88" y="80"/>
      <point x="262" y="-27"/>
      <point x="492" y="-27" type="curve" smooth="yes"/>
      <point x="746" y="-27"/>
      <point x="1040" y="155"/>
    </contour>
    <contour>
      <point x="564" y="1370" type="move" name="U"/>
    </contour>
    <contour>
      <point x="564" y="-100" type="move" name="L"/>
    </contour>
  </outline>
</glyph>
<glyph name="LtnWynn" format="1">
  <advance width="1025"/>
  <unicode hex="01BF"/>
  <outline>
    <contour>
      <point x="1015" y="662" type="curve" smooth="yes"/>
      <point x="1015" y="898"/>
      <point x="870" y="960"/>
      <point x="728" y="960" type="curve" smooth="yes"/>
      <point x="592" y="960"/>
      <point x="472" y="877"/>
      <point x="359" y="757" type="curve"/>
      <point x="350" y="915" type="line"/>
      <point x="305" y="960" type="line"/>
      <point x="227" y="923"/>
      <point x="57" y="900"/>
      <point x="-35" y="880" type="curve"/>
      <point x="-35" y="800" type="line"/>
      <point x="92" y="794"/>
      <point x="95" y="771"/>
      <point x="95" y="671" type="curve" smooth="yes"/>
      <point x="95" y="-335" type="line" smooth="yes"/>
      <point x="95" y="-358"/>
      <point x="43" y="-376"/>
      <point x="-45" y="-397" type="curve"/>
      <point x="-45" y="-480" type="line"/>
      <point x="534" y="-480" type="line"/>
      <point x="534" y="-397" type="line"/>
      <point x="409" y="-378"/>
      <point x="365" y="-356"/>
      <point x="365" y="-335" type="curve" smooth="yes"/>
      <point x="365" y="-122" type="line"/>
      <point x="877" y="187"/>
      <point x="1015" y="410"/>
    </contour>
    <contour>
      <point x="750" y="596" type="curve" smooth="yes"/>
      <point x="750" y="435"/>
      <point x="674" y="204"/>
      <point x="365" y="13" type="curve"/>
      <point x="365" y="600" type="line"/>
      <point x="452" y="712"/>
      <point x="535" y="775"/>
      <point x="623" y="775" type="curve" smooth="yes"/>
      <point x="672" y="775"/>
      <point x="750" y="749"/>
    </contour>
    <contour>
      <point x="528" y="1050" type="move" name="U"/>
    </contour>
    <contour>
      <point x="528" y="-600" type="move" name="L"/>
    </contour>
  </outline>
</glyph>
<glyph name="LtnCapDSmZCaron" format="1">
  <advance width="2310"/>
  <unicode hex="01C5"/>
  <outline>
    <component base="LtnCapD"/>
    <component base="LtnSmZ" xOffset="1334"/>
    <component base="CombCaron" xOffset="2398"/>
    <contour>
      <point x="1820" y="0" type="move" name="H"/>
    </contour>
    <contour>
      <point x="1851" y="1450" type="move" name="U"/>
    </contour>
    <contour>
      <point x="1820" y="-100" type="move" name="L"/>
    </contour>
  </outline>
</glyph>
<glyph name="LtnSmDzCaron" format="1">
  <advance width="1970"/>
  <unicode hex="01C6"/>
  <outline>
    <component base="LtnSmD"/>
    <component base="LtnSmZ" xOffset="1065"/>
    <component base="CombCaron" xOffset="2059"/>
    <contour>
      <point x="1516" y="0" type="move" name="H"/>
    </contour>
    <contour>
      <point x="1545" y="1370" type="move" name="U"/>
    </contour>
    <contour>
      <point x="1517" y="-100" type="move" name="L"/>
    </contour>
  </outline>
</glyph>
<glyph name="LtnCapLj" format="1">
  <advance width="1600"/>
  <unicode hex="01C7"/>
  <outline>
    <component base="LtnCapL"/>
    <component base="LtnCapJ" xOffset="975"/>
    <contour>
      <point x="496" y="0" type="move" name="H"/>
    </contour>
    <contour>
      <point x="1305" y="1370" type="move" name="U"/>
    </contour>
    <contour>
      <point x="1304" y="-600" type="move" name="L"/>
    </contour>
  </outline>
</glyph>
<glyph name="LtnCapNj" format="1">
  <advance width="2074"/>
  <unicode hex="01CA"/>
  <outline>
    <component base="LtnCapN"/>
    <component base="LtnCapJ" xOffset="1369"/>
    <contour>
      <point x="1076" y="0" type="move" name="H"/>
    </contour>
    <contour>
      <point x="1731" y="1370" type="move" name="U"/>
    </contour>
    <contour>
      <point x="1731" y="-600" type="move" name="L"/>
    </contour>
  </outline>
</glyph>
<glyph name="LtnSmNj" format="1">
  <advance width="1660"/>
  <unicode hex="01CC"/>
  <outline>
    <component base="LtnSmN"/>
    <component base="LtnSmJ" xOffset="1130"/>
    <contour>
      <point x="865" y="0" type="move" name="H"/>
    </contour>
    <contour>
      <point x="1411" y="1049" type="move" name="U"/>
    </contour>
    <contour>
      <point x="1410" y="-600" type="move" name="L"/>
    </contour>
  </outline>
</glyph>
<glyph name="LtnCapICaron" format="1">
  <advance width="690"/>
  <unicode hex="01CF"/>
  <outline>
    <component base="LtnCapI"/>
    <component base="CombCaron.LP" xOffset="882" yOffset="320"/>
    <contour>
      <point x="335" y="0" type="move" name="H"/>
    </contour>
    <contour>
      <point x="608" y="1100" type="move" name="R"/>
    </contour>
    <contour>
      <point x="335" y="1690" type="move" name="U"/>
    </contour>
    <contour>
      <point x="335" y="-100" type="move" name="L"/>
    </contour>
    <contour>
      <point x="396" y="0" type="move" name="O"/>
    </contour>
  </outline>
</glyph>
<glyph name="LtnCapUDiaerCaron" format="1">
  <advance width="1379"/>
  <unicode hex="01D9"/>
  <outline>
    <component base="LtnCapU"/>
    <component base="CombDiaer.LP" xOffset="1245" yOffset="320"/>
    <component base="CombCaron.LP" xOffset="1244" yOffset="640"/>
    <contour>
      <point x="697" y="0" type="move" name="H"/>
    </contour>
    <contour>
      <point x="1380" y="1100" type="move" name="R"/>
    </contour>
    <contour>
      <point x="697" y="2010" type="move" name="U"/>
    </contour>
    <contour>
      <point x="697" y="-100" type="move" name="L"/>
    </contour>
    <contour>
      <point x="784" y="0" type="move" name="O"/>
    </contour>
  </outline>
</glyph>
<glyph name="LtnSmUDiaerCaron" format="1">
  <advance width="1175"/>
  <unicode hex="01DA"/>
  <outline>
    <component base="LtnSmU"/>
    <component base="CombDiaer" xOffset="1136"/>
    <component base="CombCaron" xOffset="1135" yOffset="360"/>
    <contour>
      <point x="532" y="0" type="move" name="H"/>
    </contour>
    <contour>
      <point x="1275" y="900" type="move" name="R"/>
    </contour>
    <contour>
      <point x="588" y="1810" type="move" name="U"/>
    </contour>
    <contour>
      <point x="588" y="-100" type="move" name="L"/>
    </contour>
    <contour>
      <point x="886" y="0" type="move" name="O"/>
    </contour>
  </outline>
</glyph>
<glyph name="LtnCapUDiaerGrave" format="1">
  <advance width="1379"/>
  <unicode hex="01DB"/>
  <outline>
    <component base="LtnCapU"/>
    <component base="CombDiaer.LP" xOffset="1245" yOffset="320"/>
    <component base="CombGrave.LP" xOffset="1163" yOffset="640"/>
    <contour>
      <point x="697" y="0" type="move" name="H"/>
    </contour>
    <contour>
      <point x="1380" y="1100" type="move" name="R"/>
    </contour>
    <contour>
      <point x="697" y="2010" type="move" name="U"/>
    </contour>
    <contour>
      <point x="697" y="-100" type="move" name="L"/>
    </contour>
    <contour>
      <point x="784" y="0" type="move" name="O"/>
    </contour>
  </outline>
</glyph>
<glyph name="LtnSmUDiaerGrave" format="1">
  <advance width="1175"/>
  <unicode hex="01DC"/>
  <outline>
    <component base="LtnSmU"/>
    <component base="CombDiaer" xOffset="1136"/>
    <component base="CombGrave" xOffset="1054" yOffset="360"/>
    <contour>
      <point x="532" y="0" type="move" name="H"/>
    </contour>
    <contour>
      <point x="1275" y="900" type="move" name="R"/>
    </contour>
    <contour>
      <point x="588" y="1770" type="move" name="U"/>
    </contour>
    <contour>
      <point x="588" y="-100" type="move" name="L"/>
    </contour>
    <contour>
      <point x="886" y="0" type="move" name="O"/>
    </contour>
  </outline>
</glyph>
<glyph name="LtnSmAeMacron" format="1">
  <advance width="1417"/>
  <unicode hex="01E3"/>
  <outline>
    <component base="LtnSmAe"/>
    <component base="CombMacron" xOffset="1263"/>
    <contour>
      <point x="1020" y="0" type="move" name="O"/>
    </contour>
    <contour>
      <point x="738" y="-100" type="move" name="L"/>
    </contour>
    <contour>
      <point x="1417" y="900" type="move" name="R"/>
    </contour>
    <contour>
      <point x="738" y="0" type="move" name="H"/>
    </contour>
    <contour>
      <point x="738" y="1410" type="move" name="U"/>
    </contour>
  </outline>
</glyph>
<glyph name="LtnSmKCaron" format="1">
  <advance width="1164"/>
  <unicode hex="01E9"/>
  <outline>
    <component base="LtnSmK"/>
    <component base="CombCaron.LP" xOffset="1156" yOffset="570"/>
    <contour>
      <point x="301" y="0" type="move" name="H"/>
    </contour>
    <contour>
      <point x="1164" y="900" type="move" name="R"/>
    </contour>
    <contour>
      <point x="609" y="1940" type="move" name="U"/>
    </contour>
    <contour>
      <point x="609" y="-100" type="move" name="L"/>
    </contour>
  </outline>
</glyph>
<glyph name="LtnCapOOgonek" format="1">
  <advance width="1289"/>
  <unicode hex="01EA"/>
  <outline>
    <component base="LtnCapO"/>
    <component base="CombOgonek" xOffset="1209"/>
    <contour>
      <point x="613" y="0" type="move" name="H"/>
    </contour>
    <contour>
      <point x="1256" y="1100" type="move" name="R"/>
    </contour>
    <contour>
      <point x="646" y="1370" type="move" name="U"/>
    </contour>
    <contour>
      <point x="662" y="-600" type="move" name="L"/>
    </contour>
  </outline>
</glyph>
<glyph name="LtnSmOOgonekMacron" format="1">
  <advance width="1090"/>
  <unicode hex="01ED"/>
  <outline>
    <component base="LtnSmOOgonek"/>
    <component base="CombMacron" xOffset="1093"/>
    <contour>
      <point x="535" y="0" type="move" name="H"/>
    </contour>
    <contour>
      <point x="1044" y="900" type="move" name="R"/>
    </contour>
    <contour>
      <point x="535" y="1410" type="move" name="U"/>
    </contour>
    <contour>
      <point x="535" y="-600" type="move" name="L"/>
    </contour>
  </outline>
</glyph>
<glyph name="LtnCapEzhCaron" format="1">
  <advance width="1120"/>
  <unicode hex="01EE"/>
  <outline>
    <component base="LtnCapEzh"/>
    <component base="CombCaron.LP" xOffset="1111" yOffset="320"/>
    <contour>
      <point x="564" y="1690" type="move" name="U"/>
    </contour>
    <contour>
      <point x="564" y="-100" type="move" name="L"/>
    </contour>
  </outline>
</glyph>
<glyph name="LtnSmDz" format="1">
  <advance width="1970"/>
  <unicode hex="01F3"/>
  <outline>
    <component base="LtnSmD"/>
    <component base="LtnSmZ" xOffset="1065"/>
    <contour>
      <point x="1517" y="-100" type="move" name="L"/>
    </contour>
    <contour>
      <point x="1545" y="1050" type="move" name="U"/>
    </contour>
    <contour>
      <point x="1516" y="0" type="move" name="H"/>
    </contour>
  </outline>
</glyph>
<glyph name="LtnCapWynn" format="1">
  <advance width="1103"/>
  <unicode hex="01F7"/>
  <outline>
    <contour>
      <point x="1075" y="992" type="curve" smooth="yes"/>
      <point x="1075" y="1228"/>
      <point x="930" y="1290"/>
      <point x="788" y="1290" type="curve" smooth="yes"/>
      <point x="612" y="1290"/>
      <point x="502" y="1207"/>
      <point x="359" y="1087" type="curve"/>
      <point x="350" y="1245" type="line"/>
      <point x="305" y="1290" type="line"/>
      <point x="227" y="1253"/>
      <point x="57" y="1230"/>
      <point x="-35" y="1210" type="curve"/>
      <point x="-35" y="1130" type="line"/>
      <point x="92" y="1124"/>
      <point x="95" y="1101"/>
      <point x="95" y="1001" type="curve" smooth="yes"/>
      <point x="95" y="-335" type="line" smooth="yes"/>
      <point x="95" y="-358"/>
      <point x="43" y="-376"/>
      <point x="-45" y="-397" type="curve"/>
      <point x="-45" y="-480" type="line"/>
      <point x="534" y="-480" type="line"/>
      <point x="534" y="-397" type="line"/>
      <point x="409" y="-378"/>
      <point x="365" y="-356"/>
      <point x="365" y="-335" type="curve" smooth="yes"/>
      <point x="365" y="128" type="line"/>
      <point x="927" y="487"/>
      <point x="1075" y="740"/>
    </contour>
    <contour>
      <point x="800" y="926" type="curve" smooth="yes"/>
      <point x="800" y="695"/>
      <point x="704" y="554"/>
      <point x="365" y="283" type="curve"/>
      <point x="365" y="920" type="line"/>
      <point x="461" y="1032"/>
      <point x="555" y="1115"/>
      <point x="653" y="1115" type="curve" smooth="yes"/>
      <point x="722" y="1115"/>
      <point x="800" y="1079"/>
    </contour>
    <contour>
      <point x="534" y="1370" type="move" name="U"/>
    </contour>
    <contour>
      <point x="532" y="-600" type="move" name="L"/>
    </contour>
  </outline>
</glyph>
<glyph name="LtnCapNGrave" format="1">
  <advance width="1369"/>
  <unicode hex="01F8"/>
  <outline>
    <component base="LtnCapN"/>
    <component base="CombGrave.LP" xOffset="1151" yOffset="320"/>
    <contour>
      <point x="1076" y="0" type="move" name="H"/>
    </contour>
    <contour>
      <point x="685" y="1690" type="move" name="U"/>
    </contour>
    <contour>
      <point x="685" y="-100" type="move" name="L"/>
    </contour>
  </outline>
</glyph>
<glyph name="LtnCapARingAbvAcute" format="1">
  <advance width="1309"/>
  <unicode hex="01FA"/>
  <outline>
    <component base="LtnCapA"/>
    <component base="CombRingAbv" xOffset="1192" yOffset="320"/>
    <component base="CombAcute.LP" xOffset="1220" yOffset="760"/>
    <contour>
      <point x="644" y="0" type="move" name="H"/>
    </contour>
    <contour>
      <point x="644" y="2130" type="move" name="U"/>
    </contour>
    <contour>
      <point x="644" y="-100" type="move" name="L"/>
    </contour>
    <contour>
      <point x="1032" y="0" type="move" name="O"/>
    </contour>
  </outline>
</glyph>
<glyph name="LtnSmARingAbvAcute" format="1">
  <advance width="1050"/>
  <unicode hex="01FB"/>
  <outline>
    <component base="LtnSmA"/>
    <component base="CombRingAbv" xOffset="1074"/>
    <component base="CombAcute.LP" xOffset="1102" yOffset="440"/>
    <contour>
      <point x="409" y="0" type="move" name="H"/>
    </contour>
    <contour>
      <point x="1050" y="900" type="move" name="R"/>
    </contour>
    <contour>
      <point x="526" y="1810" type="move" name="U"/>
    </contour>
    <contour>
      <point x="502" y="-100" type="move" name="L"/>
    </contour>
    <contour>
      <point x="800" y="0" type="move" name="O"/>
    </contour>
  </outline>
</glyph>
<glyph name="LtnSmAeAcute" format="1">
  <advance width="1529"/>
  <unicode hex="01FD"/>
  <outline>
    <component base="LtnSmAe"/>
    <component base="CombAcute" xOffset="1337"/>
    <contour>
      <point x="797" y="0" type="move" name="H"/>
    </contour>
    <contour>
      <point x="1528" y="900" type="move" name="R"/>
    </contour>
    <contour>
      <point x="707" y="1440" type="move" name="U"/>
    </contour>
    <contour>
      <point x="797" y="-100" type="move" name="L"/>
    </contour>
    <contour>
      <point x="1113" y="0" type="move" name="O"/>
    </contour>
  </outline>
</glyph>
<glyph name="LtnSmOStrkAcute" format="1">
  <advance width="1090"/>
  <unicode hex="01FF"/>
  <outline>
    <component base="LtnSmOStrk"/>
    <component base="CombAcute" xOffset="1096"/>
    <contour>
      <point x="567" y="0" type="move" name="H"/>
    </contour>
    <contour>
      <point x="1090" y="900" type="move" name="R"/>
    </contour>
    <contour>
      <point x="466" y="1440" type="move" name="U"/>
    </contour>
    <contour>
      <point x="556" y="-100" type="move" name="L"/>
    </contour>
    <contour>
      <point x="611" y="0" type="move" name="O"/>
    </contour>
  </outline>
</glyph>
<glyph name="LtnCapEInvBreve" format="1">
  <advance width="1096"/>
  <unicode hex="0206"/>
  <outline>
    <component base="LtnCapE"/>
    <component base="CombInvBreve" xOffset="1095" yOffset="320"/>
    <contour>
      <point x="547" y="0" type="move" name="H"/>
    </contour>
    <contour>
      <point x="1096" y="1100" type="move" name="R"/>
    </contour>
    <contour>
      <point x="547" y="1690" type="move" name="U"/>
    </contour>
    <contour>
      <point x="547" y="-100" type="move" name="L"/>
    </contour>
    <contour>
      <point x="825" y="0" type="move" name="O"/>
    </contour>
  </outline>
</glyph>
<glyph name="LtnSmIDblGrave" format="1">
  <advance width="635"/>
  <unicode hex="0209"/>
  <outline>
    <component base="LtnSmDotlessI"/>
    <component base="CombDblGrave" xOffset="898"/>
    <contour>
      <point x="325" y="0" type="move" name="H"/>
    </contour>
    <contour>
      <point x="635" y="900" type="move" name="R"/>
    </contour>
    <contour>
      <point x="325" y="1533" type="move" name="U"/>
    </contour>
    <contour>
      <point x="325" y="-100" type="move" name="L"/>
    </contour>
    <contour>
      <point x="386" y="0" type="move" name="O"/>
    </contour>
  </outline>
</glyph>
<glyph name="LtnCapODblGrave" format="1">
  <advance width="1289"/>
  <unicode hex="020C"/>
  <outline>
    <component base="LtnCapO"/>
    <component base="CombDblGrave" xOffset="1219" yOffset="320"/>
    <contour>
      <point x="613" y="0" type="move" name="H"/>
    </contour>
    <contour>
      <point x="1256" y="1100" type="move" name="R"/>
    </contour>
    <contour>
      <point x="646" y="1853" type="move" name="U"/>
    </contour>
    <contour>
      <point x="646" y="-100" type="move" name="L"/>
    </contour>
    <contour>
      <point x="712" y="0" type="move" name="O"/>
    </contour>
  </outline>
</glyph>
<glyph name="LtnCapRInvBreve" format="1">
  <advance width="1269"/>
  <unicode hex="0212"/>
  <outline>
    <component base="LtnCapR"/>
    <component base="CombInvBreve" xOffset="1120" yOffset="320"/>
    <contour>
      <point x="320" y="0" type="move" name="H"/>
    </contour>
    <contour>
      <point x="572" y="1690" type="move" name="U"/>
    </contour>
    <contour>
      <point x="572" y="-100" type="move" name="L"/>
    </contour>
  </outline>
</glyph>
<glyph name="LtnCapUDblGrave" format="1">
  <advance width="1379"/>
  <unicode hex="0214"/>
  <outline>
    <component base="LtnCapU"/>
    <component base="CombDblGrave" xOffset="1270" yOffset="320"/>
    <contour>
      <point x="697" y="0" type="move" name="H"/>
    </contour>
    <contour>
      <point x="1380" y="1100" type="move" name="R"/>
    </contour>
    <contour>
      <point x="697" y="1853" type="move" name="U"/>
    </contour>
    <contour>
      <point x="697" y="-100" type="move" name="L"/>
    </contour>
    <contour>
      <point x="784" y="0" type="move" name="O"/>
    </contour>
  </outline>
</glyph>
<glyph name="LtnCapUInvBreve" format="1">
  <advance width="1379"/>
  <unicode hex="0216"/>
  <outline>
    <component base="LtnCapU"/>
    <component base="CombInvBreve" xOffset="1245" yOffset="320"/>
    <contour>
      <point x="697" y="0" type="move" name="H"/>
    </contour>
    <contour>
      <point x="1380" y="1100" type="move" name="R"/>
    </contour>
    <contour>
      <point x="697" y="1690" type="move" name="U"/>
    </contour>
    <contour>
      <point x="697" y="-100" type="move" name="L"/>
    </contour>
    <contour>
      <point x="784" y="0" type="move" name="O"/>
    </contour>
  </outline>
</glyph>
<glyph name="LtnCapSCommaBlw" format="1">
  <advance width="1075"/>
  <unicode hex="0218"/>
  <outline>
    <component base="LtnCapS"/>
    <component base="CombCommaBlw" xOffset="1099"/>
    <contour>
      <point x="522" y="0" type="move" name="H"/>
    </contour>
    <contour>
      <point x="546" y="1370" type="move" name="U"/>
    </contour>
    <contour>
      <point x="546" y="-600" type="move" name="L"/>
    </contour>
  </outline>
</glyph>
<glyph name="LtnCapTCommaBlw" format="1">
  <advance width="1208"/>
  <unicode hex="021A"/>
  <outline>
    <component base="LtnCapT"/>
    <component base="CombCommaBlw" xOffset="1139"/>
    <contour>
      <point x="586" y="0" type="move" name="H"/>
    </contour>
    <contour>
      <point x="586" y="1370" type="move" name="U"/>
    </contour>
    <contour>
      <point x="586" y="-600" type="move" name="L"/>
    </contour>
  </outline>
</glyph>
<glyph name="LtnSmTCommaBlw" format="1">
  <advance width="775"/>
  <unicode hex="021B"/>
  <outline>
    <component base="LtnSmT"/>
    <component base="CombCommaBlw" xOffset="931"/>
    <contour>
      <point x="378" y="0" type="move" name="H"/>
    </contour>
    <contour>
      <point x="570" y="900" type="move" name="R"/>
    </contour>
    <contour>
      <point x="378" y="1320" type="move" name="U"/>
    </contour>
    <contour>
      <point x="378" y="-600" type="move" name="L"/>
    </contour>
  </outline>
</glyph>
<glyph name="LtnCapHCaron" format="1">
  <advance width="1419"/>
  <unicode hex="021E"/>
  <outline>
    <component base="LtnCapH"/>
    <component base="CombCaron.LP" xOffset="1247" yOffset="320"/>
    <contour>
      <point x="320" y="0" type="move" name="H"/>
    </contour>
    <contour>
      <point x="700" y="1690" type="move" name="U"/>
    </contour>
    <contour>
      <point x="700" y="-100" type="move" name="L"/>
    </contour>
  </outline>
</glyph>
<glyph name="LtnSmHCaron" format="1">
  <advance width="1210"/>
  <unicode hex="021F"/>
  <outline>
    <component base="LtnSmH"/>
    <component base="CombCaron.LP" xOffset="1164" yOffset="570"/>
    <contour>
      <point x="320" y="0" type="move" name="H"/>
    </contour>
    <contour>
      <point x="617" y="1940" type="move" name="U"/>
    </contour>
    <contour>
      <point x="617" y="-100" type="move" name="L"/>
    </contour>
  </outline>
</glyph>
<glyph name="LtnSmZHook" format="1">
  <advance width="976"/>
  <unicode hex="0225"/>
  <outline>
    <contour>
      <point x="367" y="130" type="line"/>
      <point x="890" y="887" type="line"/>
      <point x="868" y="930" type="line"/>
      <point x="286" y="930" type="line" smooth="yes"/>
      <point x="200" y="930"/>
      <point x="168" y="930"/>
      <point x="110" y="946" type="curve"/>
      <point x="82" y="592" type="line"/>
      <point x="161" y="570" type="line"/>
      <point x="188" y="693"/>
      <point x="245" y="800"/>
      <point x="318" y="800" type="curve" smooth="yes"/>
      <point x="549" y="800" type="line"/>
      <point x="29" y="45" type="line"/>
      <point x="55" y="0" type="line"/>
      <point x="584" y="0" type="line" smooth="yes"/>
      <point x="687" y="0"/>
      <point x="711" y="-49"/>
      <point x="708" y="-86" type="curve" smooth="yes"/>
      <point x="705" y="-126"/>
      <point x="682" y="-172"/>
      <point x="542" y="-259" type="curve"/>
      <point x="596" y="-320" type="line"/>
      <point x="812" y="-204"/>
      <point x="913" y="-119"/>
      <point x="913" y="-9" type="curve" smooth="yes"/>
      <point x="913" y="89"/>
      <point x="848" y="130"/>
      <point x="676" y="130" type="curve" smooth="yes"/>
    </contour>
    <contour>
      <point x="453" y="1050" type="move" name="U"/>
    </contour>
    <contour>
      <point x="425" y="-603" type="move" name="L"/>
    </contour>
  </outline>
</glyph>
<glyph name="LtnCapECedilla" format="1">
  <advance width="1096"/>
  <unicode hex="0228"/>
  <outline>
    <component base="LtnCapE"/>
    <component base="CombCedilla" xOffset="1093"/>
    <contour>
      <point x="1096" y="1100" type="move" name="R"/>
    </contour>
    <contour>
      <point x="547" y="1370" type="move" name="U"/>
    </contour>
    <contour>
      <point x="547" y="-600" type="move" name="L"/>
    </contour>
    <contour>
      <point x="825" y="0" type="move" name="O"/>
    </contour>
  </outline>
</glyph>
<glyph name="LtnSmECedilla" format="1">
  <advance width="1006"/>
  <unicode hex="0229"/>
  <outline>
    <component base="LtnSmE"/>
    <component base="CombCedilla" xOffset="1079"/>
    <contour>
      <point x="1020" y="900" type="move" name="R"/>
    </contour>
    <contour>
      <point x="544" y="1050" type="move" name="U"/>
    </contour>
    <contour>
      <point x="533" y="-600" type="move" name="L"/>
    </contour>
    <contour>
      <point x="558" y="0" type="move" name="O"/>
    </contour>
  </outline>
</glyph>
<glyph name="LtnCapOTildeMacron" format="1">
  <advance width="1289"/>
  <unicode hex="022C"/>
  <outline>
    <component base="LtnCapO"/>
    <component base="CombTilde.LP" xOffset="1194" yOffset="320"/>
    <component base="CombMacron.LP" xOffset="1204" yOffset="640"/>
    <contour>
      <point x="613" y="0" type="move" name="H"/>
    </contour>
    <contour>
      <point x="1256" y="1100" type="move" name="R"/>
    </contour>
    <contour>
      <point x="646" y="2010" type="move" name="U"/>
    </contour>
    <contour>
      <point x="646" y="-100" type="move" name="L"/>
    </contour>
    <contour>
      <point x="712" y="0" type="move" name="O"/>
    </contour>
  </outline>
</glyph>
<glyph name="LtnCapYMacron" format="1">
  <advance width="1267"/>
  <unicode hex="0232"/>
  <outline>
    <component base="LtnCapY"/>
    <component base="CombMacron.LP" xOffset="1192" yOffset="320"/>
    <contour>
      <point x="634" y="1690" type="move" name="U"/>
    </contour>
    <contour>
      <point x="634" y="-100" type="move" name="L"/>
    </contour>
  </outline>
</glyph>
<glyph name="LtnSmYMacron" format="1">
  <advance width="1050"/>
  <unicode hex="0233"/>
  <outline>
    <component base="LtnSmY"/>
    <component base="CombMacron" xOffset="1106"/>
    <contour>
      <point x="1050" y="900" type="move" name="R"/>
    </contour>
    <contour>
      <point x="548" y="1410" type="move" name="U"/>
    </contour>
    <contour>
      <point x="830" y="-100" type="move" name="L"/>
    </contour>
  </outline>
</glyph>
<glyph name="LtnSmTurnedAlpha" format="1">
  <advance width="1125"/>
  <unicode hex="0252"/>
  <outline>
    <contour>
      <point x="46" y="890" type="curve"/>
      <point x="46" y="890"/>
      <point x="46" y="808"/>
      <point x="46" y="810" type="curve"/>
      <point x="171" y="804"/>
      <point x="176" y="784"/>
      <point x="176" y="682" type="curve" smooth="yes"/>
      <point x="176" y="247" type="line" smooth="yes"/>
      <point x="176" y="136"/>
      <point x="147" y="10"/>
      <point x="147" y="10" type="curve"/>
      <point x="191" y="-30" type="line"/>
      <point x="274" y="28"/>
      <point x="387" y="80"/>
      <point x="446" y="102" type="curve"/>
      <point x="446" y="658" type="line" smooth="yes"/>
      <point x="446" y="777"/>
      <point x="437" y="854"/>
      <point x="431" y="915" type="curve"/>
      <point x="385" y="960" type="line"/>
      <point x="286" y="924"/>
      <point x="203" y="908"/>
    </contour>
    <contour>
      <point x="371" y="750" type="curve"/>
      <point x="377" y="740"/>
      <point x="401" y="661"/>
      <point x="418" y="653" type="curve"/>
      <point x="501" y="730"/>
      <point x="562" y="750"/>
      <point x="604" y="750" type="curve" smooth="yes"/>
      <point x="695" y="750"/>
      <point x="811" y="647"/>
      <point x="811" y="420" type="curve" smooth="yes"/>
      <point x="811" y="180"/>
      <point x="681" y="120"/>
      <point x="631" y="120" type="curve" smooth="yes"/>
      <point x="541" y="120"/>
      <point x="461" y="194"/>
      <point x="439" y="323" type="curve"/>
      <point x="398" y="297"/>
      <point x="391" y="190"/>
      <point x="391" y="110" type="curve"/>
      <point x="457" y="25"/>
      <point x="531" y="-30"/>
      <point x="631" y="-30" type="curve" smooth="yes"/>
      <point x="897" y="-30"/>
      <point x="1081" y="251"/>
      <point x="1081" y="491" type="curve" smooth="yes"/>
      <point x="1081" y="798"/>
      <point x="893" y="960"/>
      <point x="716" y="960" type="curve" smooth="yes"/>
      <point x="616" y="960"/>
      <point x="507" y="897"/>
    </contour>
    <contour>
      <point x="568" y="-6" type="move" name="H"/>
    </contour>
    <contour>
      <point x="702" y="0" type="move" name="O"/>
    </contour>
    <contour>
      <point x="1065" y="900" type="move" name="R"/>
    </contour>
    <contour>
      <point x="582" y="1050" type="move" name="U"/>
    </contour>
    <contour>
      <point x="584" y="-100" type="move" name="L"/>
    </contour>
  </outline>
</glyph>
<glyph name="LtnSmScriptG" format="1">
  <advance width="1085"/>
  <unicode hex="0261"/>
  <outline>
    <component base="LtnSmG.SngBowl"/>
    <contour>
      <point x="533" y="-440" type="move" name="H"/>
    </contour>
    <contour>
      <point x="1085" y="900" type="move" name="R"/>
    </contour>
    <contour>
      <point x="598" y="1050" type="move" name="U"/>
    </contour>
    <contour>
      <point x="598" y="-600" type="move" name="L"/>
    </contour>
  </outline>
</glyph>
<glyph name="LtnSmBarredO" format="1">
  <advance width="1090"/>
  <unicode hex="0275"/>
  <outline>
    <contour>
      <point x="1030" y="485" type="curve" smooth="yes"/>
      <point x="1030" y="758"/>
      <point x="846" y="960"/>
      <point x="565" y="960" type="curve" smooth="yes"/>
      <point x="265" y="960"/>
      <point x="60" y="709"/>
      <point x="60" y="444" type="curve" smooth="yes"/>
      <point x="60" y="172"/>
      <point x="244" y="-30"/>
      <point x="526" y="-30" type="curve" smooth="yes"/>
      <point x="799" y="-30"/>
      <point x="1030" y="219"/>
    </contour>
    <contour>
      <point x="739" y="530" type="curve"/>
      <point x="345" y="530" type="line"/>
      <point x="354" y="716"/>
      <point x="401" y="830"/>
      <point x="536" y="830" type="curve" smooth="yes"/>
      <point x="648" y="830"/>
      <point x="717" y="711"/>
    </contour>
    <contour>
      <point x="745" y="400" type="line"/>
      <point x="738" y="194"/>
      <point x="691" y="100"/>
      <point x="554" y="100" type="curve" smooth="yes"/>
      <point x="448" y="100"/>
      <point x="366" y="214"/>
      <point x="348" y="400" type="curve"/>
    </contour>
    <contour>
      <point x="556" y="1050" type="move" name="U"/>
    </contour>
    <contour>
      <point x="556" y="-100" type="move" name="L"/>
    </contour>
    <contour>
      <point x="1090" y="900" type="move" name="R"/>
    </contour>
  </outline>
</glyph>
<glyph name="LtnSmClosedOmega" format="1">
  <advance width="1453"/>
  <unicode hex="0277"/>
  <outline>
    <contour>
      <point x="1113" y="411" type="curve" smooth="yes"/>
      <point x="1113" y="260"/>
      <point x="1064" y="120"/>
      <point x="965" y="120" type="curve" smooth="yes"/>
      <point x="869" y="120"/>
      <point x="814" y="225"/>
      <point x="814" y="383" type="curve" smooth="yes"/>
      <point x="814" y="480"/>
      <point x="835" y="565"/>
      <point x="851" y="615" type="curve"/>
      <point x="851" y="615"/>
      <point x="813" y="653"/>
      <point x="802" y="666" type="curve"/>
      <point x="760" y="649"/>
      <point x="653" y="610"/>
      <point x="596" y="589" type="curve"/>
      <point x="617" y="544"/>
      <point x="631" y="455"/>
      <point x="631" y="377" type="curve" smooth="yes"/>
      <point x="631" y="216"/>
      <point x="567" y="120"/>
      <point x="491" y="120" type="curve" smooth="yes"/>
      <point x="384" y="120"/>
      <point x="340" y="238"/>
      <point x="340" y="428" type="curve" smooth="yes"/>
      <point x="340" y="698"/>
      <point x="522" y="850"/>
      <point x="719" y="850" type="curve" smooth="yes"/>
      <point x="899" y="850"/>
      <point x="1113" y="736"/>
    </contour>
    <contour>
      <point x="60" y="393" type="curve" smooth="yes"/>
      <point x="60" y="116"/>
      <point x="206" y="-31"/>
      <point x="439" y="-31" type="curve" smooth="yes"/>
      <point x="605" y="-31"/>
      <point x="677" y="78"/>
      <point x="719" y="166" type="curve"/>
      <point x="749" y="84"/>
      <point x="817" y="-31"/>
      <point x="957" y="-31" type="curve" smooth="yes"/>
      <point x="1182" y="-31"/>
      <point x="1393" y="129"/>
      <point x="1393" y="439" type="curve" smooth="yes"/>
      <point x="1393" y="753"/>
      <point x="1139" y="959"/>
      <point x="719" y="960" type="curve" smooth="yes"/>
      <point x="259" y="961"/>
      <point x="60" y="679"/>
    </contour>
    <contour>
      <point x="728" y="1050" type="move" name="U"/>
    </contour>
    <contour>
      <point x="715" y="-100" type="move" name="L"/>
    </contour>
    <contour>
      <point x="1396" y="900" type="move" name="R"/>
    </contour>
  </outline>
</glyph>
<glyph name="LtnSmUpsilon" format="1">
  <advance width="1055"/>
  <unicode hex="028A"/>
  <outline>
    <contour>
      <point x="995" y="847" type="curve"/>
      <point x="995" y="930" type="line"/>
      <point x="611" y="930" type="line"/>
      <point x="581" y="798" type="line"/>
      <point x="708" y="722"/>
      <point x="734" y="584"/>
      <point x="734" y="383" type="curve" smooth="yes"/>
      <point x="734" y="228"/>
      <point x="666" y="100"/>
      <point x="540" y="100" type="curve" smooth="yes"/>
      <point x="416" y="100"/>
      <point x="335" y="240"/>
      <point x="335" y="418" type="curve" smooth="yes"/>
      <point x="335" y="617"/>
      <point x="353" y="701"/>
      <point x="480" y="798" type="curve"/>
      <point x="452" y="930" type="line"/>
      <point x="65" y="930" type="line"/>
      <point x="65" y="847" type="line"/>
      <point x="65" y="847"/>
      <point x="303" y="796"/>
      <point x="256" y="753" type="curve" smooth="yes"/>
      <point x="133" y="642"/>
      <point x="60" y="539"/>
      <point x="60" y="389" type="curve" smooth="yes"/>
      <point x="60" y="164"/>
      <point x="206" y="-30"/>
      <point x="521" y="-30" type="curve" smooth="yes"/>
      <point x="875" y="-30"/>
      <point x="989" y="236"/>
      <point x="989" y="424" type="curve" smooth="yes"/>
      <point x="989" y="559"/>
      <point x="920" y="650"/>
      <point x="803" y="753" type="curve"/>
      <point x="758" y="794"/>
      <point x="995" y="847"/>
    </contour>
    <contour>
      <point x="527" y="1050" type="move" name="U"/>
    </contour>
    <contour>
      <point x="527" y="-100" type="move" name="L"/>
    </contour>
    <contour>
      <point x="1055" y="900" type="move" name="R"/>
    </contour>
    <contour>
      <point x="567" y="0" type="move" name="O"/>
    </contour>
    <contour>
      <point x="527" y="0" type="move" name="H"/>
    </contour>
  </outline>
</glyph>
<glyph name="LtnBidentalPercussive" format="1">
  <advance width="1074"/>
  <unicode hex="02AD"/>
  <outline>
    <contour>
      <point x="275" y="41" type="curve"/>
      <point x="275" y="294" type="line"/>
      <point x="794" y="294" type="line"/>
      <point x="794" y="4" type="line"/>
      <point x="829" y="-30" type="line"/>
      <point x="867" y="-17"/>
      <point x="930" y="23"/>
      <point x="955" y="41" type="curve"/>
      <point x="955" y="414" type="line"/>
      <point x="916" y="446" type="line"/>
      <point x="165" y="446" type="line"/>
      <point x="150" y="414"/>
      <point x="120" y="353"/>
      <point x="114" y="328" type="curve"/>
      <point x="114" y="4" type="line"/>
      <point x="149" y="-30" type="line"/>
      <point x="190" y="-16"/>
      <point x="249" y="22"/>
    </contour>
    <contour>
      <point x="275" y="743" type="curve"/>
      <point x="275" y="996" type="line"/>
      <point x="794" y="996" type="line"/>
      <point x="794" y="706" type="line"/>
      <point x="829" y="672" type="line"/>
      <point x="867" y="685"/>
      <point x="930" y="725"/>
      <point x="955" y="743" type="curve"/>
      <point x="955" y="1116" type="line"/>
      <point x="916" y="1148" type="line"/>
      <point x="165" y="1148" type="line"/>
      <point x="150" y="1116"/>
      <point x="120" y="1055"/>
      <point x="114" y="1030" type="curve"/>
      <point x="114" y="706" type="line"/>
      <point x="149" y="672" type="line"/>
      <point x="190" y="686"/>
      <point x="249" y="724"/>
    </contour>
    <contour>
      <point x="536" y="-100" type="move" name="L"/>
    </contour>
    <contour>
      <point x="536" y="1260" type="move" name="U"/>
    </contour>
  </outline>
</glyph>
<glyph name="ModRtHalfRing" format="1">
  <advance width="574"/>
  <unicode hex="02BE"/>
  <outline>
    <component base="ModCntrdRtHalfRing" yOffset="700"/>
    <contour>
      <point x="280" y="-100" type="move" name="L"/>
    </contour>
    <contour>
      <point x="280" y="1620" type="move" name="U"/>
    </contour>
  </outline>
</glyph>
<glyph name="Caron" format="1">
  <advance width="733"/>
  <unicode hex="02C7"/>
  <outline>
    <contour>
      <point x="723" y="1451" type="line"/>
      <point x="704" y="1476"/>
      <point x="670" y="1516"/>
      <point x="648" y="1526" type="curve"/>
      <point x="367" y="1318" type="line"/>
      <point x="83" y="1526" type="line"/>
      <point x="60" y="1516"/>
      <point x="36" y="1476"/>
      <point x="20" y="1451" type="curve"/>
      <point x="292" y="1062" type="line"/>
      <point x="439" y="1062" type="line"/>
    </contour>
    <contour>
      <point x="367" y="1410" type="move" name="U"/>
    </contour>
  </outline>
</glyph>
<glyph name="ModGraveAccent" format="1">
  <advance width="408"/>
  <unicode hex="02CB"/>
  <outline>
    <component base="CombGrave" xOffset="727"/>
    <contour>
      <point x="294" y="1410" type="move" name="U"/>
    </contour>
  </outline>
</glyph>
<glyph name="ModLowVertLine" format="1">
  <advance width="455"/>
  <unicode hex="02CC"/>
  <outline>
    <contour>
      <point x="315" y="-468" type="curve"/>
      <point x="315" y="132" type="line"/>
      <point x="278" y="162" type="line"/>
      <point x="237" y="152"/>
      <point x="179" y="132"/>
      <point x="140" y="109" type="curve"/>
      <point x="140" y="-487" type="line"/>
      <point x="178" y="-519" type="line"/>
      <point x="211" y="-508"/>
      <point x="278" y="-489"/>
    </contour>
  </outline>
</glyph>
<glyph name="ModHalfTriangularColon" format="1">
  <advance width="572"/>
  <unicode hex="02D1"/>
  <outline>
    <contour>
      <point x="482" y="930" type="line"/>
      <point x="90" y="930" type="line"/>
      <point x="286" y="549" type="line"/>
    </contour>
  </outline>
</glyph>
<glyph name="Ogonek" format="1">
  <advance width="530"/>
  <unicode hex="02DB"/>
  <outline>
    <contour>
      <point x="555" y="-299" type="curve"/>
      <point x="521" y="-222" type="line"/>
      <point x="465" y="-273"/>
      <point x="424" y="-286"/>
      <point x="391" y="-286" type="curve" smooth="yes"/>
      <point x="350" y="-286"/>
      <point x="315" y="-263"/>
      <point x="315" y="-214" type="curve" smooth="yes"/>
      <point x="315" y="-151"/>
      <point x="349" y="-89"/>
      <point x="469" y="24" type="curve"/>
      <point x="374" y="43" type="line"/>
      <point x="153" y="-59"/>
      <point x="46" y="-180"/>
      <point x="46" y="-299" type="curve" smooth="yes"/>
      <point x="46" y="-410"/>
      <point x="159" y="-444"/>
      <point x="232" y="-444" type="curve" smooth="yes"/>
      <point x="359" y="-444"/>
      <point x="487" y="-369"/>
    </contour>
    <contour>
      <point x="289" y="-600" type="move" name="L"/>
    </contour>
  </outline>
</glyph>
<glyph name="ModSmX" format="1">
  <advance width="721"/>
  <unicode hex="02E3"/>
  <outline>
    <contour>
      <point x="696" y="1142" type="curve"/>
      <point x="696" y="1178" type="line"/>
      <point x="430" y="1178" type="line"/>
      <point x="430" y="1142" type="line"/>
      <point x="487" y="1137"/>
      <point x="497" y="1128"/>
      <point x="465" y="1089" type="curve" smooth="yes"/>
      <point x="342" y="937" type="line"/>
      <point x="395" y="891" type="line"/>
      <point x="558" y="1088" type="line" smooth="yes"/>
      <point x="583" y="1118"/>
      <point x="621" y="1137"/>
    </contour>
    <contour>
      <point x="711" y="620" type="line"/>
      <point x="711" y="656" type="line"/>
      <point x="650" y="663"/>
      <point x="622" y="688"/>
      <point x="601" y="712" type="curve" smooth="yes"/>
      <point x="279" y="1089" type="line" smooth="yes"/>
      <point x="246" y="1127"/>
      <point x="258" y="1137"/>
      <point x="316" y="1142" type="curve"/>
      <point x="316" y="1178" type="line"/>
      <point x="22" y="1178" type="line"/>
      <point x="22" y="1142" type="line"/>
      <point x="97" y="1137"/>
      <point x="114" y="1118"/>
      <point x="139" y="1088" type="curve" smooth="yes"/>
      <point x="464" y="709" type="line" smooth="yes"/>
      <point x="501" y="665"/>
      <point x="476" y="659"/>
      <point x="430" y="656" type="curve"/>
      <point x="430" y="620" type="line"/>
    </contour>
    <contour>
      <point x="358" y="868" type="line"/>
      <point x="306" y="916" type="line"/>
      <point x="135" y="712" type="line" smooth="yes"/>
      <point x="115" y="688"/>
      <point x="89" y="665"/>
      <point x="14" y="656" type="curve"/>
      <point x="14" y="620" type="line"/>
      <point x="279" y="620" type="line"/>
      <point x="279" y="656" type="line"/>
      <point x="235" y="659"/>
      <point x="191" y="665"/>
      <point x="227" y="709" type="curve" smooth="yes"/>
    </contour>
    <contour>
      <point x="368" y="1286" type="move" name="U"/>
    </contour>
    <contour>
      <point x="368" y="540" type="move" name="L"/>
    </contour>
  </outline>
</glyph>
<glyph name="ModSmRevGlottalStop" format="1">
  <advance width="623"/>
  <unicode hex="02E4"/>
  <outline>
    <contour>
      <point x="483" y="620" type="line"/>
      <point x="483" y="656" type="line"/>
      <point x="403" y="668"/>
      <point x="374" y="679"/>
      <point x="374" y="692" type="curve" smooth="yes"/>
      <point x="374" y="918" type="line" smooth="yes"/>
      <point x="374" y="1103"/>
      <point x="143" y="1190"/>
      <point x="143" y="1328" type="curve" smooth="yes"/>
      <point x="143" y="1426"/>
      <point x="210" y="1482"/>
      <point x="283" y="1482" type="curve" smooth="yes"/>
      <point x="388" y="1482"/>
      <point x="458" y="1422"/>
      <point x="461" y="1320" type="curve"/>
      <point x="507" y="1319"/>
      <point x="586" y="1345"/>
      <point x="591" y="1358" type="curve"/>
      <point x="578" y="1474"/>
      <point x="485" y="1550"/>
      <point x="321" y="1550" type="curve" smooth="yes"/>
      <point x="166" y="1550"/>
      <point x="18" y="1461"/>
      <point x="18" y="1313" type="curve" smooth="yes"/>
      <point x="18" y="1147"/>
      <point x="249" y="1063"/>
      <point x="249" y="898" type="curve" smooth="yes"/>
      <point x="249" y="692" type="line" smooth="yes"/>
      <point x="249" y="680"/>
      <point x="216" y="667"/>
      <point x="140" y="656" type="curve"/>
      <point x="140" y="620" type="line"/>
    </contour>
    <contour>
      <point x="312" y="1620" type="move" name="U"/>
    </contour>
    <contour>
      <point x="312" y="540" type="move" name="L"/>
    </contour>
  </outline>
</glyph>
<glyph name="ModYinDepartingTnMrk" format="1">
  <advance width="833"/>
  <unicode hex="02EA"/>
  <outline>
    <contour>
      <point x="557" y="273" type="curve"/>
      <point x="532" y="300" type="line"/>
      <point x="129" y="300" type="line"/>
      <point x="115" y="273"/>
      <point x="93" y="236"/>
      <point x="85" y="209" type="curve"/>
      <point x="110" y="180" type="line"/>
      <point x="516" y="180" type="line"/>
      <point x="528" y="202"/>
      <point x="550" y="247"/>
    </contour>
    <contour>
      <point x="205" y="228" type="curve"/>
      <point x="205" y="742" type="line"/>
      <point x="178" y="766" type="line"/>
      <point x="152" y="758"/>
      <point x="108" y="739"/>
      <point x="85" y="726" type="curve"/>
      <point x="85" y="209" type="line"/>
      <point x="112" y="182" type="line"/>
      <point x="138" y="190"/>
      <point x="178" y="212"/>
    </contour>
  </outline>
</glyph>
<glyph name="ModLowDwnArrwhd" format="1">
  <advance width="515"/>
  <unicode hex="02EF"/>
  <outline>
    <contour>
      <point x="235" y="-555" type="line"/>
      <point x="251" y="-547"/>
      <point x="290" y="-530"/>
      <point x="305" y="-516" type="curve"/>
      <point x="475" y="-157" type="line"/>
      <point x="460" y="-142" type="line"/>
      <point x="448" y="-147"/>
      <point x="393" y="-168"/>
      <point x="380" y="-180" type="curve"/>
      <point x="272" y="-415" type="line"/>
      <point x="138" y="-154" type="line"/>
      <point x="118" y="-140" type="line"/>
      <point x="97" y="-148"/>
      <point x="64" y="-169"/>
      <point x="50" y="-180" type="curve"/>
    </contour>
  </outline>
</glyph>
<glyph name="ModMiddleGraveAccent" format="1">
  <advance width="608"/>
  <unicode hex="02F4"/>
  <outline>
    <contour>
      <point x="548" y="539" type="curve"/>
      <point x="338" y="970" type="line"/>
      <point x="305" y="968"/>
      <point x="118" y="933"/>
      <point x="92" y="926" type="curve"/>
      <point x="60" y="865" type="line"/>
      <point x="452" y="488" type="line"/>
      <point x="475" y="495"/>
      <point x="531" y="523"/>
    </contour>
    <contour>
      <point x="300" y="1050" type="move" name="U"/>
    </contour>
  </outline>
</glyph>
<glyph name="ModBeginLowTn" format="1">
  <advance width="631"/>
  <unicode hex="02FB"/>
  <outline>
    <contour>
      <point x="583" y="-304" type="line"/>
      <point x="583" y="-217" type="line"/>
      <point x="139" y="-217" type="line"/>
      <point x="139" y="350" type="line"/>
      <point x="52" y="350" type="line"/>
      <point x="52" y="-304" type="line"/>
    </contour>
  </outline>
</glyph>
<glyph name="ModEndLowTn" format="1">
  <advance width="631"/>
  <unicode hex="02FC"/>
  <outline>
    <contour>
      <point x="584" y="-304" type="line"/>
      <point x="584" y="350" type="line"/>
      <point x="497" y="350" type="line"/>
      <point x="497" y="-217" type="line"/>
      <point x="53" y="-217" type="line"/>
      <point x="53" y="-304" type="line"/>
    </contour>
  </outline>
</glyph>
<glyph name="ModOpnShelf" format="1">
  <advance width="1225"/>
  <unicode hex="02FE"/>
  <outline>
    <contour>
      <point x="1175" y="-259" type="curve"/>
      <point x="1140" y="-227" type="line"/>
      <point x="210" y="-227" type="line"/>
      <point x="210" y="-9" type="line"/>
      <point x="174" y="26" type="line"/>
      <point x="147" y="20"/>
      <point x="72" y="-19"/>
      <point x="50" y="-35" type="curve"/>
      <point x="50" y="-351" type="line"/>
      <point x="80" y="-378" type="line"/>
      <point x="1124" y="-378" type="line"/>
      <point x="1134" y="-358"/>
      <point x="1167" y="-288"/>
    </contour>
  </outline>
</glyph>
<glyph name="CombGrave" format="1">
  <advance width="0"/>
  <unicode hex="0300"/>
  <outline>
    <contour>
      <point x="-333" y="1088" type="curve"/>
      <point x="-543" y="1519" type="line"/>
      <point x="-576" y="1517"/>
      <point x="-763" y="1482"/>
      <point x="-789" y="1475" type="curve"/>
      <point x="-821" y="1414" type="line"/>
      <point x="-429" y="1037" type="line"/>
      <point x="-406" y="1044"/>
      <point x="-350" y="1072"/>
    </contour>
    <contour>
      <point x="-466" y="1410" type="move" name="U"/>
    </contour>
    <contour>
      <point x="-466" y="1050" type="move" name="_U"/>
    </contour>
  </outline>
</glyph>
<glyph name="CombTilde" format="1">
  <advance width="0"/>
  <unicode hex="0303"/>
  <outline>
    <contour>
      <point x="-147" y="1356" type="curve"/>
      <point x="-240" y="1395" type="line"/>
      <point x="-285" y="1317"/>
      <point x="-335" y="1266"/>
      <point x="-376" y="1266" type="curve" smooth="yes"/>
      <point x="-450" y="1266"/>
      <point x="-519" y="1369"/>
      <point x="-630" y="1369" type="curve" smooth="yes"/>
      <point x="-774" y="1369"/>
      <point x="-863" y="1193"/>
      <point x="-910" y="1084" type="curve"/>
      <point x="-817" y="1050" type="line"/>
      <point x="-771" y="1124"/>
      <point x="-726" y="1174"/>
      <point x="-683" y="1174" type="curve" smooth="yes"/>
      <point x="-605" y="1174"/>
      <point x="-529" y="1071"/>
      <point x="-427" y="1071" type="curve" smooth="yes"/>
      <point x="-283" y="1071"/>
      <point x="-194" y="1248"/>
    </contour>
    <contour>
      <point x="-548" y="1410" type="move" name="U"/>
    </contour>
    <contour>
      <point x="-548" y="1050" type="move" name="_U"/>
    </contour>
  </outline>
</glyph>
<glyph name="CombBreve" format="1">
  <advance width="0"/>
  <unicode hex="0306"/>
  <outline>
    <contour>
      <point x="-183" y="1370" type="curve"/>
      <point x="-199" y="1394"/>
      <point x="-243" y="1435"/>
      <point x="-266" y="1445" type="curve"/>
      <point x="-334" y="1332"/>
      <point x="-456" y="1272"/>
      <point x="-550" y="1272" type="curve" smooth="yes"/>
      <point x="-639" y="1272"/>
      <point x="-764" y="1333"/>
      <point x="-830" y="1445" type="curve"/>
      <point x="-852" y="1435"/>
      <point x="-897" y="1394"/>
      <point x="-913" y="1370" type="curve"/>
      <point x="-833" y="1155"/>
      <point x="-697" y="1060"/>
      <point x="-546" y="1060" type="curve" smooth="yes"/>
      <point x="-406" y="1060"/>
      <point x="-263" y="1155"/>
    </contour>
    <contour>
      <point x="-548" y="1370" type="move" name="U"/>
    </contour>
    <contour>
      <point x="-548" y="1050" type="move" name="_U"/>
    </contour>
  </outline>
</glyph>
<glyph name="CombVertLineAbv" format="1">
  <advance width="0"/>
  <unicode hex="030D"/>
  <outline>
    <contour>
      <point x="-479" y="1081" type="curve"/>
      <point x="-479" y="1486" type="line"/>
      <point x="-516" y="1520" type="line"/>
      <point x="-542" y="1514"/>
      <point x="-616" y="1490"/>
      <point x="-639" y="1480" type="curve"/>
      <point x="-639" y="1072" type="line"/>
      <point x="-604" y="1040" type="line"/>
      <point x="-578" y="1046"/>
      <point x="-506" y="1068"/>
    </contour>
    <contour>
      <point x="-558" y="1370" type="move" name="U"/>
    </contour>
    <contour>
      <point x="-558" y="1050" type="move" name="_U"/>
    </contour>
  </outline>
</glyph>
<glyph name="CombDblVertLineAbv" format="1">
  <advance width="0"/>
  <unicode hex="030E"/>
  <outline>
    <contour>
      <point x="-608" y="1081" type="curve"/>
      <point x="-608" y="1486" type="line"/>
      <point x="-645" y="1520" type="line"/>
      <point x="-671" y="1514"/>
      <point x="-745" y="1490"/>
      <point x="-768" y="1480" type="curve"/>
      <point x="-768" y="1072" type="line"/>
      <point x="-733" y="1040" type="line"/>
      <point x="-707" y="1046"/>
      <point x="-635" y="1068"/>
    </contour>
    <contour>
      <point x="-348" y="1081" type="curve"/>
      <point x="-348" y="1486" type="line"/>
      <point x="-385" y="1520" type="line"/>
      <point x="-411" y="1514"/>
      <point x="-485" y="1490"/>
      <point x="-508" y="1480" type="curve"/>
      <point x="-508" y="1072" type="line"/>
      <point x="-473" y="1040" type="line"/>
      <point x="-447" y="1046"/>
      <point x="-375" y="1068"/>
    </contour>
    <contour>
      <point x="-558" y="1370" type="move" name="U"/>
    </contour>
    <contour>
      <point x="-558" y="1050" type="move" name="_U"/>
    </contour>
  </outline>
</glyph>
<glyph name="CombDblGrave" format="1">
  <advance width="0"/>
  <unicode hex="030F"/>
  <outline>
    <contour>
      <point x="-734" y="1037" type="line"/>
      <point x="-712" y="1042"/>
      <point x="-663" y="1068"/>
      <point x="-637" y="1084" type="curve"/>
      <point x="-783" y="1509" type="line"/>
      <point x="-816" y="1505"/>
      <point x="-945" y="1494"/>
      <point x="-972" y="1484" type="curve"/>
      <point x="-1004" y="1423" type="line"/>
    </contour>
    <contour>
      <point x="-404" y="1037" type="line"/>
      <point x="-382" y="1042"/>
      <point x="-333" y="1068"/>
      <point x="-307" y="1084" type="curve"/>
      <point x="-453" y="1509" type="line"/>
      <point x="-486" y="1505"/>
      <point x="-615" y="1494"/>
      <point x="-642" y="1484" type="curve"/>
      <point x="-674" y="1423" type="line"/>
    </contour>
    <contour>
      <point x="-573" y="1533" type="move" name="U"/>
    </contour>
    <contour>
      <point x="-573" y="1050" type="move" name="_U"/>
    </contour>
  </outline>
</glyph>
<glyph name="CombRevCommaAbv" format="1">
  <advance width="0"/>
  <unicode hex="0314"/>
  <outline>
    <contour>
      <point x="-725" y="1333" type="curve" smooth="yes"/>
      <point x="-725" y="1211"/>
      <point x="-633" y="1106"/>
      <point x="-494" y="1045" type="curve"/>
      <point x="-435" y="1101" type="line"/>
      <point x="-501" y="1152"/>
      <point x="-530" y="1194"/>
      <point x="-530" y="1255" type="curve" smooth="yes"/>
      <point x="-530" y="1316"/>
      <point x="-498" y="1384"/>
      <point x="-371" y="1395" type="curve"/>
      <point x="-353" y="1467" type="line"/>
      <point x="-413" y="1513"/>
      <point x="-562" y="1545"/>
      <point x="-616" y="1542" type="curve"/>
      <point x="-679" y="1511"/>
      <point x="-725" y="1431"/>
    </contour>
    <contour>
      <point x="-549" y="1450" type="move" name="U"/>
    </contour>
    <contour>
      <point x="-548" y="1050" type="move" name="_U"/>
    </contour>
  </outline>
</glyph>
<glyph name="CombHorn" format="1">
  <advance width="75"/>
  <unicode hex="031B"/>
  <outline>
    <contour>
      <point x="167" y="1042" type="curve" smooth="yes"/>
      <point x="167" y="1102"/>
      <point x="134" y="1167"/>
      <point x="95" y="1195" type="curve"/>
      <point x="-193" y="1065" type="line"/>
      <point x="-156" y="1034"/>
      <point x="-125" y="999"/>
      <point x="-125" y="961" type="curve" smooth="yes"/>
      <point x="-125" y="913"/>
      <point x="-149" y="831"/>
      <point x="-307" y="772" type="curve"/>
      <point x="-279" y="670" type="line"/>
      <point x="19" y="781"/>
      <point x="167" y="927"/>
    </contour>
    <contour>
      <point x="0" y="900" type="move" name="_R"/>
    </contour>
  </outline>
</glyph>
<glyph name="CombLftHalfRingBlw" format="1">
  <advance width="0"/>
  <unicode hex="031C"/>
  <outline>
    <contour>
      <point x="-426" y="-398" type="line"/>
      <point x="-532" y="-414"/>
      <point x="-581" y="-367"/>
      <point x="-581" y="-305" type="curve" smooth="yes"/>
      <point x="-581" y="-244"/>
      <point x="-530" y="-195"/>
      <point x="-433" y="-212" type="curve"/>
      <point x="-423" y="-78" type="line"/>
      <point x="-604" y="-67"/>
      <point x="-713" y="-172"/>
      <point x="-713" y="-305" type="curve" smooth="yes"/>
      <point x="-713" y="-437"/>
      <point x="-602" y="-543"/>
      <point x="-430" y="-528" type="curve"/>
    </contour>
    <contour>
      <point x="-548" y="-600" type="move" name="L"/>
    </contour>
    <contour>
      <point x="-548" y="-100" type="move" name="_L"/>
    </contour>
  </outline>
</glyph>
<glyph name="CombPlusSgnBlw" format="1">
  <advance width="0"/>
  <unicode hex="031F"/>
  <outline>
    <contour>
      <point x="-264" y="-288" type="curve"/>
      <point x="-289" y="-264" type="line"/>
      <point x="-806" y="-264" type="line"/>
      <point x="-818" y="-290"/>
      <point x="-836" y="-330"/>
      <point x="-843" y="-359" type="curve"/>
      <point x="-818" y="-383" type="line"/>
      <point x="-300" y="-383" type="line"/>
      <point x="-290" y="-361"/>
      <point x="-272" y="-317"/>
    </contour>
    <contour>
      <point x="-513" y="-85" type="line"/>
      <point x="-542" y="-93"/>
      <point x="-596" y="-101"/>
      <point x="-618" y="-111" type="curve"/>
      <point x="-618" y="-536" type="line"/>
      <point x="-594" y="-561" type="line"/>
      <point x="-565" y="-554"/>
      <point x="-515" y="-546"/>
      <point x="-489" y="-534" type="curve"/>
      <point x="-489" y="-110" type="line"/>
    </contour>
    <contour>
      <point x="-558" y="-600" type="move" name="L"/>
    </contour>
    <contour>
      <point x="-558" y="-100" type="move" name="_L"/>
    </contour>
  </outline>
</glyph>
<glyph name="CombDotBlw" format="1">
  <advance width="0"/>
  <unicode hex="0323"/>
  <outline>
    <contour>
      <point x="-398" y="-270" type="curve" smooth="yes"/>
      <point x="-398" y="-183"/>
      <point x="-448" y="-140"/>
      <point x="-528" y="-140" type="curve" smooth="yes"/>
      <point x="-616" y="-140"/>
      <point x="-698" y="-224"/>
      <point x="-698" y="-330" type="curve" smooth="yes"/>
      <point x="-698" y="-415"/>
      <point x="-651" y="-460"/>
      <point x="-568" y="-460" type="curve" smooth="yes"/>
      <point x="-476" y="-460"/>
      <point x="-398" y="-375"/>
    </contour>
    <contour>
      <point x="-548" y="-600" type="move" name="L"/>
    </contour>
    <contour>
      <point x="-548" y="-100" type="move" name="_L"/>
    </contour>
  </outline>
</glyph>
<glyph name="CombCedilla" format="1">
  <advance width="0"/>
  <unicode hex="0327"/>
  <outline>
    <contour>
      <point x="-316" y="-229" type="curve" smooth="yes"/>
      <point x="-316" y="-154"/>
      <point x="-373" y="-104"/>
      <point x="-486" y="-84" type="curve"/>
      <point x="-434" y="50" type="line"/>
      <point x="-572" y="52" type="line"/>
      <point x="-643" y="-171"/>
      <point x="-668" y="-199"/>
      <point x="-668" y="-199" type="curve"/>
      <point x="-617" y="-203"/>
      <point x="-584" y="-221"/>
      <point x="-584" y="-266" type="curve" smooth="yes"/>
      <point x="-584" y="-309"/>
      <point x="-628" y="-350"/>
      <point x="-736" y="-365" type="curve"/>
      <point x="-694" y="-444" type="line"/>
      <point x="-489" y="-425"/>
      <point x="-316" y="-328"/>
    </contour>
    <contour>
      <point x="-546" y="-600" type="move" name="L"/>
    </contour>
    <contour>
      <point x="-546" y="0" type="move" name="_H"/>
    </contour>
  </outline>
</glyph>
<glyph name="CombVertLineBlw" format="1">
  <advance width="0"/>
  <unicode hex="0329"/>
  <outline>
    <contour>
      <point x="-479" y="-539" type="curve"/>
      <point x="-479" y="-134" type="line"/>
      <point x="-516" y="-100" type="line"/>
      <point x="-542" y="-106"/>
      <point x="-616" y="-130"/>
      <point x="-639" y="-140" type="curve"/>
      <point x="-639" y="-548" type="line"/>
      <point x="-604" y="-580" type="line"/>
      <point x="-578" y="-574"/>
      <point x="-506" y="-552"/>
    </contour>
    <contour>
      <point x="-558" y="-600" type="move" name="L"/>
    </contour>
    <contour>
      <point x="-558" y="-100" type="move" name="_L"/>
    </contour>
  </outline>
</glyph>
<glyph name="CombCaronBlw" format="1">
  <advance width="0"/>
  <unicode hex="032C"/>
  <outline>
    <contour>
      <point x="-201" y="-184" type="line"/>
      <point x="-217" y="-159"/>
      <point x="-241" y="-119"/>
      <point x="-264" y="-109" type="curve"/>
      <point x="-548" y="-257" type="line"/>
      <point x="-829" y="-109" type="line"/>
      <point x="-851" y="-119"/>
      <point x="-885" y="-159"/>
      <point x="-904" y="-184" type="curve"/>
      <point x="-620" y="-503" type="line"/>
      <point x="-473" y="-503" type="line"/>
    </contour>
    <contour>
      <point x="-547" y="-600" type="move" name="L"/>
    </contour>
    <contour>
      <point x="-547" y="-100" type="move" name="_L"/>
    </contour>
  </outline>
</glyph>
<glyph name="CombCircumBlw" format="1">
  <advance width="0"/>
  <unicode hex="032D"/>
  <outline>
    <contour>
      <point x="-201" y="-428" type="curve"/>
      <point x="-473" y="-109" type="line"/>
      <point x="-620" y="-109" type="line"/>
      <point x="-904" y="-428" type="line"/>
      <point x="-885" y="-453"/>
      <point x="-851" y="-493"/>
      <point x="-829" y="-503" type="curve"/>
      <point x="-548" y="-355" type="line"/>
      <point x="-264" y="-503" type="line"/>
      <point x="-241" y="-493"/>
      <point x="-217" y="-453"/>
    </contour>
    <contour>
      <point x="-547" y="-600" type="move" name="L"/>
    </contour>
    <contour>
      <point x="-547" y="-100" type="move" name="_L"/>
    </contour>
  </outline>
</glyph>
<glyph name="CombLowLine" format="1">
  <advance width="0"/>
  <unicode hex="0332"/>
  <outline>
    <contour>
      <point x="93" y="-222" type="curve"/>
      <point x="58" y="-188" type="line"/>
      <point x="-1053" y="-188" type="line"/>
      <point x="-1065" y="-214"/>
      <point x="-1107" y="-299"/>
      <point x="-1114" y="-328" type="curve"/>
      <point x="-1079" y="-362" type="line"/>
      <point x="32" y="-362" type="line"/>
      <point x="42" y="-340"/>
      <point x="85" y="-251"/>
    </contour>
    <contour>
      <point x="-515" y="-600" type="move" name="L"/>
    </contour>
    <contour>
      <point x="-515" y="-100" type="move" name="_L"/>
    </contour>
  </outline>
</glyph>
<glyph name="CombShortStrkOverlay" format="1">
  <advance width="0"/>
  <unicode hex="0335"/>
  <outline>
    <contour>
      <point x="-149" y="513" type="curve"/>
      <point x="-184" y="547" type="line"/>
      <point x="-816" y="547" type="line"/>
      <point x="-829" y="520"/>
      <point x="-870" y="434"/>
      <point x="-877" y="407" type="curve"/>
      <point x="-842" y="373" type="line"/>
      <point x="-210" y="373" type="line"/>
      <point x="-198" y="399"/>
      <point x="-156" y="487"/>
    </contour>
  </outline>
</glyph>
<glyph name="CombInvBridgeBlw" format="1">
  <advance width="0"/>
  <unicode hex="033A"/>
  <outline>
    <contour>
      <point x="-388" y="-355" type="line"/>
      <point x="-717" y="-355" type="line"/>
      <point x="-717" y="-165" type="line"/>
      <point x="-741" y="-141" type="line"/>
      <point x="-768" y="-149"/>
      <point x="-818" y="-179"/>
      <point x="-836" y="-199" type="curve"/>
      <point x="-836" y="-450" type="line"/>
      <point x="-813" y="-474" type="line"/>
      <point x="-354" y="-474" type="line"/>
      <point x="-328" y="-460"/>
      <point x="-287" y="-428"/>
      <point x="-269" y="-410" type="curve"/>
      <point x="-269" y="-166" type="line"/>
      <point x="-294" y="-141" type="line"/>
      <point x="-319" y="-154"/>
      <point x="-371" y="-180"/>
      <point x="-388" y="-197" type="curve"/>
    </contour>
    <contour>
      <point x="-554" y="-600" type="move" name="L"/>
    </contour>
    <contour>
      <point x="-554" y="-100" type="move" name="_L"/>
    </contour>
  </outline>
</glyph>
<glyph name="CombSqrBlw" format="1">
  <advance width="0"/>
  <unicode hex="033B"/>
  <outline>
    <contour>
      <point x="-743" y="-471" type="line"/>
      <point x="-716" y="-500" type="line"/>
      <point x="-426" y="-500" type="line"/>
      <point x="-400" y="-486"/>
      <point x="-371" y="-462"/>
      <point x="-353" y="-444" type="curve"/>
      <point x="-353" y="-159" type="line"/>
      <point x="-380" y="-130" type="line"/>
      <point x="-670" y="-130" type="line"/>
      <point x="-696" y="-144"/>
      <point x="-725" y="-172"/>
      <point x="-743" y="-190" type="curve"/>
    </contour>
    <contour>
      <point x="-463" y="-240" type="line"/>
      <point x="-463" y="-390" type="line"/>
      <point x="-633" y="-390" type="line"/>
      <point x="-633" y="-240" type="line"/>
    </contour>
    <contour>
      <point x="-548" y="-600" type="move" name="L"/>
    </contour>
    <contour>
      <point x="-548" y="-100" type="move" name="_L"/>
    </contour>
  </outline>
</glyph>
<glyph name="CombGrYpo" format="1">
  <advance width="0"/>
  <unicode hex="0345"/>
  <outline>
    <component base="GrYpo"/>
    <contour>
      <point x="-533" y="-100" type="move" name="_L"/>
    </contour>
  </outline>
</glyph>
<glyph name="CombDblVertLineBlw" format="1">
  <advance width="0"/>
  <unicode hex="0348"/>
  <outline>
    <contour>
      <point x="-596" y="-539" type="curve"/>
      <point x="-596" y="-134" type="line"/>
      <point x="-633" y="-100" type="line"/>
      <point x="-659" y="-106"/>
      <point x="-733" y="-130"/>
      <point x="-756" y="-140" type="curve"/>
      <point x="-756" y="-548" type="line"/>
      <point x="-721" y="-580" type="line"/>
      <point x="-695" y="-574"/>
      <point x="-623" y="-552"/>
    </contour>
    <contour>
      <point x="-346" y="-539" type="curve"/>
      <point x="-346" y="-134" type="line"/>
      <point x="-383" y="-100" type="line"/>
      <point x="-409" y="-106"/>
      <point x="-483" y="-130"/>
      <point x="-506" y="-140" type="curve"/>
      <point x="-506" y="-548" type="line"/>
      <point x="-471" y="-580" type="line"/>
      <point x="-445" y="-574"/>
      <point x="-373" y="-552"/>
    </contour>
    <contour>
      <point x="-558" y="-600" type="move" name="L"/>
    </contour>
    <contour>
      <point x="-558" y="-100" type="move" name="_L"/>
    </contour>
  </outline>
</glyph>
<glyph name="CombUpArrwBlw" format="1">
  <advance width="0"/>
  <unicode hex="034E"/>
  <outline>
    <contour>
      <point x="-488" y="-478" type="curve"/>
      <point x="-488" y="-265" type="line"/>
      <point x="-346" y="-351" type="line"/>
      <point x="-310" y="-278" type="line"/>
      <point x="-547" y="-90" type="line"/>
      <point x="-789" y="-278" type="line"/>
      <point x="-753" y="-351" type="line"/>
      <point x="-608" y="-265" type="line"/>
      <point x="-608" y="-488" type="line"/>
      <point x="-574" y="-517" type="line"/>
      <point x="-548" y="-509"/>
      <point x="-515" y="-494"/>
    </contour>
    <contour>
      <point x="-550" y="-600" type="move" name="L"/>
    </contour>
    <contour>
      <point x="-550" y="-100" type="move" name="_L"/>
    </contour>
  </outline>
</glyph>
<glyph name="CombDblBreveBlw" format="1">
  <advance width="0"/>
  <unicode hex="035C"/>
  <outline>
    <contour>
      <point x="-848" y="-515" type="curve"/>
      <point x="-671" y="-730"/>
      <point x="-359" y="-845"/>
      <point x="-3" y="-845" type="curve" smooth="yes"/>
      <point x="382" y="-845"/>
      <point x="671" y="-730"/>
      <point x="848" y="-515" type="curve"/>
      <point x="821" y="-491"/>
      <point x="775" y="-460"/>
      <point x="737" y="-450" type="curve"/>
      <point x="604" y="-562"/>
      <point x="316" y="-640"/>
      <point x="4" y="-643" type="curve" smooth="yes"/>
      <point x="-308" y="-646"/>
      <point x="-607" y="-562"/>
      <point x="-737" y="-450" type="curve"/>
      <point x="-776" y="-460"/>
      <point x="-821" y="-491"/>
    </contour>
    <contour>
      <point x="0" y="-840" type="move" name="L"/>
    </contour>
  </outline>
</glyph>
<glyph name="CombDblBreve" format="1">
  <advance width="0"/>
  <unicode hex="035D"/>
  <outline>
    <contour>
      <point x="-848" y="1905" type="curve"/>
      <point x="-671" y="1690"/>
      <point x="-359" y="1575"/>
      <point x="-3" y="1575" type="curve" smooth="yes"/>
      <point x="382" y="1575"/>
      <point x="671" y="1690"/>
      <point x="848" y="1905" type="curve"/>
      <point x="821" y="1929"/>
      <point x="775" y="1960"/>
      <point x="737" y="1970" type="curve"/>
      <point x="604" y="1858"/>
      <point x="316" y="1780"/>
      <point x="4" y="1777" type="curve" smooth="yes"/>
      <point x="-308" y="1774"/>
      <point x="-607" y="1858"/>
      <point x="-737" y="1970" type="curve"/>
      <point x="-776" y="1960"/>
      <point x="-821" y="1929"/>
    </contour>
    <contour>
      <point x="0" y="1930" type="move" name="U"/>
    </contour>
  </outline>
</glyph>
<glyph name="CombLtnSmI" format="1">
  <advance width="0"/>
  <unicode hex="0365"/>
  <outline>
    <contour>
      <point x="-442" y="1632" type="curve" smooth="yes"/>
      <point x="-442" y="1671"/>
      <point x="-465" y="1706"/>
      <point x="-511" y="1706" type="curve" smooth="yes"/>
      <point x="-561" y="1706"/>
      <point x="-604" y="1660"/>
      <point x="-604" y="1610" type="curve" smooth="yes"/>
      <point x="-604" y="1572"/>
      <point x="-578" y="1542"/>
      <point x="-531" y="1542" type="curve" smooth="yes"/>
      <point x="-482" y="1542"/>
      <point x="-442" y="1587"/>
    </contour>
    <contour>
      <point x="-391" y="1059" type="line"/>
      <point x="-391" y="1121" type="line"/>
      <point x="-437" y="1126"/>
      <point x="-457" y="1138"/>
      <point x="-457" y="1143" type="curve" smooth="yes"/>
      <point x="-457" y="1500" type="line"/>
      <point x="-505" y="1500" type="line"/>
      <point x="-539" y="1485"/>
      <point x="-623" y="1470"/>
      <point x="-667" y="1462" type="curve"/>
      <point x="-667" y="1401" type="line"/>
      <point x="-601" y="1396"/>
      <point x="-601" y="1388"/>
      <point x="-601" y="1336" type="curve" smooth="yes"/>
      <point x="-601" y="1143" type="line" smooth="yes"/>
      <point x="-601" y="1138"/>
      <point x="-625" y="1127"/>
      <point x="-667" y="1121" type="curve"/>
      <point x="-667" y="1059" type="line"/>
    </contour>
    <contour>
      <point x="-528" y="1750" type="move" name="U"/>
    </contour>
    <contour>
      <point x="-528" y="1050" type="move" name="_U"/>
    </contour>
  </outline>
</glyph>
<glyph name="GrCapYot" format="1">
  <advance width="705"/>
  <unicode hex="037F"/>
  <outline>
    <component base="LtnCapJ"/>
    <contour>
      <point x="362" y="1370" type="move" name="U"/>
    </contour>
    <contour>
      <point x="362" y="-600" type="move" name="L"/>
    </contour>
  </outline>
</glyph>
<glyph name="GrCapGamma" format="1">
  <advance width="1059"/>
  <unicode hex="0393"/>
  <outline>
    <contour>
      <point x="1027" y="1225" type="curve"/>
      <point x="986" y="1260" type="line"/>
      <point x="432" y="1260" type="line"/>
      <point x="403" y="1130" type="line"/>
      <point x="809" y="1130" type="line" smooth="yes"/>
      <point x="860" y="1130"/>
      <point x="878" y="993"/>
      <point x="882" y="850" type="curve"/>
      <point x="969" y="850" type="line"/>
      <point x="991" y="921"/>
      <point x="1025" y="1157"/>
    </contour>
    <contour>
      <point x="640" y="0" type="line"/>
      <point x="640" y="83" type="line"/>
      <point x="509" y="108"/>
      <point x="455" y="128"/>
      <point x="455" y="144" type="curve" smooth="yes"/>
      <point x="455" y="1137" type="line" smooth="yes"/>
      <point x="455" y="1155"/>
      <point x="510" y="1158"/>
      <point x="600" y="1177" type="curve"/>
      <point x="600" y="1260" type="line"/>
      <point x="432" y="1260" type="line"/>
      <point x="40" y="1260" type="line"/>
      <point x="40" y="1177" type="line"/>
      <point x="136" y="1158"/>
      <point x="175" y="1131"/>
      <point x="175" y="1115" type="curve" smooth="yes"/>
      <point x="175" y="144" type="line" smooth="yes"/>
      <point x="175" y="126"/>
      <point x="130" y="101"/>
      <point x="40" y="83" type="curve"/>
      <point x="40" y="0" type="line"/>
    </contour>
    <contour>
      <point x="528" y="1370" type="move" name="U"/>
    </contour>
    <contour>
      <point x="528" y="-100" type="move" name="L"/>
    </contour>
  </outline>
</glyph>
<glyph name="GrSmBeta" format="1">
  <advance width="1180"/>
  <unicode hex="03B2"/>
  <outline>
    <contour>
      <point x="1120" y="470" type="curve" smooth="yes"/>
      <point x="1120" y="715"/>
      <point x="974" y="849"/>
      <point x="768" y="881" type="curve"/>
      <point x="950" y="960"/>
      <point x="995" y="1108"/>
      <point x="995" y="1224" type="curve" smooth="yes"/>
      <point x="995" y="1249" type="line"/>
      <point x="989" y="1435"/>
      <point x="829" y="1550"/>
      <point x="638" y="1550" type="curve" smooth="yes"/>
      <point x="207" y="1550"/>
      <point x="140" y="1142"/>
      <point x="140" y="747" type="curve" smooth="yes"/>
      <point x="140" y="-465" type="line"/>
      <point x="188" y="-509" type="line"/>
      <point x="244" y="-485"/>
      <point x="390" y="-448"/>
      <point x="451" y="-428" type="curve"/>
      <point x="412" y="-351"/>
      <point x="410" y="-297"/>
      <point x="410" y="9" type="curve" smooth="yes"/>
      <point x="410" y="67"/>
      <point x="410" y="137"/>
      <point x="410" y="219" type="curve" smooth="yes"/>
      <point x="410" y="383"/>
      <point x="410" y="596"/>
      <point x="410" y="864" type="curve" smooth="yes"/>
      <point x="410" y="1214"/>
      <point x="434" y="1409"/>
      <point x="574" y="1409" type="curve" smooth="yes"/>
      <point x="659" y="1409"/>
      <point x="745" y="1325"/>
      <point x="745" y="1196" type="curve" smooth="yes"/>
      <point x="745" y="1192" type="line" smooth="yes"/>
      <point x="745" y="1058"/>
      <point x="705" y="951"/>
      <point x="477" y="885" type="curve"/>
      <point x="484" y="765" type="line"/>
      <point x="508" y="765" type="line" smooth="yes"/>
      <point x="735" y="765"/>
      <point x="850" y="609"/>
      <point x="850" y="421" type="curve" smooth="yes"/>
      <point x="850" y="276"/>
      <point x="763" y="135"/>
      <point x="647" y="135" type="curve" smooth="yes"/>
      <point x="525" y="135"/>
      <point x="376" y="267"/>
      <point x="329" y="385" type="curve"/>
      <point x="267" y="227" type="line"/>
      <point x="352" y="113"/>
      <point x="535" y="-30"/>
      <point x="646" y="-30" type="curve" smooth="yes"/>
      <point x="780" y="-30"/>
      <point x="1120" y="106"/>
    </contour>
    <contour>
      <point x="583" y="1620" type="move" name="U"/>
    </contour>
    <contour>
      <point x="582" y="-600" type="move" name="L"/>
    </contour>
  </outline>
</glyph>
<glyph name="GrSmGamma" format="1">
  <advance width="1094"/>
  <unicode hex="03B3"/>
  <outline>
    <contour>
      <point x="1084" y="919" type="curve"/>
      <point x="1042" y="960" type="line"/>
      <point x="992" y="949"/>
      <point x="864" y="930"/>
      <point x="809" y="913" type="curve"/>
      <point x="789" y="598"/>
      <point x="668" y="343"/>
      <point x="541" y="33" type="curve"/>
      <point x="560" y="-10"/>
      <point x="661" y="-95"/>
      <point x="661" y="-95" type="curve"/>
      <point x="751" y="239"/>
      <point x="942" y="611"/>
    </contour>
    <contour>
      <point x="681" y="26" type="curve"/>
      <point x="635" y="415"/>
      <point x="396" y="960"/>
      <point x="311" y="960" type="curve"/>
      <point x="250" y="925"/>
      <point x="97" y="884"/>
      <point x="-10" y="879" type="curve"/>
      <point x="-9" y="799" type="line"/>
      <point x="-9" y="799"/>
      <point x="51" y="802"/>
      <point x="95" y="790" type="curve" smooth="yes"/>
      <point x="220" y="756"/>
      <point x="447" y="165"/>
      <point x="459" y="-30" type="curve" smooth="yes"/>
      <point x="461" y="-64"/>
      <point x="426" y="-297"/>
      <point x="392" y="-471" type="curve"/>
      <point x="410" y="-484"/>
      <point x="431" y="-502"/>
      <point x="440" y="-510" type="curve"/>
      <point x="484" y="-493"/>
      <point x="640" y="-459"/>
      <point x="689" y="-441" type="curve"/>
      <point x="697" y="-314"/>
      <point x="686" y="-29"/>
    </contour>
    <contour>
      <point x="595" y="1050" type="move" name="U"/>
    </contour>
    <contour>
      <point x="534" y="-600" type="move" name="L"/>
    </contour>
  </outline>
</glyph>
<glyph name="GrSmLamda" format="1">
  <advance width="1168"/>
  <unicode hex="03BB"/>
  <outline>
    <contour>
      <point x="1193" y="152" type="curve"/>
      <point x="1163" y="237" type="line"/>
      <point x="1097" y="197"/>
      <point x="1060" y="180"/>
      <point x="1018" y="180" type="curve" smooth="yes"/>
      <point x="944" y="180"/>
      <point x="869" y="373"/>
      <point x="762" y="768" type="curve" smooth="yes"/>
      <point x="577" y="1453"/>
      <point x="544" y="1510"/>
      <point x="411" y="1510" type="curve" smooth="yes"/>
      <point x="306" y="1510"/>
      <point x="149" y="1400"/>
      <point x="45" y="1294" type="curve"/>
      <point x="86" y="1214" type="line"/>
      <point x="168" y="1270"/>
      <point x="220" y="1285"/>
      <point x="247" y="1285" type="curve" smooth="yes"/>
      <point x="289" y="1285"/>
      <point x="376" y="1285"/>
      <point x="522" y="743" type="curve" smooth="yes"/>
      <point x="696" y="95"/>
      <point x="731" y="-30"/>
      <point x="837" y="-30" type="curve" smooth="yes"/>
      <point x="952" y="-30"/>
      <point x="1073" y="62"/>
    </contour>
    <contour>
      <point x="558" y="872" type="curve"/>
      <point x="553" y="892"/>
      <point x="505" y="1045"/>
      <point x="477" y="1070" type="curve"/>
      <point x="399" y="791"/>
      <point x="213" y="283"/>
      <point x="0" y="12" type="curve"/>
      <point x="49" y="-30" type="line"/>
      <point x="96" y="-16"/>
      <point x="227" y="11"/>
      <point x="279" y="17" type="curve"/>
      <point x="389" y="362"/>
      <point x="455" y="592"/>
    </contour>
    <contour>
      <point x="556" y="1690" type="move" name="U"/>
    </contour>
    <contour>
      <point x="556" y="-100" type="move" name="L"/>
    </contour>
  </outline>
</glyph>
<glyph name="GrSmPhi" format="1">
  <advance width="1387"/>
  <unicode hex="03C6"/>
  <outline>
    <contour>
      <point x="941" y="960" type="curve" smooth="yes"/>
      <point x="749" y="960"/>
      <point x="586" y="824"/>
      <point x="585" y="455" type="curve"/>
      <point x="581" y="184"/>
      <point x="561" y="-287"/>
      <point x="548" y="-446" type="curve"/>
      <point x="561" y="-460"/>
      <point x="587" y="-476"/>
      <point x="601" y="-484" type="curve"/>
      <point x="653" y="-462"/>
      <point x="775" y="-433"/>
      <point x="824" y="-416" type="curve"/>
      <point x="808" y="-245"/>
      <point x="803" y="293"/>
      <point x="800" y="476" type="curve"/>
      <point x="800" y="527" type="line" smooth="yes"/>
      <point x="800" y="753"/>
      <point x="811" y="823"/>
      <point x="877" y="823" type="curve" smooth="yes"/>
      <point x="940" y="823"/>
      <point x="1067" y="726"/>
      <point x="1067" y="491" type="curve" smooth="yes"/>
      <point x="1067" y="280"/>
      <point x="970" y="100"/>
      <point x="703" y="100" type="curve" smooth="yes"/>
      <point x="430" y="100"/>
      <point x="328" y="280"/>
      <point x="328" y="487" type="curve" smooth="yes"/>
      <point x="328" y="632"/>
      <point x="392" y="801"/>
      <point x="574" y="890" type="curve"/>
      <point x="570" y="903"/>
      <point x="553" y="948"/>
      <point x="543" y="964" type="curve"/>
      <point x="135" y="871"/>
      <point x="60" y="605"/>
      <point x="60" y="448" type="curve" smooth="yes"/>
      <point x="60" y="225"/>
      <point x="217" y="-30"/>
      <point x="672" y="-30" type="curve" smooth="yes"/>
      <point x="1037" y="-30"/>
      <point x="1327" y="186"/>
      <point x="1327" y="570" type="curve" smooth="yes"/>
      <point x="1327" y="767"/>
      <point x="1176" y="960"/>
    </contour>
  </outline>
</glyph>
<glyph name="GrUpsilonWHookSym" format="1">
  <advance width="1350"/>
  <unicode hex="03D2"/>
  <outline>
    <contour>
      <point x="1335" y="1005" type="curve"/>
      <point x="1364" y="1190"/>
      <point x="1247" y="1290"/>
      <point x="1123" y="1290" type="curve" smooth="yes"/>
      <point x="978" y="1290"/>
      <point x="891" y="1205"/>
      <point x="830" y="1097" type="curve" smooth="yes"/>
      <point x="762" y="977"/>
      <point x="715" y="869"/>
      <point x="657" y="701" type="curve"/>
      <point x="604" y="882"/>
      <point x="534" y="1067"/>
      <point x="432" y="1196" type="curve" smooth="yes"/>
      <point x="399" y="1238"/>
      <point x="354" y="1290"/>
      <point x="299" y="1290" type="curve" smooth="yes"/>
      <point x="244" y="1290"/>
      <point x="18" y="1280"/>
      <point x="-60" y="1270" type="curve"/>
      <point x="-51" y="1187" type="line"/>
      <point x="60" y="1187"/>
      <point x="147" y="1126"/>
      <point x="200" y="1042" type="curve" smooth="yes"/>
      <point x="300" y="889"/>
      <point x="444" y="598"/>
      <point x="444" y="291" type="curve" smooth="yes"/>
      <point x="444" y="155" type="line" smooth="yes"/>
      <point x="444" y="136"/>
      <point x="411" y="108"/>
      <point x="290" y="83" type="curve"/>
      <point x="290" y="0" type="line"/>
      <point x="880" y="0" type="line"/>
      <point x="880" y="83" type="line"/>
      <point x="755" y="108"/>
      <point x="724" y="138"/>
      <point x="724" y="155" type="curve" smooth="yes"/>
      <point x="724" y="291" type="line" smooth="yes"/>
      <point x="724" y="563"/>
      <point x="834" y="835"/>
      <point x="898" y="956" type="curve" smooth="yes"/>
      <point x="943" y="1041"/>
      <point x="979" y="1064"/>
      <point x="1012" y="1064" type="curve" smooth="yes"/>
      <point x="1053" y="1064"/>
      <point x="1073" y="1002"/>
      <point x="1052" y="923" type="curve"/>
      <point x="1082" y="883" type="line"/>
      <point x="1146" y="904"/>
      <point x="1281" y="967"/>
    </contour>
    <contour>
      <point x="604" y="1370" type="move" name="U"/>
    </contour>
  </outline>
</glyph>
<glyph name="GrArchaicKoppa" format="1">
  <advance width="1160"/>
  <unicode hex="03D8"/>
  <outline>
    <contour>
      <point x="837" y="0" type="line"/>
      <point x="837" y="83" type="line"/>
      <point x="741" y="101"/>
      <point x="702" y="128"/>
      <point x="702" y="144" type="curve" smooth="yes"/>
      <point x="702" y="355" type="line" smooth="yes"/>
      <point x="702" y="433"/>
      <point x="442" y="434"/>
      <point x="442" y="355" type="curve" smooth="yes"/>
      <point x="442" y="144" type="line" smooth="yes"/>
      <point x="442" y="126"/>
      <point x="397" y="101"/>
      <point x="307" y="83" type="curve"/>
      <point x="307" y="0" type="line"/>
    </contour>
    <contour>
      <point x="1070" y="825" type="curve" smooth="yes"/>
      <point x="1070" y="1098"/>
      <point x="864" y="1290"/>
      <point x="590" y="1290" type="curve" smooth="yes"/>
      <point x="307" y="1290"/>
      <point x="70" y="1049"/>
      <point x="70" y="784" type="curve" smooth="yes"/>
      <point x="70" y="512"/>
      <point x="290" y="320"/>
      <point x="541" y="320" type="curve" smooth="yes"/>
      <point x="827" y="320"/>
      <point x="1070" y="559"/>
    </contour>
    <contour>
      <point x="795" y="795" type="curve" smooth="yes"/>
      <point x="795" y="567"/>
      <point x="698" y="450"/>
      <point x="599" y="450" type="curve" smooth="yes"/>
      <point x="470" y="450"/>
      <point x="345" y="602"/>
      <point x="345" y="813" type="curve" smooth="yes"/>
      <point x="345" y="1026"/>
      <point x="427" y="1160"/>
      <point x="551" y="1160" type="curve" smooth="yes"/>
      <point x="688" y="1160"/>
      <point x="795" y="1006"/>
    </contour>
    <contour>
      <point x="572" y="1370" type="move" name="U"/>
    </contour>
    <contour>
      <point x="572" y="-100" type="move" name="L"/>
    </contour>
    <contour>
      <point x="1143" y="1250" type="move" name="R"/>
    </contour>
    <contour>
      <point x="633" y="0" type="move" name="O"/>
    </contour>
  </outline>
</glyph>
<glyph name="CyCapIeGrave" format="1">
  <advance width="1016"/>
  <unicode hex="0400"/>
  <outline>
    <component base="CyCapIe"/>
    <component base="CombGrave.LP" xOffset="968" yOffset="320"/>
    <contour>
      <point x="502" y="1690" type="move" name="U"/>
    </contour>
    <contour>
      <point x="502" y="-100" type="move" name="L"/>
    </contour>
  </outline>
</glyph>
<glyph name="CyCapByelorusUkrainI" format="1">
  <advance width="690"/>
  <unicode hex="0406"/>
  <outline>
    <component base="LtnCapI"/>
    <contour>
      <point x="335" y="0" type="move" name="H"/>
    </contour>
    <contour>
      <point x="396" y="0" type="move" name="O"/>
    </contour>
    <contour>
      <point x="608" y="1100" type="move" name="R"/>
    </contour>
    <contour>
      <point x="335" y="1370" type="move" name="U"/>
    </contour>
    <contour>
      <point x="335" y="-100" type="move" name="L"/>
    </contour>
  </outline>
</glyph>
<glyph name="CyCapYi" format="1">
  <advance width="690"/>
  <unicode hex="0407"/>
  <outline>
    <component base="LtnCapI"/>
    <component base="CombDiaer.LP" xOffset="883" yOffset="320"/>
    <contour>
      <point x="335" y="0" type="move" name="H"/>
    </contour>
    <contour>
      <point x="608" y="1100" type="move" name="R"/>
    </contour>
    <contour>
      <point x="335" y="1690" type="move" name="U"/>
    </contour>
    <contour>
      <point x="335" y="-100" type="move" name="L"/>
    </contour>
    <contour>
      <point x="396" y="0" type="move" name="O"/>
    </contour>
  </outline>
</glyph>
<glyph name="CyCapLje" format="1">
  <advance width="1774"/>
  <unicode hex="0409"/>
  <outline>
    <contour>
      <point x="562" y="1170" type="curve"/>
      <point x="562" y="1170"/>
      <point x="883" y="1170"/>
      <point x="883" y="1170" type="curve"/>
      <point x="883" y="104" type="line" smooth="yes"/>
      <point x="883" y="86"/>
      <point x="828" y="61"/>
      <point x="738" y="43" type="curve"/>
      <point x="738" y="0" type="line"/>
      <point x="1188" y="0" type="line"/>
      <point x="1188" y="43" type="line"/>
      <point x="1091" y="61"/>
      <point x="1043" y="88"/>
      <point x="1043" y="104" type="curve" smooth="yes"/>
      <point x="1043" y="1155" type="line" smooth="yes"/>
      <point x="1043" y="1174"/>
      <point x="1097" y="1198"/>
      <point x="1188" y="1217" type="curve"/>
      <point x="1188" y="1260" type="line"/>
      <point x="288" y="1260" type="line"/>
      <point x="288" y="1217" type="line"/>
      <point x="402" y="1197"/>
      <point x="464" y="1180"/>
      <point x="473" y="1165" type="curve"/>
      <point x="520" y="1129" type="line"/>
      <point x="523" y="1158"/>
      <point x="562" y="1170"/>
    </contour>
    <contour>
      <point x="1684" y="356" type="curve" smooth="yes"/>
      <point x="1684" y="581"/>
      <point x="1519" y="739"/>
      <point x="1227" y="739" type="curve" smooth="yes"/>
      <point x="1126" y="739"/>
      <point x="1029" y="725"/>
      <point x="959" y="705" type="curve"/>
      <point x="969" y="627" type="line"/>
      <point x="1033" y="637"/>
      <point x="1100" y="649"/>
      <point x="1188" y="649" type="curve" smooth="yes"/>
      <point x="1420" y="649"/>
      <point x="1520" y="469"/>
      <point x="1520" y="322" type="curve" smooth="yes"/>
      <point x="1520" y="172"/>
      <point x="1397" y="70"/>
      <point x="1205" y="70" type="curve" smooth="yes"/>
      <point x="1145" y="70"/>
      <point x="1074" y="76"/>
      <point x="1033" y="98" type="curve"/>
      <point x="791" y="0" type="line"/>
      <point x="791" y="0"/>
      <point x="1110" y="-14"/>
      <point x="1227" y="-14" type="curve" smooth="yes"/>
      <point x="1497" y="-14"/>
      <point x="1684" y="129"/>
    </contour>
    <contour>
      <point x="585" y="1199" type="curve"/>
      <point x="573" y="1198"/>
      <point x="486" y="1211"/>
      <point x="474" y="1209" type="curve"/>
      <point x="441" y="593"/>
      <point x="328" y="172"/>
      <point x="202" y="172" type="curve" smooth="yes"/>
      <point x="162" y="172"/>
      <point x="127" y="214"/>
      <point x="114" y="309" type="curve"/>
      <point x="71" y="320" type="line"/>
      <point x="52" y="243"/>
      <point x="34" y="32"/>
      <point x="54" y="20" type="curve" smooth="yes"/>
      <point x="81" y="4"/>
      <point x="125" y="-20"/>
      <point x="178" y="-20" type="curve" smooth="yes"/>
      <point x="436" y="-20"/>
      <point x="546" y="489"/>
    </contour>
    <contour>
      <point x="760" y="1370" type="move" name="U"/>
    </contour>
    <contour>
      <point x="888" y="-100" type="move" name="L"/>
    </contour>
  </outline>
</glyph>
<glyph name="CyCapKje" format="1">
  <advance width="1220"/>
  <unicode hex="040C"/>
  <outline>
    <component base="CyCapKa"/>
    <component base="CombAcute.LP" xOffset="1216" yOffset="320"/>
    <contour>
      <point x="640" y="1690" type="move" name="U"/>
    </contour>
    <contour>
      <point x="640" y="-100" type="move" name="L"/>
    </contour>
  </outline>
</glyph>
<glyph name="CyCapIGrave" format="1">
  <advance width="1360"/>
  <unicode hex="040D"/>
  <outline>
    <component base="CyCapI"/>
    <component base="CombGrave.LP" xOffset="1136" yOffset="320"/>
    <contour>
      <point x="670" y="1690" type="move" name="U"/>
    </contour>
    <contour>
      <point x="670" y="-100" type="move" name="L"/>
    </contour>
  </outline>
</glyph>
<glyph name="CyCapEm" format="1">
  <advance width="1570"/>
  <unicode hex="041C"/>
  <outline>
    <contour>
      <point x="1490" y="0" type="line"/>
      <point x="1490" y="43" type="line"/>
      <point x="1394" y="61"/>
      <point x="1345" y="88"/>
      <point x="1345" y="104" type="curve" smooth="yes"/>
      <point x="1345" y="1214" type="line"/>
      <point x="1190" y="1157" type="line"/>
      <point x="1190" y="104" type="line" smooth="yes"/>
      <point x="1190" y="86"/>
      <point x="1125" y="61"/>
      <point x="1035" y="43" type="curve"/>
      <point x="1035" y="0" type="line"/>
    </contour>
    <contour>
      <point x="1470" y="1217" type="curve"/>
      <point x="1470" y="1260" type="line"/>
      <point x="1184" y="1260" type="line" smooth="yes"/>
      <point x="1159" y="1260"/>
      <point x="1155" y="1255"/>
      <point x="1120" y="1176" type="curve" smooth="yes"/>
      <point x="773" y="262" type="line" smooth="yes"/>
      <point x="755" y="219"/>
      <point x="748" y="168"/>
      <point x="779" y="0" type="curve"/>
      <point x="783" y="0" type="line"/>
      <point x="1198" y="1087" type="line" smooth="yes"/>
      <point x="1217" y="1136"/>
      <point x="1380" y="1217"/>
    </contour>
    <contour>
      <point x="783" y="264" type="curve"/>
      <point x="420" y="1176" type="line" smooth="yes"/>
      <point x="387" y="1247"/>
      <point x="383" y="1260"/>
      <point x="356" y="1260" type="curve" smooth="yes"/>
      <point x="70" y="1260" type="line"/>
      <point x="70" y="1217" type="line"/>
      <point x="143" y="1217"/>
      <point x="266" y="1182"/>
      <point x="317" y="1061" type="curve" smooth="yes"/>
      <point x="734" y="0" type="line"/>
      <point x="779" y="0" type="line"/>
      <point x="812" y="168"/>
      <point x="802" y="223"/>
    </contour>
    <contour>
      <point x="465" y="0" type="line"/>
      <point x="465" y="43" type="line"/>
      <point x="369" y="61"/>
      <point x="320" y="88"/>
      <point x="320" y="104" type="curve" smooth="yes"/>
      <point x="320" y="1221" type="line"/>
      <point x="205" y="1196" type="line"/>
      <point x="205" y="104" type="line" smooth="yes"/>
      <point x="205" y="86"/>
      <point x="151" y="61"/>
      <point x="60" y="43" type="curve"/>
      <point x="60" y="0" type="line"/>
    </contour>
    <contour>
      <point x="775" y="1370" type="move" name="U"/>
    </contour>
    <contour>
      <point x="775" y="-100" type="move" name="L"/>
    </contour>
  </outline>
</glyph>
<glyph name="CyCapSoftSgn" format="1">
  <advance width="1106"/>
  <unicode hex="042C"/>
  <outline>
    <contour>
      <point x="1016" y="356" type="curve"/>
      <point x="1016" y="581"/>
      <point x="851" y="740"/>
      <point x="559" y="740" type="curve" smooth="yes"/>
      <point x="458" y="740"/>
      <point x="361" y="725"/>
      <point x="291" y="705" type="curve"/>
      <point x="301" y="627" type="line"/>
      <point x="365" y="637"/>
      <point x="432" y="650"/>
      <point x="520" y="650" type="curve" smooth="yes"/>
      <point x="752" y="650"/>
      <point x="852" y="469"/>
      <point x="852" y="322" type="curve" smooth="yes"/>
      <point x="852" y="172"/>
      <point x="729" y="70"/>
      <point x="537" y="70" type="curve" smooth="yes"/>
      <point x="477" y="70"/>
      <point x="386" y="76"/>
      <point x="345" y="98" type="curve"/>
      <point x="123" y="0" type="line"/>
      <point x="123" y="0"/>
      <point x="442" y="-14"/>
      <point x="559" y="-14" type="curve" smooth="yes"/>
      <point x="829" y="-14"/>
      <point x="1016" y="129"/>
    </contour>
    <contour>
      <point x="500" y="0" type="line"/>
      <point x="500" y="43" type="line"/>
      <point x="404" y="61"/>
      <point x="355" y="88"/>
      <point x="355" y="104" type="curve" smooth="yes"/>
      <point x="355" y="1155" type="line" smooth="yes"/>
      <point x="355" y="1174"/>
      <point x="440" y="1198"/>
      <point x="530" y="1217" type="curve"/>
      <point x="530" y="1260" type="line"/>
      <point x="50" y="1260" type="line"/>
      <point x="50" y="1217" type="line"/>
      <point x="146" y="1198"/>
      <point x="195" y="1171"/>
      <point x="195" y="1155" type="curve" smooth="yes"/>
      <point x="195" y="104" type="line" smooth="yes"/>
      <point x="195" y="86"/>
      <point x="140" y="61"/>
      <point x="50" y="43" type="curve"/>
      <point x="50" y="0" type="line"/>
    </contour>
    <contour>
      <point x="533" y="1370" type="move" name="U"/>
    </contour>
    <contour>
      <point x="533" y="-100" type="move" name="L"/>
    </contour>
  </outline>
</glyph>
<glyph name="CySmZe" format="1">
  <advance width="861"/>
  <unicode hex="0437"/>
  <outline>
    <contour>
      <point x="778" y="291" type="curve"/>
      <point x="778" y="404"/>
      <point x="697" y="482"/>
      <point x="591" y="513" type="curve"/>
      <point x="691" y="569"/>
      <point x="734" y="644"/>
      <point x="734" y="732" type="curve" smooth="yes"/>
      <point x="734" y="893"/>
      <point x="575" y="960"/>
      <point x="429" y="960" type="curve" smooth="yes"/>
      <point x="337" y="960"/>
      <point x="213" y="939"/>
      <point x="114" y="882" type="curve" smooth="yes"/>
      <point x="105" y="877"/>
      <point x="116" y="696"/>
      <point x="135" y="654" type="curve"/>
      <point x="177" y="660" type="line"/>
      <point x="200" y="807"/>
      <point x="257" y="870"/>
      <point x="392" y="870" type="curve" smooth="yes"/>
      <point x="499" y="870"/>
      <point x="594" y="800"/>
      <point x="594" y="700" type="curve" smooth="yes"/>
      <point x="594" y="622"/>
      <point x="541" y="534"/>
      <point x="401" y="534" type="curve" smooth="yes"/>
      <point x="361" y="534"/>
      <point x="315" y="543"/>
      <point x="279" y="558" type="curve"/>
      <point x="230" y="429" type="line"/>
      <point x="248" y="409" type="line"/>
      <point x="272" y="421"/>
      <point x="343" y="450"/>
      <point x="409" y="450" type="curve" smooth="yes"/>
      <point x="501" y="450"/>
      <point x="618" y="393"/>
      <point x="618" y="255" type="curve" smooth="yes"/>
      <point x="618" y="144"/>
      <point x="561" y="70"/>
      <point x="426" y="70" type="curve" smooth="yes"/>
      <point x="288" y="70"/>
      <point x="168" y="135"/>
      <point x="156" y="272" type="curve"/>
      <point x="113" y="283" type="line"/>
      <point x="91" y="194"/>
      <point x="91" y="56"/>
      <point x="106" y="43" type="curve"/>
      <point x="168" y="9"/>
      <point x="258" y="-30"/>
      <point x="383" y="-30" type="curve" smooth="yes"/>
      <point x="623" y="-30"/>
      <point x="778" y="113"/>
    </contour>
    <contour>
      <point x="418" y="1050" type="move" name="U"/>
    </contour>
    <contour>
      <point x="418" y="-100" type="move" name="L"/>
    </contour>
  </outline>
</glyph>
<glyph name="CySmU" format="1">
  <advance width="1030"/>
  <unicode hex="0443"/>
  <outline>
    <contour>
      <point x="1009" y="887" type="curve"/>
      <point x="1009" y="930" type="line"/>
      <point x="675" y="930" type="line"/>
      <point x="675" y="887" type="line" smooth="yes"/>
      <point x="774" y="872"/>
      <point x="804" y="860"/>
      <point x="790" y="819" type="curve"/>
      <point x="559" y="182" type="line"/>
      <point x="313" y="819" type="line"/>
      <point x="296" y="862"/>
      <point x="323" y="874"/>
      <point x="426" y="887" type="curve"/>
      <point x="426" y="930" type="line"/>
      <point x="40" y="930" type="line"/>
      <point x="40" y="887" type="line"/>
      <point x="106" y="872"/>
      <point x="139" y="856"/>
      <point x="151" y="819" type="curve"/>
      <point x="479" y="-23" type="line"/>
      <point x="450" y="-92" type="line" smooth="yes"/>
      <point x="403" y="-207"/>
      <point x="319" y="-314"/>
      <point x="270" y="-330" type="curve"/>
      <point x="221" y="-349"/>
      <point x="153" y="-349"/>
      <point x="90" y="-312" type="curve" smooth="yes"/>
      <point x="47" y="-338"/>
      <point x="-27" y="-431"/>
      <point x="-27" y="-447" type="curve" smooth="yes"/>
      <point x="-27" y="-472"/>
      <point x="45" y="-500"/>
      <point x="147" y="-500" type="curve" smooth="yes"/>
      <point x="280" y="-500"/>
      <point x="454" y="-377"/>
      <point x="565" y="-82" type="curve" smooth="yes"/>
      <point x="899" y="819" type="line"/>
      <point x="913" y="858"/>
      <point x="929" y="868"/>
    </contour>
    <contour>
      <point x="550" y="1050" type="move" name="U"/>
    </contour>
    <contour>
      <point x="770" y="-100" type="move" name="L"/>
    </contour>
  </outline>
</glyph>
<glyph name="CySmSoftSgn" format="1">
  <advance width="939"/>
  <unicode hex="044C"/>
  <outline>
    <contour>
      <point x="870" y="275" type="curve"/>
      <point x="870" y="442"/>
      <point x="727" y="540"/>
      <point x="496" y="540" type="curve" smooth="yes"/>
      <point x="413" y="540"/>
      <point x="332" y="529"/>
      <point x="275" y="515" type="curve"/>
      <point x="283" y="433" type="line"/>
      <point x="336" y="441"/>
      <point x="391" y="450"/>
      <point x="464" y="450" type="curve" smooth="yes"/>
      <point x="625" y="450"/>
      <point x="706" y="369"/>
      <point x="706" y="260" type="curve" smooth="yes"/>
      <point x="706" y="138"/>
      <point x="626" y="74"/>
      <point x="478" y="74" type="curve" smooth="yes"/>
      <point x="428" y="74"/>
      <point x="380" y="84"/>
      <point x="345" y="100" type="curve"/>
      <point x="136" y="0" type="line"/>
      <point x="136" y="0"/>
      <point x="399" y="-10"/>
      <point x="496" y="-10" type="curve" smooth="yes"/>
      <point x="749" y="-10"/>
      <point x="870" y="106"/>
    </contour>
    <contour>
      <point x="55" y="930" type="line"/>
      <point x="55" y="887" type="line"/>
      <point x="129" y="874"/>
      <point x="195" y="850"/>
      <point x="195" y="822" type="curve"/>
      <point x="195" y="99" type="line" smooth="yes"/>
      <point x="195" y="87"/>
      <point x="135" y="57"/>
      <point x="55" y="43" type="curve" smooth="yes"/>
      <point x="55" y="0" type="line"/>
      <point x="326" y="0" type="line"/>
      <point x="464" y="0" type="line"/>
      <point x="464" y="32" type="line"/>
      <point x="390" y="46"/>
      <point x="345" y="48"/>
      <point x="345" y="61" type="curve"/>
      <point x="345" y="822" type="line" smooth="yes"/>
      <point x="345" y="848"/>
      <point x="384" y="867"/>
      <point x="516" y="887" type="curve" smooth="yes"/>
      <point x="516" y="930" type="line"/>
    </contour>
    <contour>
      <point x="477" y="1050" type="move" name="U"/>
    </contour>
    <contour>
      <point x="477" y="-100" type="move" name="L"/>
    </contour>
  </outline>
</glyph>
<glyph name="CySmIeGrave" format="1">
  <advance width="946"/>
  <unicode hex="0450"/>
  <outline>
    <component base="CySmIe"/>
    <component base="CombGrave" xOffset="939"/>
    <contour>
      <point x="473" y="1410" type="move" name="U"/>
    </contour>
    <contour>
      <point x="473" y="-100" type="move" name="L"/>
    </contour>
  </outline>
</glyph>
<glyph name="CySmKje" format="1">
  <advance width="1037"/>
  <unicode hex="045C"/>
  <outline>
    <component base="CySmKa"/>
    <component base="CombAcute" xOffset="1079"/>
    <contour>
      <point x="449" y="1440" type="move" name="U"/>
    </contour>
    <contour>
      <point x="539" y="-100" type="move" name="L"/>
    </contour>
  </outline>
</glyph>
<glyph name="CySmIGrave" format="1">
  <advance width="1195"/>
  <unicode hex="045D"/>
  <outline>
    <component base="CySmI"/>
    <component base="CombGrave" xOffset="1063"/>
    <contour>
      <point x="597" y="1410" type="move" name="U"/>
    </contour>
    <contour>
      <point x="597" y="-100" type="move" name="L"/>
    </contour>
  </outline>
</glyph>
<glyph name="CySmDzhe" format="1">
  <advance width="1115"/>
  <unicode hex="045F"/>
  <outline>
    <contour>
      <point x="55" y="930" type="line"/>
      <point x="55" y="887" type="line"/>
      <point x="152" y="869"/>
      <point x="195" y="842"/>
      <point x="195" y="826" type="curve" smooth="yes"/>
      <point x="195" y="104" type="line" smooth="yes"/>
      <point x="195" y="86"/>
      <point x="145" y="61"/>
      <point x="55" y="43" type="curve"/>
      <point x="55" y="0" type="line"/>
      <point x="433" y="0" type="line"/>
      <point x="474" y="-8"/>
      <point x="519" y="-181"/>
      <point x="523" y="-380" type="curve"/>
      <point x="570" y="-380" type="line"/>
      <point x="597" y="-199"/>
      <point x="642" y="-10"/>
      <point x="685" y="0" type="curve"/>
      <point x="1060" y="0" type="line"/>
      <point x="1060" y="43" type="line"/>
      <point x="970" y="61"/>
      <point x="920" y="87"/>
      <point x="920" y="104" type="curve" smooth="yes"/>
      <point x="920" y="826" type="line" smooth="yes"/>
      <point x="920" y="844"/>
      <point x="970" y="869"/>
      <point x="1060" y="887" type="curve"/>
      <point x="1060" y="930" type="line"/>
      <point x="630" y="930" type="line"/>
      <point x="630" y="887" type="line"/>
      <point x="727" y="869"/>
      <point x="770" y="842"/>
      <point x="770" y="826" type="curve" smooth="yes"/>
      <point x="770" y="90" type="line"/>
      <point x="345" y="90" type="line"/>
      <point x="345" y="828" type="line"/>
      <point x="348" y="846"/>
      <point x="398" y="870"/>
      <point x="485" y="887" type="curve"/>
      <point x="485" y="930" type="line"/>
    </contour>
    <contour>
      <point x="557" y="1050" type="move" name="U"/>
    </contour>
    <contour>
      <point x="557" y="-600" type="move" name="L"/>
    </contour>
  </outline>
</glyph>
<glyph name="CySmFita" format="1">
  <advance width="1030"/>
  <unicode hex="0473"/>
  <outline>
    <contour>
      <point x="950" y="485" type="curve" smooth="yes"/>
      <point x="950" y="758"/>
      <point x="786" y="960"/>
      <point x="535" y="960" type="curve" smooth="yes"/>
      <point x="285" y="960"/>
      <point x="80" y="709"/>
      <point x="80" y="444" type="curve" smooth="yes"/>
      <point x="80" y="172"/>
      <point x="244" y="-30"/>
      <point x="496" y="-30" type="curve" smooth="yes"/>
      <point x="739" y="-30"/>
      <point x="950" y="219"/>
    </contour>
    <contour>
      <point x="524" y="80" type="curve" smooth="yes"/>
      <point x="409" y="80"/>
      <point x="257" y="238"/>
      <point x="237" y="430" type="curve"/>
      <point x="795" y="430" type="line"/>
      <point x="789" y="216"/>
      <point x="706" y="80"/>
    </contour>
    <contour>
      <point x="506" y="850" type="curve" smooth="yes"/>
      <point x="628" y="850"/>
      <point x="763" y="702"/>
      <point x="790" y="520" type="curve"/>
      <point x="236" y="520" type="line"/>
      <point x="246" y="709"/>
      <point x="318" y="850"/>
    </contour>
    <contour>
      <point x="525" y="1050" type="move" name="U"/>
    </contour>
    <contour>
      <point x="525" y="-100" type="move" name="L"/>
    </contour>
  </outline>
</glyph>
<glyph name="CySmShortITail" format="1">
  <advance width="1210"/>
  <unicode hex="048B"/>
  <outline>
    <contour>
      <point x="599" y="1078" type="curve" smooth="yes"/>
      <point x="739" y="1078"/>
      <point x="837" y="1117"/>
      <point x="904" y="1163" type="curve"/>
      <point x="909" y="1196"/>
      <point x="877" y="1339"/>
      <point x="851" y="1374" type="curve"/>
      <point x="804" y="1363" type="line"/>
      <point x="793" y="1259"/>
      <point x="725" y="1158"/>
      <point x="599" y="1158" type="curve" smooth="yes"/>
      <point x="473" y="1158"/>
      <point x="405" y="1259"/>
      <point x="394" y="1363" type="curve"/>
      <point x="347" y="1374" type="line"/>
      <point x="321" y="1339"/>
      <point x="289" y="1196"/>
      <point x="294" y="1163" type="curve"/>
      <point x="362" y="1117"/>
      <point x="459" y="1078"/>
    </contour>
    <contour>
      <point x="886" y="727" type="line"/>
      <point x="886" y="851" type="line"/>
      <point x="292" y="186" type="line"/>
      <point x="292" y="63" type="line"/>
    </contour>
    <contour>
      <point x="485" y="0" type="line"/>
      <point x="485" y="43" type="line"/>
      <point x="388" y="61"/>
      <point x="345" y="88"/>
      <point x="345" y="104" type="curve" smooth="yes"/>
      <point x="345" y="826" type="line" smooth="yes"/>
      <point x="345" y="844"/>
      <point x="395" y="869"/>
      <point x="485" y="887" type="curve"/>
      <point x="485" y="930" type="line"/>
      <point x="55" y="930" type="line"/>
      <point x="55" y="887" type="line"/>
      <point x="152" y="869"/>
      <point x="195" y="842"/>
      <point x="195" y="826" type="curve" smooth="yes"/>
      <point x="195" y="104" type="line" smooth="yes"/>
      <point x="195" y="86"/>
      <point x="145" y="61"/>
      <point x="55" y="43" type="curve"/>
      <point x="55" y="0" type="line"/>
    </contour>
    <contour>
      <point x="1140" y="0" type="line"/>
      <point x="1140" y="43" type="line"/>
      <point x="1045" y="40"/>
      <point x="1000" y="48"/>
      <point x="1000" y="64" type="curve" smooth="yes"/>
      <point x="1000" y="826" type="line" smooth="yes"/>
      <point x="1000" y="844"/>
      <point x="1050" y="869"/>
      <point x="1140" y="887" type="curve"/>
      <point x="1140" y="930" type="line"/>
      <point x="710" y="930" type="line"/>
      <point x="710" y="887" type="line"/>
      <point x="807" y="869"/>
      <point x="850" y="842"/>
      <point x="850" y="826" type="curve" smooth="yes"/>
      <point x="850" y="104" type="line" smooth="yes"/>
      <point x="850" y="86"/>
      <point x="800" y="61"/>
      <point x="710" y="43" type="curve"/>
      <point x="710" y="0" type="line"/>
    </contour>
    <contour>
      <point x="951" y="70" type="line"/>
      <point x="1030" y="0" type="line"/>
      <point x="820" y="-323" type="line"/>
      <point x="830" y="-335"/>
      <point x="835" y="-341"/>
      <point x="844" y="-350" type="curve"/>
      <point x="878" y="-335"/>
      <point x="942" y="-307"/>
      <point x="974" y="-275" type="curve"/>
      <point x="1012" y="-220"/>
      <point x="1163" y="14"/>
      <point x="1181" y="43" type="curve"/>
      <point x="1155" y="70" type="line"/>
    </contour>
    <contour>
      <point x="597" y="1370" type="move" name="U"/>
    </contour>
    <contour>
      <point x="597" y="-400" type="move" name="L"/>
    </contour>
  </outline>
</glyph>
<glyph name="CySmErTick" format="1">
  <advance width="1085"/>
  <unicode hex="048F"/>
  <outline>
    <contour>
      <point x="1005" y="492" type="curve"/>
      <point x="1005" y="784"/>
      <point x="872" y="960"/>
      <point x="690" y="960" type="curve" smooth="yes"/>
      <point x="614" y="960"/>
      <point x="472" y="887"/>
      <point x="339" y="727" type="curve"/>
      <point x="330" y="925" type="line"/>
      <point x="295" y="960" type="line"/>
      <point x="217" y="923"/>
      <point x="147" y="900"/>
      <point x="55" y="880" type="curve"/>
      <point x="55" y="840" type="line"/>
      <point x="182" y="834"/>
      <point x="195" y="811"/>
      <point x="195" y="711" type="curve" smooth="yes"/>
      <point x="195" y="-375" type="line" smooth="yes"/>
      <point x="195" y="-398"/>
      <point x="143" y="-416"/>
      <point x="55" y="-437" type="curve"/>
      <point x="55" y="-480" type="line"/>
      <point x="514" y="-480" type="line"/>
      <point x="514" y="-437" type="line"/>
      <point x="389" y="-418"/>
      <point x="345" y="-396"/>
      <point x="345" y="-375" type="curve" smooth="yes"/>
      <point x="345" y="98" type="line"/>
      <point x="439" y="16"/>
      <point x="545" y="-30"/>
      <point x="623" y="-30" type="curve" smooth="yes"/>
      <point x="818" y="-30"/>
      <point x="1005" y="260"/>
    </contour>
    <contour>
      <point x="870" y="426" type="curve"/>
      <point x="870" y="213"/>
      <point x="764" y="100"/>
      <point x="621" y="100" type="curve" smooth="yes"/>
      <point x="549" y="100"/>
      <point x="464" y="123"/>
      <point x="345" y="213" type="curve"/>
      <point x="345" y="610" type="line"/>
      <point x="462" y="782"/>
      <point x="575" y="835"/>
      <point x="623" y="835" type="curve" smooth="yes"/>
      <point x="752" y="835"/>
      <point x="870" y="659"/>
    </contour>
    <contour>
      <point x="613" y="312" type="line"/>
      <point x="914" y="-118" type="line"/>
      <point x="947" y="-122" type="line"/>
      <point x="960" y="-105"/>
      <point x="975" y="-86"/>
      <point x="987" y="-66" type="curve"/>
      <point x="686" y="364" type="line"/>
      <point x="653" y="371" type="line"/>
    </contour>
    <contour>
      <point x="529" y="1050" type="move" name="U"/>
    </contour>
    <contour>
      <point x="529" y="-600" type="move" name="L"/>
    </contour>
  </outline>
</glyph>
<glyph name="CySmAbkhasHa" format="1">
  <advance width="1260"/>
  <unicode hex="04A9"/>
  <outline>
    <contour>
      <point x="850" y="881" type="curve" smooth="yes"/>
      <point x="695" y="881"/>
      <point x="510" y="741"/>
      <point x="510" y="454" type="curve" smooth="yes"/>
      <point x="510" y="157"/>
      <point x="760" y="-30"/>
      <point x="935" y="-30" type="curve" smooth="yes"/>
      <point x="1019" y="-30"/>
      <point x="1102" y="-1"/>
      <point x="1250" y="160" type="curve"/>
      <point x="1211" y="201" type="line"/>
      <point x="1086" y="92"/>
      <point x="1039" y="80"/>
      <point x="977" y="80" type="curve" smooth="yes"/>
      <point x="829" y="80"/>
      <point x="660" y="258"/>
      <point x="660" y="485" type="curve" smooth="yes"/>
      <point x="660" y="735"/>
      <point x="753" y="771"/>
      <point x="780" y="771" type="curve" smooth="yes"/>
      <point x="868" y="771"/>
      <point x="945" y="593"/>
      <point x="945" y="445" type="curve" smooth="yes"/>
      <point x="945" y="217"/>
      <point x="817" y="80"/>
      <point x="594" y="80" type="curve" smooth="yes"/>
      <point x="402" y="80"/>
      <point x="235" y="262"/>
      <point x="235" y="473" type="curve" smooth="yes"/>
      <point x="235" y="686"/>
      <point x="321" y="850"/>
      <point x="516" y="850" type="curve" smooth="yes"/>
      <point x="531" y="850"/>
      <point x="538" y="851"/>
      <point x="554" y="847" type="curve"/>
      <point x="584" y="882"/>
      <point x="642" y="943"/>
      <point x="623" y="951" type="curve" smooth="yes"/>
      <point x="603" y="959"/>
      <point x="582" y="960"/>
      <point x="545" y="960" type="curve" smooth="yes"/>
      <point x="303" y="960"/>
      <point x="80" y="709"/>
      <point x="80" y="444" type="curve" smooth="yes"/>
      <point x="80" y="172"/>
      <point x="258" y="-30"/>
      <point x="566" y="-30" type="curve" smooth="yes"/>
      <point x="844" y="-30"/>
      <point x="1100" y="209"/>
      <point x="1100" y="475" type="curve" smooth="yes"/>
      <point x="1100" y="646"/>
      <point x="1003" y="881"/>
    </contour>
    <contour>
      <point x="628" y="1050" type="move" name="U"/>
    </contour>
    <contour>
      <point x="627" y="-100" type="move" name="L"/>
    </contour>
  </outline>
</glyph>
<glyph name="CySmTeDesc" format="1">
  <advance width="954"/>
  <unicode hex="04AD"/>
  <outline>
    <contour>
      <point x="934" y="912" type="curve"/>
      <point x="907" y="930" type="line"/>
      <point x="462" y="930" type="line"/>
      <point x="438" y="840" type="line"/>
      <point x="767" y="840" type="line" smooth="yes"/>
      <point x="809" y="840"/>
      <point x="827" y="708"/>
      <point x="834" y="582" type="curve"/>
      <point x="881" y="582" type="line"/>
      <point x="897" y="638"/>
      <point x="930" y="861"/>
    </contour>
    <contour>
      <point x="475" y="840" type="line"/>
      <point x="551" y="930" type="line"/>
      <point x="63" y="930" type="line"/>
      <point x="49" y="878"/>
      <point x="30" y="650"/>
      <point x="31" y="592" type="curve"/>
      <point x="78" y="592" type="line"/>
      <point x="111" y="737"/>
      <point x="167" y="840"/>
      <point x="209" y="840" type="curve" smooth="yes"/>
    </contour>
    <contour>
      <point x="715" y="0" type="line"/>
      <point x="715" y="43" type="line"/>
      <point x="618" y="61"/>
      <point x="545" y="48"/>
      <point x="545" y="74" type="curve" smooth="yes"/>
      <point x="545" y="866" type="line" smooth="yes"/>
      <point x="545" y="884"/>
      <point x="595" y="869"/>
      <point x="685" y="887" type="curve"/>
      <point x="685" y="930" type="line"/>
      <point x="255" y="930" type="line"/>
      <point x="255" y="887" type="line"/>
      <point x="352" y="869"/>
      <point x="395" y="882"/>
      <point x="395" y="866" type="curve" smooth="yes"/>
      <point x="395" y="114" type="line" smooth="yes"/>
      <point x="395" y="86"/>
      <point x="315" y="61"/>
      <point x="225" y="43" type="curve"/>
      <point x="225" y="0" type="line"/>
    </contour>
    <contour>
      <point x="533" y="90" type="line"/>
      <point x="533" y="0" type="line"/>
      <point x="588" y="0"/>
      <point x="624" y="-198"/>
      <point x="615" y="-380" type="curve"/>
      <point x="662" y="-380" type="line"/>
      <point x="689" y="-301"/>
      <point x="736" y="-71"/>
      <point x="745" y="70" type="curve"/>
      <point x="719" y="90" type="line"/>
    </contour>
    <contour>
      <point x="471" y="1050" type="move" name="U"/>
    </contour>
    <contour>
      <point x="471" y="-600" type="move" name="L"/>
    </contour>
  </outline>
</glyph>
<glyph name="CyCapCheVertStrk" format="1">
  <advance width="1235"/>
  <unicode hex="04B8"/>
  <outline>
    <contour>
      <point x="725" y="1260" type="line"/>
      <point x="725" y="1217" type="line"/>
      <point x="822" y="1199"/>
      <point x="860" y="1172"/>
      <point x="860" y="1156" type="curve" smooth="yes"/>
      <point x="860" y="105" type="line" smooth="yes"/>
      <point x="860" y="86"/>
      <point x="805" y="66"/>
      <point x="695" y="43" type="curve"/>
      <point x="695" y="0" type="line"/>
      <point x="1165" y="0" type="line"/>
      <point x="1165" y="43" type="line"/>
      <point x="1069" y="62"/>
      <point x="1020" y="89"/>
      <point x="1020" y="105" type="curve" smooth="yes"/>
      <point x="1020" y="1156" type="line" smooth="yes"/>
      <point x="1020" y="1174"/>
      <point x="1075" y="1199"/>
      <point x="1165" y="1217" type="curve"/>
      <point x="1165" y="1260" type="line"/>
    </contour>
    <contour>
      <point x="50" y="1260" type="line"/>
      <point x="50" y="1217" type="line"/>
      <point x="146" y="1199"/>
      <point x="195" y="1172"/>
      <point x="195" y="1156" type="curve" smooth="yes"/>
      <point x="195" y="800" type="line"/>
      <point x="197" y="587"/>
      <point x="417" y="535"/>
      <point x="556" y="535" type="curve" smooth="yes"/>
      <point x="704" y="535"/>
      <point x="837" y="565"/>
      <point x="936" y="601" type="curve"/>
      <point x="936" y="681" type="line"/>
      <point x="829" y="646"/>
      <point x="729" y="630"/>
      <point x="622" y="630" type="curve" smooth="yes"/>
      <point x="505" y="630"/>
      <point x="358" y="676"/>
      <point x="355" y="877" type="curve"/>
      <point x="355" y="1156" type="line" smooth="yes"/>
      <point x="355" y="1174"/>
      <point x="400" y="1199"/>
      <point x="490" y="1217" type="curve"/>
      <point x="490" y="1260" type="line"/>
    </contour>
    <contour>
      <point x="562" y="935" type="line"/>
      <point x="562" y="250" type="line"/>
      <point x="587" y="228" type="line"/>
      <point x="607" y="234"/>
      <point x="631" y="242"/>
      <point x="652" y="250" type="curve"/>
      <point x="652" y="935" type="line"/>
      <point x="629" y="960" type="line"/>
    </contour>
    <contour>
      <point x="604" y="1370" type="move" name="U"/>
    </contour>
    <contour>
      <point x="604" y="-100" type="move" name="L"/>
    </contour>
  </outline>
</glyph>
<glyph name="CyCapKaHook" format="1">
  <advance width="1220"/>
  <unicode hex="04C3"/>
  <outline>
    <contour>
      <point x="500" y="0" type="line"/>
      <point x="500" y="43" type="line"/>
      <point x="403" y="61"/>
      <point x="355" y="88"/>
      <point x="355" y="104" type="curve" smooth="yes"/>
      <point x="355" y="1155" type="line" smooth="yes"/>
      <point x="355" y="1174"/>
      <point x="410" y="1198"/>
      <point x="500" y="1217" type="curve"/>
      <point x="500" y="1260" type="line"/>
      <point x="50" y="1260" type="line"/>
      <point x="50" y="1217" type="line"/>
      <point x="146" y="1198"/>
      <point x="195" y="1171"/>
      <point x="195" y="1155" type="curve" smooth="yes"/>
      <point x="195" y="104" type="line" smooth="yes"/>
      <point x="195" y="86"/>
      <point x="140" y="61"/>
      <point x="50" y="43" type="curve"/>
      <point x="50" y="0" type="line"/>
    </contour>
    <contour>
      <point x="1080" y="955" type="line"/>
      <point x="1125" y="1098"/>
      <point x="1158" y="1235"/>
      <point x="1133" y="1245" type="curve" smooth="yes"/>
      <point x="1090" y="1262"/>
      <point x="1025" y="1276"/>
      <point x="986" y="1276" type="curve" smooth="yes"/>
      <point x="854" y="1276"/>
      <point x="789" y="1241"/>
      <point x="698" y="953" type="curve" smooth="yes"/>
      <point x="620" y="708"/>
      <point x="594" y="704"/>
      <point x="536" y="704" type="curve" smooth="yes"/>
      <point x="487" y="704"/>
      <point x="329" y="705"/>
      <point x="329" y="705" type="curve"/>
      <point x="325" y="615" type="line"/>
      <point x="325" y="615"/>
      <point x="485" y="614"/>
      <point x="553" y="615" type="curve" smooth="yes"/>
      <point x="679" y="617"/>
      <point x="729" y="688"/>
      <point x="789" y="895" type="curve" smooth="yes"/>
      <point x="845" y="1089"/>
      <point x="889" y="1127"/>
      <point x="934" y="1127" type="curve" smooth="yes"/>
      <point x="975" y="1127"/>
      <point x="999" y="1098"/>
      <point x="1025" y="955" type="curve"/>
    </contour>
    <contour>
      <point x="647" y="725" type="line"/>
      <point x="526" y="657" type="line"/>
      <point x="862" y="113" type="line" smooth="yes"/>
      <point x="902" y="49"/>
      <point x="961" y="-39"/>
      <point x="961" y="-125" type="curve" smooth="yes"/>
      <point x="961" y="-219"/>
      <point x="917" y="-260"/>
      <point x="871" y="-260" type="curve" smooth="yes"/>
      <point x="840" y="-260"/>
      <point x="777" y="-239"/>
      <point x="703" y="-170" type="curve"/>
      <point x="654" y="-196"/>
      <point x="574" y="-259"/>
      <point x="574" y="-281" type="curve" smooth="yes"/>
      <point x="574" y="-320"/>
      <point x="672" y="-380"/>
      <point x="762" y="-380" type="curve" smooth="yes"/>
      <point x="832" y="-380"/>
      <point x="951" y="-329"/>
      <point x="1017" y="-265" type="curve" smooth="yes"/>
      <point x="1067" y="-217"/>
      <point x="1112" y="-153"/>
      <point x="1110" y="-65" type="curve" smooth="yes"/>
      <point x="1108" y="40"/>
      <point x="1065" y="110"/>
      <point x="945" y="286" type="curve" smooth="yes"/>
    </contour>
    <contour>
      <point x="640" y="1370" type="move" name="U"/>
    </contour>
    <contour>
      <point x="640" y="-600" type="move" name="L"/>
    </contour>
  </outline>
</glyph>
<glyph name="CyCapEnHook" format="1">
  <advance width="1339"/>
  <unicode hex="04C7"/>
  <outline>
    <component base="LtnCapHeng"/>
    <contour>
      <point x="660" y="-600" type="move" name="L"/>
    </contour>
    <contour>
      <point x="660" y="1370" type="move" name="U"/>
    </contour>
  </outline>
</glyph>
<glyph name="CySmEnTail" format="1">
  <advance width="1180"/>
  <unicode hex="04CA"/>
  <outline>
    <contour>
      <point x="872" y="430" type="line"/>
      <point x="872" y="520" type="line"/>
      <point x="269" y="520" type="line"/>
      <point x="269" y="430" type="line"/>
    </contour>
    <contour>
      <point x="485" y="0" type="line"/>
      <point x="485" y="43" type="line"/>
      <point x="388" y="61"/>
      <point x="345" y="88"/>
      <point x="345" y="104" type="curve" smooth="yes"/>
      <point x="345" y="826" type="line" smooth="yes"/>
      <point x="345" y="844"/>
      <point x="395" y="869"/>
      <point x="485" y="887" type="curve"/>
      <point x="485" y="930" type="line"/>
      <point x="55" y="930" type="line"/>
      <point x="55" y="887" type="line"/>
      <point x="152" y="869"/>
      <point x="195" y="842"/>
      <point x="195" y="826" type="curve" smooth="yes"/>
      <point x="195" y="104" type="line" smooth="yes"/>
      <point x="195" y="86"/>
      <point x="145" y="61"/>
      <point x="55" y="43" type="curve"/>
      <point x="55" y="0" type="line"/>
    </contour>
    <contour>
      <point x="1040" y="0" type="line"/>
      <point x="1040" y="43" type="line"/>
      <point x="998" y="46"/>
      <point x="970" y="48"/>
      <point x="970" y="64" type="curve" smooth="yes"/>
      <point x="970" y="826" type="line" smooth="yes"/>
      <point x="970" y="844"/>
      <point x="1020" y="869"/>
      <point x="1110" y="887" type="curve"/>
      <point x="1110" y="930" type="line"/>
      <point x="680" y="930" type="line"/>
      <point x="680" y="887" type="line"/>
      <point x="777" y="869"/>
      <point x="820" y="842"/>
      <point x="820" y="826" type="curve" smooth="yes"/>
      <point x="820" y="104" type="line" smooth="yes"/>
      <point x="820" y="86"/>
      <point x="770" y="61"/>
      <point x="680" y="43" type="curve"/>
      <point x="680" y="0" type="line"/>
    </contour>
    <contour>
      <point x="921" y="70" type="line"/>
      <point x="1000" y="0" type="line"/>
      <point x="790" y="-323" type="line"/>
      <point x="800" y="-335"/>
      <point x="805" y="-341"/>
      <point x="814" y="-350" type="curve"/>
      <point x="848" y="-335"/>
      <point x="912" y="-307"/>
      <point x="944" y="-275" type="curve"/>
      <point x="982" y="-220"/>
      <point x="1133" y="14"/>
      <point x="1151" y="43" type="curve"/>
      <point x="1125" y="70" type="line"/>
    </contour>
    <contour>
      <point x="582" y="1050" type="move" name="U"/>
    </contour>
    <contour>
      <point x="582" y="-400" type="move" name="L"/>
    </contour>
  </outline>
</glyph>
<glyph name="CyCapADiaer" format="1">
  <advance width="1219"/>
  <unicode hex="04D2"/>
  <outline>
    <component base="CyCapA"/>
    <component base="CombDiaer.LP" xOffset="1147" yOffset="320"/>
    <contour>
      <point x="599" y="1690" type="move" name="U"/>
    </contour>
    <contour>
      <point x="599" y="-100" type="move" name="L"/>
    </contour>
  </outline>
</glyph>
<glyph name="CySmSchwaDiaer" format="1">
  <advance width="1015"/>
  <unicode hex="04DB"/>
  <outline>
    <component base="LtnSmSchwa"/>
    <component base="CombDiaer" xOffset="1055"/>
    <contour>
      <point x="507" y="0" type="move" name="H"/>
    </contour>
    <contour>
      <point x="541" y="0" type="move" name="O"/>
    </contour>
    <contour>
      <point x="507" y="1410" type="move" name="U"/>
    </contour>
    <contour>
      <point x="507" y="-100" type="move" name="L"/>
    </contour>
  </outline>
</glyph>
<glyph name="CyCapZeDiaer" format="1">
  <advance width="1029"/>
  <unicode hex="04DE"/>
  <outline>
    <component base="CyCapZe"/>
    <component base="CombDiaer.LP" xOffset="1028" yOffset="320"/>
    <contour>
      <point x="480" y="1690" type="move" name="U"/>
    </contour>
    <contour>
      <point x="477" y="-100" type="move" name="L"/>
    </contour>
  </outline>
</glyph>
<glyph name="CySmAbkhasDze" format="1">
  <advance width="995"/>
  <unicode hex="04E1"/>
  <outline>
    <component base="LtnSmEzh"/>
    <contour>
      <point x="480" y="1050" type="move" name="U"/>
    </contour>
    <contour>
      <point x="480" y="-600" type="move" name="L"/>
    </contour>
  </outline>
</glyph>
<glyph name="CyCapIDiaer" format="1">
  <advance width="1360"/>
  <unicode hex="04E4"/>
  <outline>
    <component base="CyCapI"/>
    <component base="CombDiaer.LP" xOffset="1218" yOffset="320"/>
    <contour>
      <point x="670" y="1690" type="move" name="U"/>
    </contour>
    <contour>
      <point x="670" y="-100" type="move" name="L"/>
    </contour>
  </outline>
</glyph>
<glyph name="CyCapBarredO" format="1">
  <advance width="1289"/>
  <unicode hex="04E8"/>
  <outline>
    <component base="LtnCapOMiddleTilde"/>
    <contour>
      <point x="639" y="1370" type="move" name="U"/>
    </contour>
    <contour>
      <point x="631" y="-100" type="move" name="L"/>
    </contour>
  </outline>
</glyph>
<glyph name="CyCapEDiaer" format="1">
  <advance width="1145"/>
  <unicode hex="04EC"/>
  <outline>
    <component base="CyCapE"/>
    <component base="CombDiaer.LP" xOffset="1121" yOffset="320"/>
    <contour>
      <point x="573" y="1690" type="move" name="U"/>
    </contour>
    <contour>
      <point x="573" y="-100" type="move" name="L"/>
    </contour>
  </outline>
</glyph>
<glyph name="CySmUDblAcute" format="1">
  <advance width="1030"/>
  <unicode hex="04F3"/>
  <outline>
    <component base="CySmU"/>
    <component base="CombDblAcute" xOffset="1083"/>
    <contour>
      <point x="550" y="1588" type="move" name="U"/>
    </contour>
    <contour>
      <point x="770" y="-100" type="move" name="L"/>
    </contour>
  </outline>
</glyph>
<glyph name="CySmCheDiaer" format="1">
  <advance width="1058"/>
  <unicode hex="04F5"/>
  <outline>
    <component base="CySmChe"/>
    <component base="CombDiaer" xOffset="1073"/>
    <contour>
      <point x="525" y="1410" type="move" name="U"/>
    </contour>
    <contour>
      <point x="524" y="-100" type="move" name="L"/>
    </contour>
  </outline>
</glyph>
<glyph name="CyCapYeruDiaer" format="1">
  <advance width="1530"/>
  <unicode hex="04F8"/>
  <outline>
    <component base="CyCapYeru"/>
    <component base="CombDiaer.LP" xOffset="1318" yOffset="320"/>
    <contour>
      <point x="770" y="1690" type="move" name="U"/>
    </contour>
    <contour>
      <point x="770" y="-100" type="move" name="L"/>
    </contour>
  </outline>
</glyph>
<glyph name="CySmGheStrkHook" format="1">
  <advance width="848"/>
  <unicode hex="04FB"/>
  <outline>
    <contour>
      <point x="828" y="912" type="curve"/>
      <point x="801" y="930" type="line"/>
      <point x="326" y="930" type="line"/>
      <point x="302" y="840" type="line"/>
      <point x="641" y="840" type="line" smooth="yes"/>
      <point x="683" y="840"/>
      <point x="721" y="752"/>
      <point x="728" y="572" type="curve"/>
      <point x="775" y="572" type="line"/>
      <point x="791" y="628"/>
      <point x="824" y="861"/>
    </contour>
    <contour>
      <point x="516" y="0" type="line"/>
      <point x="516" y="43" type="line"/>
      <point x="384" y="63"/>
      <point x="345" y="82"/>
      <point x="345" y="108" type="curve"/>
      <point x="345" y="869" type="line" smooth="yes"/>
      <point x="345" y="882"/>
      <point x="390" y="884"/>
      <point x="464" y="898" type="curve"/>
      <point x="464" y="930" type="line"/>
      <point x="326" y="930" type="line"/>
      <point x="55" y="930" type="line"/>
      <point x="55" y="887" type="line"/>
      <point x="135" y="873"/>
      <point x="195" y="843"/>
      <point x="195" y="831" type="curve" smooth="yes"/>
      <point x="195" y="108" type="line" smooth="yes"/>
      <point x="195" y="80"/>
      <point x="129" y="56"/>
      <point x="55" y="43" type="curve"/>
      <point x="55" y="0" type="line"/>
    </contour>
    <contour>
      <point x="575" y="480" type="line"/>
      <point x="553" y="505" type="line"/>
      <point x="67" y="505" type="line"/>
      <point x="57" y="484"/>
      <point x="51" y="458"/>
      <point x="45" y="437" type="curve"/>
      <point x="67" y="415" type="line"/>
      <point x="553" y="415" type="line"/>
    </contour>
    <contour>
      <point x="79" y="-287" type="curve"/>
      <point x="67" y="-400"/>
      <point x="158" y="-500"/>
      <point x="273" y="-500" type="curve" smooth="yes"/>
      <point x="375" y="-500"/>
      <point x="516" y="-452"/>
      <point x="516" y="-167" type="curve" smooth="yes"/>
      <point x="516" y="30" type="line"/>
      <point x="485" y="16"/>
      <point x="462" y="28"/>
      <point x="426" y="16" type="curve"/>
      <point x="426" y="-196" type="line" smooth="yes"/>
      <point x="426" y="-359"/>
      <point x="385" y="-405"/>
      <point x="319" y="-405" type="curve" smooth="yes"/>
      <point x="266" y="-405"/>
      <point x="195" y="-341"/>
      <point x="239" y="-221" type="curve"/>
      <point x="232" y="-210"/>
      <point x="221" y="-200"/>
      <point x="216" y="-194" type="curve"/>
      <point x="174" y="-210"/>
      <point x="102" y="-259"/>
    </contour>
    <contour>
      <point x="441" y="1050" type="move" name="U"/>
    </contour>
    <contour>
      <point x="441" y="-600" type="move" name="L"/>
    </contour>
  </outline>
</glyph>
<glyph name="CyCapHaHook" format="1">
  <advance width="1300"/>
  <unicode hex="04FC"/>
  <outline>
    <contour>
      <point x="1230" y="1177" type="curve"/>
      <point x="1230" y="1260" type="line"/>
      <point x="777" y="1260" type="line"/>
      <point x="777" y="1177" type="line"/>
      <point x="896" y="1168"/>
      <point x="906" y="1154"/>
      <point x="868" y="1093" type="curve" smooth="yes"/>
      <point x="582" y="641" type="line"/>
      <point x="658" y="489" type="line"/>
      <point x="1047" y="1093" type="line" smooth="yes"/>
      <point x="1083" y="1149"/>
      <point x="1133" y="1166"/>
    </contour>
    <contour>
      <point x="1200" y="-54" type="curve" smooth="yes"/>
      <point x="1200" y="24"/>
      <point x="1195" y="73"/>
      <point x="1045" y="291" type="curve" smooth="yes"/>
      <point x="495" y="1093" type="line" smooth="yes"/>
      <point x="455" y="1151"/>
      <point x="489" y="1166"/>
      <point x="602" y="1177" type="curve"/>
      <point x="602" y="1260" type="line"/>
      <point x="31" y="1260" type="line"/>
      <point x="31" y="1177" type="line"/>
      <point x="119" y="1164"/>
      <point x="146" y="1152"/>
      <point x="187" y="1093" type="curve" smooth="yes"/>
      <point x="891" y="66" type="line" smooth="yes"/>
      <point x="964" y="-40"/>
      <point x="982" y="-93"/>
      <point x="982" y="-155" type="curve" smooth="yes"/>
      <point x="982" y="-208"/>
      <point x="933" y="-260"/>
      <point x="886" y="-260" type="curve" smooth="yes"/>
      <point x="842" y="-260"/>
      <point x="779" y="-229"/>
      <point x="708" y="-150" type="curve"/>
      <point x="648" y="-178"/>
      <point x="531" y="-289"/>
      <point x="531" y="-331" type="curve" smooth="yes"/>
      <point x="531" y="-367"/>
      <point x="674" y="-430"/>
      <point x="779" y="-430" type="curve" smooth="yes"/>
      <point x="859" y="-430"/>
      <point x="985" y="-376"/>
      <point x="1073" y="-295" type="curve" smooth="yes"/>
      <point x="1124" y="-248"/>
      <point x="1200" y="-145"/>
    </contour>
    <contour>
      <point x="661" y="578" type="line"/>
      <point x="596" y="752" type="line"/>
      <point x="203" y="167" type="line" smooth="yes"/>
      <point x="167" y="114"/>
      <point x="107" y="89"/>
      <point x="21" y="83" type="curve"/>
      <point x="21" y="0" type="line"/>
      <point x="471" y="0" type="line"/>
      <point x="471" y="83" type="line"/>
      <point x="348" y="91"/>
      <point x="343" y="109"/>
      <point x="382" y="167" type="curve" smooth="yes"/>
    </contour>
    <contour>
      <point x="650" y="1370" type="move" name="U"/>
    </contour>
    <contour>
      <point x="655" y="-600" type="move" name="L"/>
    </contour>
  </outline>
</glyph>
<glyph name="CySmKomiDe" format="1">
  <advance width="1175"/>
  <unicode hex="0501"/>
  <outline>
    <component base="LtnSmD"/>
    <contour>
      <point x="548" y="0" type="move" name="H"/>
    </contour>
    <contour>
      <point x="1175" y="900" type="move" name="R"/>
    </contour>
    <contour>
      <point x="351" y="1050" type="move" name="U"/>
    </contour>
    <contour>
      <point x="569" y="-100" type="move" name="L"/>
    </contour>
  </outline>
</glyph>
<glyph name="CyCapQa" format="1">
  <advance width="1289"/>
  <unicode hex="051A"/>
  <outline>
    <component base="LtnCapQ"/>
    <contour>
      <point x="672" y="1370" type="move" name="U"/>
    </contour>
    <contour>
      <point x="672" y="-270" type="move" name="L"/>
    </contour>
  </outline>
</glyph>
<glyph name="CySmWe" format="1">
  <advance width="1476"/>
  <unicode hex="051D"/>
  <outline>
    <component base="LtnSmW"/>
    <contour>
      <point x="765" y="1050" type="move" name="U"/>
    </contour>
    <contour>
      <point x="745" y="-100" type="move" name="L"/>
    </contour>
  </outline>
</glyph>
<glyph name="CySmPeDesc" format="1">
  <advance width="1135"/>
  <unicode hex="0525"/>
  <outline>
    <contour>
      <point x="1090" y="43" type="curve"/>
      <point x="980" y="59"/>
      <point x="940" y="88"/>
      <point x="940" y="104" type="curve" smooth="yes"/>
      <point x="940" y="826" type="line" smooth="yes"/>
      <point x="940" y="844"/>
      <point x="990" y="869"/>
      <point x="1080" y="887" type="curve"/>
      <point x="1080" y="930" type="line"/>
      <point x="55" y="930" type="line"/>
      <point x="55" y="887" type="line"/>
      <point x="149" y="869"/>
      <point x="193" y="843"/>
      <point x="195" y="827" type="curve"/>
      <point x="195" y="104" type="line" smooth="yes"/>
      <point x="195" y="86"/>
      <point x="145" y="61"/>
      <point x="55" y="43" type="curve"/>
      <point x="55" y="0" type="line"/>
      <point x="485" y="0" type="line"/>
      <point x="485" y="43" type="line"/>
      <point x="388" y="61"/>
      <point x="345" y="88"/>
      <point x="345" y="104" type="curve" smooth="yes"/>
      <point x="345" y="840" type="line"/>
      <point x="790" y="840" type="line"/>
      <point x="790" y="102" type="line"/>
      <point x="787" y="84"/>
      <point x="737" y="60"/>
      <point x="650" y="43" type="curve"/>
      <point x="650" y="0" type="line"/>
      <point x="881" y="0" type="line"/>
      <point x="936" y="0"/>
      <point x="972" y="-198"/>
      <point x="963" y="-380" type="curve"/>
      <point x="1010" y="-380" type="line"/>
      <point x="1037" y="-301"/>
      <point x="1081" y="-98"/>
    </contour>
    <contour>
      <point x="567" y="1050" type="move" name="U"/>
    </contour>
    <contour>
      <point x="567" y="-100" type="move" name="L"/>
    </contour>
  </outline>
</glyph>
<glyph name="CySmDeCheLig" format="1">
  <advance width="1065"/>
  <unicode hex="052D"/>
  <outline>
    <contour>
      <point x="855" y="90" type="line"/>
      <point x="855" y="826" type="line" smooth="yes"/>
      <point x="855" y="844"/>
      <point x="905" y="869"/>
      <point x="995" y="887" type="curve"/>
      <point x="995" y="930" type="line"/>
      <point x="213" y="930" type="line"/>
      <point x="213" y="887" type="line"/>
      <point x="300" y="870"/>
      <point x="371" y="843"/>
      <point x="371" y="826" type="curve"/>
      <point x="349" y="590"/>
      <point x="270" y="302"/>
      <point x="162" y="90" type="curve"/>
      <point x="160" y="90"/>
      <point x="48" y="90"/>
      <point x="45" y="90" type="curve"/>
      <point x="25" y="11"/>
      <point x="12" y="-244"/>
      <point x="10" y="-380" type="curve"/>
      <point x="57" y="-380" type="line"/>
      <point x="111" y="-137"/>
      <point x="187" y="0"/>
      <point x="245" y="0" type="curve" smooth="yes"/>
      <point x="813" y="0" type="line" smooth="yes"/>
      <point x="868" y="0"/>
      <point x="904" y="-198"/>
      <point x="895" y="-380" type="curve"/>
      <point x="942" y="-380" type="line"/>
      <point x="969" y="-301"/>
      <point x="1016" y="-71"/>
      <point x="1025" y="70" type="curve"/>
      <point x="999" y="90" type="line"/>
    </contour>
    <contour>
      <point x="300" y="90" type="curve"/>
      <point x="380" y="302"/>
      <point x="446" y="587"/>
      <point x="478" y="840" type="curve"/>
      <point x="477" y="840"/>
      <point x="705" y="840"/>
      <point x="705" y="840" type="curve"/>
      <point x="705" y="90" type="line"/>
      <point x="705" y="90"/>
      <point x="713" y="91"/>
    </contour>
    <contour>
      <point x="595" y="1050" type="move" name="U"/>
    </contour>
    <contour>
      <point x="498" y="-100" type="move" name="L"/>
    </contour>
  </outline>
</glyph>
<glyph name="LtnSmCapD" format="1">
  <advance width="1170"/>
  <unicode hex="1D05"/>
  <outline>
    <contour>
      <point x="1100" y="509" type="curve" smooth="yes"/>
      <point x="1100" y="774"/>
      <point x="925" y="960"/>
      <point x="526" y="960" type="curve" smooth="yes"/>
      <point x="395" y="960"/>
      <point x="172" y="936"/>
      <point x="55" y="900" type="curve"/>
      <point x="74" y="794" type="line"/>
      <point x="178" y="824"/>
      <point x="360" y="846"/>
      <point x="495" y="846" type="curve" smooth="yes"/>
      <point x="724" y="846"/>
      <point x="832" y="681"/>
      <point x="832" y="480" type="curve" smooth="yes"/>
      <point x="832" y="263"/>
      <point x="714" y="107"/>
      <point x="570" y="107" type="curve" smooth="yes"/>
      <point x="502" y="107"/>
      <point x="469" y="128"/>
      <point x="469" y="162" type="curve"/>
      <point x="121" y="0" type="line"/>
      <point x="230" y="0"/>
      <point x="349" y="-10"/>
      <point x="565" y="-10" type="curve" smooth="yes"/>
      <point x="831" y="-10"/>
      <point x="1100" y="140"/>
    </contour>
    <contour>
      <point x="554" y="0" type="line"/>
      <point x="554" y="85" type="line"/>
      <point x="474" y="99"/>
      <point x="470" y="126"/>
      <point x="470" y="165" type="curve" smooth="yes"/>
      <point x="470" y="860" type="line"/>
      <point x="200" y="860" type="line"/>
      <point x="200" y="144" type="line" smooth="yes"/>
      <point x="200" y="130"/>
      <point x="135" y="96"/>
      <point x="60" y="83" type="curve"/>
      <point x="60" y="0" type="line"/>
    </contour>
    <contour>
      <point x="603" y="1050" type="move" name="U"/>
    </contour>
    <contour>
      <point x="604" y="-100" type="move" name="L"/>
    </contour>
  </outline>
</glyph>
<glyph name="LtnSmCapO" format="1">
  <advance width="1150"/>
  <unicode hex="1D0F"/>
  <outline>
    <contour>
      <point x="1090" y="477" type="curve" smooth="yes"/>
      <point x="1090" y="718"/>
      <point x="924" y="960"/>
      <point x="599" y="960" type="curve" smooth="yes"/>
      <point x="278" y="960"/>
      <point x="60" y="750"/>
      <point x="60" y="452" type="curve" smooth="yes"/>
      <point x="60" y="204"/>
      <point x="224" y="-22"/>
      <point x="551" y="-22" type="curve" smooth="yes"/>
      <point x="864" y="-22"/>
      <point x="1090" y="180"/>
    </contour>
    <contour>
      <point x="830" y="464" type="curve" smooth="yes"/>
      <point x="830" y="224"/>
      <point x="723" y="100"/>
      <point x="575" y="100" type="curve" smooth="yes"/>
      <point x="434" y="100"/>
      <point x="320" y="272"/>
      <point x="320" y="473" type="curve" smooth="yes"/>
      <point x="320" y="694"/>
      <point x="408" y="834"/>
      <point x="575" y="834" type="curve" smooth="yes"/>
      <point x="744" y="834"/>
      <point x="830" y="648"/>
    </contour>
    <contour>
      <point x="592" y="1050" type="move" name="U"/>
    </contour>
    <contour>
      <point x="568" y="-100" type="move" name="L"/>
    </contour>
  </outline>
</glyph>
<glyph name="LtnSmCapW" format="1">
  <advance width="1544"/>
  <unicode hex="1D21"/>
  <outline>
    <contour>
      <point x="1523" y="847" type="curve"/>
      <point x="1523" y="930" type="line"/>
      <point x="1148" y="930" type="line"/>
      <point x="1148" y="847" type="line"/>
      <point x="1240" y="832"/>
      <point x="1265" y="815"/>
      <point x="1255" y="785" type="curve" smooth="yes"/>
      <point x="1131" y="367" type="line"/>
      <point x="852" y="930" type="line"/>
      <point x="836" y="930"/>
      <point x="799" y="930"/>
      <point x="799" y="930" type="curve"/>
      <point x="741" y="596" type="line"/>
      <point x="1045" y="-30" type="line"/>
      <point x="1079" y="-22"/>
      <point x="1175" y="0"/>
      <point x="1192" y="59" type="curve"/>
      <point x="1403" y="785" type="line" smooth="yes"/>
      <point x="1413" y="816"/>
      <point x="1451" y="828"/>
    </contour>
    <contour>
      <point x="839" y="745" type="line"/>
      <point x="848" y="930" type="line"/>
      <point x="848" y="930"/>
      <point x="781" y="930"/>
      <point x="763" y="930" type="curve"/>
      <point x="516" y="367" type="line"/>
      <point x="403" y="785" type="line" smooth="yes"/>
      <point x="396" y="811"/>
      <point x="418" y="834"/>
      <point x="528" y="847" type="curve"/>
      <point x="528" y="930" type="line"/>
      <point x="22" y="930" type="line"/>
      <point x="22" y="847" type="line"/>
      <point x="88" y="837"/>
      <point x="153" y="809"/>
      <point x="161" y="785" type="curve" smooth="yes"/>
      <point x="389" y="-30" type="line"/>
      <point x="424" y="-22"/>
      <point x="512" y="-2"/>
      <point x="532" y="59" type="curve"/>
    </contour>
    <contour>
      <point x="801" y="1050" type="move" name="U"/>
    </contour>
    <contour>
      <point x="801" y="-84" type="move" name="L"/>
    </contour>
  </outline>
</glyph>
<glyph name="GrSmCapGamma" format="1">
  <advance width="849"/>
  <unicode hex="1D26"/>
  <outline>
    <contour>
      <point x="814" y="911" type="curve"/>
      <point x="788" y="930" type="line"/>
      <point x="318" y="930" type="line"/>
      <point x="293" y="840" type="line"/>
      <point x="674" y="840" type="line" smooth="yes"/>
      <point x="717" y="840"/>
      <point x="725" y="792"/>
      <point x="732" y="666" type="curve"/>
      <point x="772" y="666" type="line"/>
      <point x="788" y="722"/>
      <point x="811" y="861"/>
    </contour>
    <contour>
      <point x="520" y="0" type="line"/>
      <point x="520" y="43" type="line"/>
      <point x="387" y="63"/>
      <point x="345" y="90"/>
      <point x="345" y="104" type="curve" smooth="yes"/>
      <point x="345" y="868" type="line" smooth="yes"/>
      <point x="345" y="881"/>
      <point x="383" y="884"/>
      <point x="458" y="898" type="curve"/>
      <point x="458" y="930" type="line"/>
      <point x="55" y="930" type="line"/>
      <point x="55" y="887" type="line"/>
      <point x="135" y="873"/>
      <point x="195" y="853"/>
      <point x="195" y="841" type="curve" smooth="yes"/>
      <point x="195" y="104" type="line" smooth="yes"/>
      <point x="195" y="90"/>
      <point x="130" y="56"/>
      <point x="55" y="43" type="curve"/>
      <point x="55" y="0" type="line"/>
    </contour>
    <contour>
      <point x="472" y="1050" type="move" name="U"/>
    </contour>
    <contour>
      <point x="270" y="-100" type="move" name="L"/>
    </contour>
  </outline>
</glyph>
<glyph name="ModCapE" format="1">
  <advance width="711"/>
  <unicode hex="1D31"/>
  <outline>
    <contour>
      <point x="622" y="1358" type="curve"/>
      <point x="595" y="1376" type="line"/>
      <point x="232" y="1376" type="line"/>
      <point x="212" y="1312" type="line"/>
      <point x="496" y="1312" type="line" smooth="yes"/>
      <point x="530" y="1312"/>
      <point x="547" y="1290"/>
      <point x="551" y="1216" type="curve"/>
      <point x="592" y="1216" type="line"/>
      <point x="603" y="1247"/>
      <point x="619" y="1317"/>
    </contour>
    <contour>
      <point x="550" y="1044" type="curve"/>
      <point x="528" y="1066" type="line"/>
      <point x="218" y="1066" type="line"/>
      <point x="202" y="1006" type="line"/>
      <point x="338" y="1006" type="line" smooth="yes"/>
      <point x="417" y="1006"/>
      <point x="453" y="996"/>
      <point x="482" y="973" type="curve"/>
      <point x="502" y="985"/>
      <point x="535" y="1022"/>
    </contour>
    <contour>
      <point x="669" y="772" type="curve"/>
      <point x="629" y="787" type="line"/>
      <point x="589" y="694"/>
      <point x="559" y="684"/>
      <point x="473" y="684" type="curve" smooth="yes"/>
      <point x="396" y="684" type="line" smooth="yes"/>
      <point x="273" y="684"/>
      <point x="258" y="699"/>
      <point x="258" y="722" type="curve" smooth="yes"/>
      <point x="258" y="1316" type="line" smooth="yes"/>
      <point x="258" y="1327"/>
      <point x="287" y="1329"/>
      <point x="350" y="1340" type="curve"/>
      <point x="350" y="1376" type="line"/>
      <point x="232" y="1376" type="line"/>
      <point x="35" y="1376" type="line"/>
      <point x="35" y="1340" type="line"/>
      <point x="102" y="1329"/>
      <point x="126" y="1313"/>
      <point x="126" y="1303" type="curve" smooth="yes"/>
      <point x="126" y="692" type="line" smooth="yes"/>
      <point x="126" y="682"/>
      <point x="98" y="667"/>
      <point x="35" y="656" type="curve"/>
      <point x="35" y="620" type="line"/>
      <point x="639" y="620" type="line"/>
      <point x="647" y="643"/>
      <point x="662" y="703"/>
    </contour>
    <contour>
      <point x="364" y="1450" type="move" name="U"/>
    </contour>
    <contour>
      <point x="355" y="540" type="move" name="L"/>
    </contour>
  </outline>
</glyph>
